<?xml version="1.0" encoding="utf-8"?>
<!-- Generator: Adobe Illustrator 22.0.0, SVG Export Plug-In . SVG Version: 6.00 Build 0)  -->
<svg version="1.1" id="图层_1" xmlns="http://www.w3.org/2000/svg" xmlns:xlink="http://www.w3.org/1999/xlink" x="0px" y="0px"
	 viewBox="0 0 1024 1024" style="enable-background:new 0 0 1024 1024;" xml:space="preserve">
<style type="text/css">
	.st0{fill:#666666;}
</style>
<path d="M388.5,412.7c-4,0-8.1-1.5-11.2-4.6c-6.2-6.2-6.2-16.2,0-22.4L566.9,196c6.2-6.2,16.2-6.2,22.4,0l156.2,156.2
	c3,3,4.6,7,4.6,11.2c0,4.2-1.7,8.2-4.6,11.2L712,408c-6.2,6.2-16.2,6.2-22.4,0c-6.2-6.2-6.2-16.2,0-22.4l22.3-22.3L578.1,229.6
	L399.6,408C396.6,411.1,392.5,412.7,388.5,412.7L388.5,412.7z"/>
<path d="M322.6,412.7c-2.7,0-5.4-0.7-7.9-2.1c-7.5-4.4-10.1-14.1-5.7-21.6L419.4,199c4.4-7.5,14-10.1,21.5-5.8l92.4,52.9
	c7.6,4.3,10.2,14,5.9,21.6s-14,10.2-21.6,5.9l-78.7-45.1L336.3,404.8C333.3,409.9,328,412.7,322.6,412.7L322.6,412.7z"/>
<path class="st0" d="M763.6,366.9c1.1-2.8,1.7-5.9,1.7-9c0-6.8-2.7-13.3-7.5-18.1l-160-160c-4.8-4.8-11.3-7.5-18.1-7.5
	s-13.3,2.7-18.1,7.5l-40.1,40.1l-77.6-44.5c-3.9-2.2-8.3-3.4-12.7-3.4c-9.1,0-17.6,4.9-22.2,12.7L303.2,366.5h-33.2
	c-49.9,0-90.4,40.6-90.4,90.4v291.7c0,49.9,40.6,90.4,90.4,90.4h486.1c49.9,0,90.4-40.6,90.4-90.4V457
	C846.5,409.7,810,370.7,763.6,366.9z M579.7,234.1l123.8,123.8l-8.7,8.7H447.2L579.7,234.1z M440.4,232.5l43.5,24.9L374.8,366.5
	h-12.3L440.4,232.5z M795.3,748.6c0,21.6-17.6,39.2-39.2,39.2H269.9c-21.6,0-39.2-17.6-39.2-39.2V457c0-21.6,17.6-39.2,39.2-39.2
	h47.9c0,0,0,0,0,0c0,0,0,0,0,0h438.1c21.6,0,39.2,17.6,39.2,39.2V748.6z"/>
<path class="st0" d="M750.2,381H275.8c-43.6,0-79.1,35.5-79.1,79.1v284.7c0,43.6,35.5,79.1,79.1,79.1h474.5
	c43.6,0,79.1-35.5,79.1-79.1V460.1C829.3,416.5,793.8,381,750.2,381z M797.7,744.8c0,26.2-21.3,47.4-47.4,47.4H275.8
	c-26.2,0-47.4-21.3-47.4-47.4V460.1c0-26.2,21.3-47.4,47.4-47.4h474.5c26.2,0,47.4,21.3,47.4,47.4V744.8z"/>
<path class="st0" d="M702.8,539.2c-34.9,0-63.3,28.4-63.3,63.3c0,34.9,28.4,63.3,63.3,63.3c34.9,0,63.3-28.4,63.3-63.3
	C766.1,567.6,737.7,539.2,702.8,539.2z"/>
</svg>
