<?xml version="1.0" encoding="utf-8"?>
<!-- Generator: Adobe Illustrator 22.0.0, SVG Export Plug-In . SVG Version: 6.00 Build 0)  -->
<svg version="1.1" id="图层_1" xmlns="http://www.w3.org/2000/svg" xmlns:xlink="http://www.w3.org/1999/xlink" x="0px" y="0px"
	 viewBox="0 0 1024 1024" style="enable-background:new 0 0 1024 1024;" xml:space="preserve">
<style type="text/css">
	.st0{fill:#D5E3EF;}
	.st1{fill:#4C4C4C;}
	.st2{fill:#61C3F7;}
</style>
<path class="st0" d="M913.9,462.6L913.9,462.6c8.4-1.2,14.7-8.4,14.7-17V341.5c0-6.7-1-13.3-3.5-19.5c-8.2-20.6-27.6-32.9-48.2-32.9
	H256.1c-28.6,0-51.7,23.2-51.7,51.7v104.8c0,8.5,6.3,15.7,14.7,16.9c50.9,7.4,88.6,51,88.6,102.4c0,51.4-37.8,95-88.6,102.4
	c-8.4,1.2-14.7,8.4-14.7,17v104.8c0,28.6,23.2,51.7,51.7,51.7h620.7c28.6,0,51.7-23.2,51.7-51.7V684.3c0-8.5-6.3-15.7-14.7-16.9
	c-50.9-7.4-88.6-51-88.6-102.4C825.3,513.6,863,470,913.9,462.6z M371.6,341.7c1.7-0.5,3.4-0.9,5.2-0.9c3.5,0,6.7,1.1,9.4,2.8
	L371.6,341.7z"/>
<path class="st1" d="M196.7,794c-35.3,0-64-28.7-64-64V599.3c0-9.8,5.9-18.6,14.9-22.4c34.9-14.5,57.5-48.3,57.5-86.1
	c0-37.8-22.6-71.6-57.5-86.1c-9.1-3.8-14.9-12.5-14.9-22.4V251.9c0-35.3,28.7-64,64-64h617.4c35.3,0,64,28.7,64,64v130.6
	c0,9.8-5.9,18.6-14.9,22.4c-34.9,14.5-57.5,48.3-57.5,86.1c0,37.8,22.6,71.6,57.5,86.1c9.1,3.8,14.9,12.5,14.9,22.4v130.6
	c0,35.3-28.7,64-64,64H196.7z M181.1,729.9c0,8.6,7,15.6,15.6,15.6h617.4c8.6,0,15.6-7,15.6-15.6V614.5c-19-10.7-35.6-25.8-48-44
	c-16-23.5-24.5-51-24.5-79.6c0-28.5,8.5-56,24.5-79.6c12.3-18.1,28.9-33.3,48-44V251.9c0-8.6-7-15.6-15.6-15.6H196.7
	c-8.6,0-15.6,7-15.6,15.6v115.5c19,10.7,35.6,25.8,48,44c16,23.5,24.5,51,24.5,79.6c0,28.5-8.5,56-24.5,79.6
	c-12.3,18.1-28.9,33.3-48,44V729.9z"/>
<path class="st1" d="M814.2,791.5H196.7c-33.9,0-61.5-27.6-61.5-61.5V599.3c0-8.8,5.3-16.7,13.4-20.1c35.9-14.9,59-49.6,59-88.4
	c0-38.8-23.2-73.5-59-88.4c-8.1-3.4-13.4-11.3-13.4-20V251.9c0-33.9,27.6-61.5,61.5-61.5h617.4c33.9,0,61.5,27.6,61.5,61.5v130.6
	c0,8.8-5.3,16.7-13.4,20c-35.9,14.9-59,49.6-59,88.4c0,38.8,23.2,73.5,59,88.4c8.1,3.4,13.4,11.3,13.4,20.1v130.6
	C875.7,763.9,848.1,791.5,814.2,791.5L814.2,791.5z M178.6,613v116.9c0,10,8.1,18.1,18.1,18.1h617.4c10,0,18.1-8.1,18.1-18.1V613
	c-19.3-10.5-35.9-25.5-48.4-43.9c-15.7-23.1-24-50.1-24-78.1s8.3-55.1,24-78.1c12.5-18.4,29.1-33.4,48.4-43.9V251.9
	c0-10-8.1-18.1-18.1-18.1H196.7c-10,0-18.1,8.1-18.1,18.1v116.9c19.3,10.5,35.9,25.5,48.4,43.9c15.7,23.1,24,50.1,24,78.1
	s-8.3,55.1-24,78.1C214.5,587.5,197.9,602.4,178.6,613L178.6,613z M178.6,613"/>
<path class="st2" d="M521.7,614.4v-51.1h-60.9c-13.2,0-19.8-6-19.8-18.1c1.1-9.9,7.7-15.9,19.8-18.1h60.9v-28h-60.9
	c-13.2,0-19.8-6-19.8-18.1c1.1-9.9,7.7-15.9,19.8-18.1h34.6l-52.7-74.1c-5.5-4.4-7.7-10.4-6.6-18.1c1.1-18.7,11.5-29.1,31.3-31.3
	c9.9,1.1,18.1,5.5,24.7,13.2l60.9,87.3l60.9-87.3c5.5-7.7,13.7-12.1,24.7-13.2c18.7,2.2,29.1,12.6,31.3,31.3
	c0,7.7-2.2,13.7-6.6,18.1l-52.7,74.1h34.6c11,2.2,17.6,8.2,19.8,18.1c-1.1,12.1-7.7,18.1-19.8,18.1h-60.9v28h60.9
	c11,2.2,17.6,8.2,19.8,18.1c-1.1,12.1-7.7,18.1-19.8,18.1h-60.9v51.1c-1.1,18.7-11.5,28-31.3,28
	C532.1,642.4,521.7,633.1,521.7,614.4L521.7,614.4z M521.7,614.4"/>
<path class="st1" d="M337.4,362h-26.8c-3.1,0-5.6-2.5-5.6-5.6v-77c0-3.1,2.5-5.6,5.6-5.6h26.8c3.1,0,5.6,2.5,5.6,5.6v77
	C343,359.4,340.5,362,337.4,362z"/>
<path class="st1" d="M337.4,476.4h-26.8c-3.1,0-5.6-2.5-5.6-5.6v-77c0-3.1,2.5-5.6,5.6-5.6h26.8c3.1,0,5.6,2.5,5.6,5.6v77
	C343,473.8,340.5,476.4,337.4,476.4z"/>
<path class="st1" d="M337.4,590.8h-26.8c-3.1,0-5.6-2.5-5.6-5.6v-77c0-3.1,2.5-5.6,5.6-5.6h26.8c3.1,0,5.6,2.5,5.6,5.6v77
	C343,588.2,340.5,590.8,337.4,590.8z"/>
<path class="st1" d="M337.4,705.2h-26.8c-3.1,0-5.6-2.5-5.6-5.6v-77c0-3.1,2.5-5.6,5.6-5.6h26.8c3.1,0,5.6,2.5,5.6,5.6v77
	C343,702.6,340.5,705.2,337.4,705.2z"/>
</svg>
