<?xml version="1.0" encoding="utf-8"?>
<!-- Generator: Adobe Illustrator 22.0.0, SVG Export Plug-In . SVG Version: 6.00 Build 0)  -->
<svg version="1.1" id="图层_1" xmlns="http://www.w3.org/2000/svg" xmlns:xlink="http://www.w3.org/1999/xlink" x="0px" y="0px"
	 viewBox="0 0 1024 1024" style="enable-background:new 0 0 1024 1024;" xml:space="preserve">
<style type="text/css">
	.st0{fill:#666666;}
</style>
<g>
	<path class="st0" d="M277.4,831.8c-51,0-92.4-41.5-92.4-92.4V288.3c0-51,41.5-92.4,92.4-92.4h286.2c16.9,0,31.8,14.9,31.8,31.8
		s-14.9,31.8-31.8,31.8H277.4c-15.9,0-28.8,12.9-28.8,28.8v451.1c0,15.9,12.9,28.8,28.8,28.8h451.1c15.9,0,28.8-12.9,28.8-28.8
		V453.3c0-16.9,14.9-31.8,31.8-31.8c17,0,31.8,14.9,31.8,31.8v286.2c0,51-41.5,92.4-92.4,92.4H277.4z"/>
	<path class="st0" d="M789.2,428c-13.5,0-25.2,11.8-25.2,25.2v286.2c0,18.5-15.1,35.3-35.3,35.3H277.4c-18.5,0-35.4-15.2-35.4-35.3
		V288.3c0-18.5,15.2-35.4,35.4-35.4h286.2c13.5,0,25.2-11.8,25.2-25.2c0-13.5-11.8-25.2-25.2-25.2H277.4
		c-47.1,0-85.9,38.7-85.9,85.9v451.1c0,47.1,38.7,85.8,85.9,85.8h451.1c47.1,0,85.9-38.7,85.9-85.8V453.3
		C814.4,439.8,802.6,428,789.2,428L789.2,428z M789.2,428"/>
	<path class="st0" d="M471,597.8c-10.4,0-19.2-3.3-25.5-9.6c-14-14-14-35.2,0-49.3l336.7-336.7c6.7-6.7,15.5-10.5,24.6-10.5
		c9.1,0,17.9,3.7,24.6,10.5l0.3,0.3l0.3,0.3c11.1,13.3,11.9,35.2,1.8,47.8l-0.3,0.4L496.5,588.2C490.2,594.5,481.4,597.8,471,597.8z
		"/>
	<path class="st0" d="M824.5,209.2c-10.1-10.1-25.3-10.1-35.4,0L452.5,545.8c-10.1,10.1-10.1,25.2,0,35.3c5,5,11.8,6.7,18.5,6.7
		c6.7,0,13.5-1.7,18.5-6.7l336.7-336.7C832.9,236.1,832.9,219.3,824.5,209.2L824.5,209.2z M824.5,209.2"/>
</g>
</svg>
