<?xml version="1.0" encoding="utf-8"?>
<!-- Generator: Adobe Illustrator 22.0.0, SVG Export Plug-In . SVG Version: 6.00 Build 0)  -->
<svg version="1.1" id="图层_1" xmlns="http://www.w3.org/2000/svg" xmlns:xlink="http://www.w3.org/1999/xlink" x="0px" y="0px"
	 viewBox="0 0 1024 1024" style="enable-background:new 0 0 1024 1024;" xml:space="preserve">
<style type="text/css">
	.st0{fill:#666666;}
</style>
<g>
	<path class="st0" d="M511.3,884.8c-205.7,0-373-167.3-373-373c0-205.7,167.3-373,373-373c205.7,0,373,167.3,373,373
		C884.3,717.5,717,884.8,511.3,884.8 M511.3,64.2C264.5,64.2,63.8,265,63.8,511.8c0,246.8,200.8,447.6,447.6,447.6
		c246.8,0,447.6-200.8,447.6-447.6C958.9,265,758.1,64.2,511.3,64.2"/>
	<path class="st0" d="M672,340.8c-7-7-16.5-10.9-26.4-10.9s-19.4,3.9-26.4,10.9L503.9,456.2L388.5,340.8
		c-14.6-14.6-38.2-14.6-52.7,0s-14.6,38.2,0,52.7l115.4,115.4L335.8,624.3c-14.1,14.6-13.9,37.9,0.5,52.3
		c14.4,14.4,37.7,14.6,52.3,0.5l115.4-115.4L619.2,677c7,7,16.5,11,26.4,11c9.9,0,19.4-3.9,26.4-11c7-7,10.9-16.5,10.9-26.4
		c0-9.9-3.9-19.4-10.9-26.4L556.6,508.9L672,393.6c7-7,10.9-16.5,10.9-26.4C682.9,357.3,679,347.8,672,340.8"/>
</g>
</svg>
