<?xml version="1.0" encoding="utf-8"?>
<!-- Generator: Adobe Illustrator 22.0.0, SVG Export Plug-In . SVG Version: 6.00 Build 0)  -->
<svg version="1.1" id="图层_1" xmlns="http://www.w3.org/2000/svg" xmlns:xlink="http://www.w3.org/1999/xlink" x="0px" y="0px"
	 viewBox="0 0 1024 1024" style="enable-background:new 0 0 1024 1024;" xml:space="preserve">
<style type="text/css">
	.st0{fill:#666666;}
</style>
<g>
	<path class="st0" d="M787.2,834.6c-9.7,0-19.2-4-26.1-10.9l-260-260l-260,260c-7,6.8-16.1,10.4-25.7,10.4
		c-9.9,0-19.1-3.8-26.1-10.8c-14.1-14.1-14.3-37.3-0.4-51.7L449,511.6l-260-260c-14-14.4-13.8-37.7,0.4-51.8
		c7-7,16.2-10.8,26.1-10.8c9.6,0,18.7,3.7,25.6,10.4l260.1,260.1l260-260c7-6.8,16.1-10.4,25.7-10.4c9.9,0,19.1,3.8,26.1,10.8
		c14.1,14.1,14.3,37.3,0.4,51.7L553.3,511.6l260,260c14.4,14.4,14.4,37.8,0,52.2C806.4,830.7,797.1,834.6,787.2,834.6z"/>
	<path class="st0" d="M787.2,830.9c-8.7,0-17.3-3.6-23.4-9.7L501.1,558.5L238.5,821.1c-6.3,6-14.4,9.3-23.1,9.3
		c-8.9,0-17.2-3.4-23.4-9.7c-12.7-12.7-12.9-33.6-0.4-46.5l262.7-262.7L191.6,249c-12.5-13-12.3-33.8,0.4-46.5
		c6.3-6.3,14.6-9.7,23.4-9.7c8.6,0,16.8,3.3,23,9.3l262.7,262.7l262.6-262.6c6.3-6,14.4-9.3,23.1-9.3c8.9,0,17.2,3.4,23.4,9.7
		c12.7,12.7,12.9,33.5,0.4,46.5L548,511.6l262.6,262.6c12.9,12.9,12.9,33.9,0,46.9C804.4,827.4,796.1,830.9,787.2,830.9z"/>
</g>
</svg>
