<?xml version="1.0" encoding="utf-8"?>
<!-- Generator: Adobe Illustrator 22.0.0, SVG Export Plug-In . SVG Version: 6.00 Build 0)  -->
<svg version="1.1" id="图层_1" xmlns="http://www.w3.org/2000/svg" xmlns:xlink="http://www.w3.org/1999/xlink" x="0px" y="0px"
	 viewBox="0 0 1024 1024" style="enable-background:new 0 0 1024 1024;" xml:space="preserve">
<style type="text/css">
	.st0{fill:#666666;}
</style>
<g>
	<path class="st0" d="M339.6,866.7c-44.9,0-81.4-36.5-81.4-81.3V414.3c0-17.8,14-31.8,31.8-31.8c17.9,0,31.9,14,31.9,31.8v371.1
		c0,9.2,8.4,17.6,17.7,17.6h346.9c9.3,0,17.7-8.4,17.7-17.6V415c0-20.6,16-31.4,31.9-31.4c15.8,0,31.8,10.8,31.8,31.4v370.3
		c0,44.8-36.5,81.3-81.4,81.3H339.6z M587.3,717.3c-15.8,0-31.9-10.6-31.9-30.9V414.3c0-20.3,16-30.9,31.9-30.9s31.9,10.6,31.9,30.9
		v272.1C619.2,706.7,603.2,717.3,587.3,717.3z M438.7,717.3c-15.8,0-31.9-10.6-31.9-30.9V414.3c0-20.3,16-30.9,31.9-30.9
		c15.8,0,31.9,10.6,31.9,30.9v272.1C470.5,706.7,454.5,717.3,438.7,717.3z M190.9,347.1c-20.3,0-30.9-16-30.9-31.8
		c0-8.2,2.7-15.8,7.7-21.6c5.7-6.7,13.8-10.2,23.2-10.2h116.8v-42.4c0-44.8,36.5-81.3,81.4-81.3h248.6c44.5,0,80.6,36.5,80.6,81.3
		v42.4h116.8c20.3,0,30.9,16,30.9,31.8c0,15.8-10.6,31.8-30.9,31.8H190.9z M654.6,283.5v-42.4c0-10.2-7.1-17.7-16.9-17.7H389.1
		c-9.3,0-17.7,8.4-17.7,17.7v42.4H654.6z"/>
	<path class="st0" d="M562.6,686.4V414.3c0-31.7,49.5-31.7,49.5,0v272.1C612.1,718.1,562.6,718.1,562.6,686.4 M413.9,686.4V414.3
		c0-31.7,49.6-31.7,49.6,0v272.1C463.5,718.1,413.9,718.1,413.9,686.4 M835.1,290.6H711.2v-49.5c0-41-33.3-74.2-73.6-74.2H389.1
		c-41,0-74.3,33.2-74.3,74.2v49.5H190.9c-31.8,0-31.8,49.5,0,49.5h644.2C866.9,340,866.9,290.6,835.1,290.6 M364.3,241.1
		c0-13.1,11.6-24.8,24.8-24.8h248.6c13.2,0,24,10.1,24,24.8v49.5H364.3V241.1 M686.4,859.6H339.6c-41,0-74.3-33.2-74.3-74.2V414.3
		c0-14.7,11.6-24.8,24.8-24.8c13.2,0,24.8,10.1,24.8,24.8v371.1c0,13.1,11.6,24.7,24.8,24.7h346.9c13.2,0,24.8-11.6,24.8-24.7V415
		c0-32.5,49.5-32.5,49.5,0v370.3C760.8,826.4,727.5,859.6,686.4,859.6"/>
</g>
</svg>
