<?xml version="1.0" encoding="utf-8"?>
<!-- Generator: Adobe Illustrator 22.0.0, SVG Export Plug-In . SVG Version: 6.00 Build 0)  -->
<svg version="1.1" id="图层_1" xmlns="http://www.w3.org/2000/svg" xmlns:xlink="http://www.w3.org/1999/xlink" x="0px" y="0px"
	 viewBox="0 0 1024 1024" style="enable-background:new 0 0 1024 1024;" xml:space="preserve">
<style type="text/css">
	.st0{fill:#D5E3EF;}
	.st1{fill:#4C4C4C;}
	.st2{fill:#61C3F7;}
</style>
<g>
	<circle class="st0" cx="548.7" cy="437.6" r="127.2"/>
	<path class="st1" d="M511.9,785.9c-6.2,0-12.3-1.6-17.6-4.7c-17.8-10.3-80.7-49-140.8-112.3c-35.1-37.1-63.1-76.2-83-116.2
		c-24.9-50-37.5-101.6-37.5-153.6c0-36.3,7.4-71.5,22.1-104.7c14.1-32,34.3-60.7,59.9-85.3c25.7-24.6,55.5-43.9,88.6-57.3
		c34.4-13.9,70.8-21,108.3-21c37.6,0,74,7.1,108.3,21.1c33.2,13.5,63.1,32.8,88.6,57.3c25.7,24.6,45.9,53.3,59.9,85.3
		c14.6,33.2,22.1,68.4,22.1,104.7c0,52.1-12.7,103.7-37.7,153.5c-20,40.1-47.9,79.2-83,116.2c-60,63.3-122.9,102-140.8,112.3
		C524.2,784.3,518.1,785.9,511.9,785.9z M512,187.2c-59.3,0-115.1,22.1-157,62.3c-41.7,40.1-64.7,93.2-64.7,149.7
		c0,173.5,168.4,293.1,221.7,326.6c53.3-33.5,221.7-153.1,221.7-326.6c0-56.5-23-109.7-64.7-149.6
		C627.1,209.4,571.3,187.2,512,187.2z"/>
	<path class="st1" d="M767.2,295.3c-14-31.8-34-60.2-59.5-84.7c-25.5-24.5-55.1-43.6-88.1-57c-34.1-13.9-70.3-20.9-107.7-20.9
		c-37.3,0-73.5,7-107.7,20.9c-33,13.4-62.6,32.6-88.1,56.9c-25.5,24.5-45.5,53-59.5,84.7c-14.5,32.9-21.9,67.9-21.9,103.9
		c0,51.7,12.6,103.1,37.3,152.8c19.9,39.9,47.7,78.8,82.7,115.7c59.8,63.1,122.6,101.7,140.4,112c5.1,3,10.9,4.5,16.7,4.5
		c5.8,0,11.6-1.5,16.7-4.5c17.8-10.3,80.5-48.9,140.4-112c35-36.9,62.8-75.8,82.7-115.7c24.9-49.6,37.5-100.9,37.5-152.7
		C789.1,363.2,781.8,328.2,767.2,295.3L767.2,295.3z M512,728c-49.1-30.7-223.5-152.1-223.5-328.8c0-57,23.2-110.6,65.3-151
		c42.2-40.5,98.4-62.8,158.3-62.8c59.8,0,116,22.3,158.2,62.9c42.1,40.3,65.3,93.9,65.3,150.9C735.5,575.8,561.1,697.3,512,728
		L512,728z M512,728"/>
	<path class="st2" d="M512,252.7c-78.5,0-142.1,63.6-142.1,142.1c0,78.5,63.6,142.1,142.1,142.1s142.1-63.6,142.1-142.1
		C654.1,316.3,590.4,252.7,512,252.7z M512,485.7c-50.2,0-90.9-40.7-90.9-90.9c0-50.2,40.7-90.9,90.9-90.9s90.9,40.7,90.9,90.9
		C602.9,445,562.2,485.7,512,485.7z"/>
	<path class="st1" d="M513,892.7c-97.2,0-188.9-11.9-258.3-33.5c-101.8-31.7-123.2-74.4-123.2-104.5c0-47.7,50.9-86.2,147.3-111.4
		l1.8-0.5l14.1,54.1l-1.8,0.5c-76.9,20.1-105.5,45.8-105.5,57.3c0,7,15.1,29.7,83.9,51.1c64.2,20,150,31,241.7,31
		c91.7,0,177.5-11,241.7-31c68.8-21.4,83.9-44.2,83.9-51.1c0-10.9-26.7-35.6-98.4-55.4l-1.8-0.5l14.9-53.9l1.8,0.5
		c91.2,25.2,139.5,63,139.5,109.3c0,30.2-21.4,72.8-123.2,104.5C701.9,880.8,610.2,892.7,513,892.7z"/>
	<path class="st1" d="M513,890.9c-97,0-188.6-11.9-257.8-33.4c-100.8-31.4-121.9-73.2-121.9-102.8c0-46.8,50.5-84.7,146-109.7
		l13.2,50.6c-78.4,20.5-106.9,46.5-106.9,59.1c0,9.1,17.8,31.9,85.2,52.9c64.3,20,150.4,31.1,242.2,31.1c91.9,0,177.9-11,242.2-31.1
		c67.4-21,85.2-43.8,85.2-52.9c0-11.9-26.6-36.9-99.8-57.1l13.9-50.4c90.4,25,138.1,62.2,138.1,107.5c0,29.6-21.2,71.4-121.9,102.8
		C701.6,879,610,890.9,513,890.9z"/>
</g>
</svg>
