<?xml version="1.0" encoding="utf-8"?>
<!-- Generator: Adobe Illustrator 22.0.0, SVG Export Plug-In . SVG Version: 6.00 Build 0)  -->
<svg version="1.1" id="图层_1" xmlns="http://www.w3.org/2000/svg" xmlns:xlink="http://www.w3.org/1999/xlink" x="0px" y="0px"
	 viewBox="0 0 1024 1024" style="enable-background:new 0 0 1024 1024;" xml:space="preserve">
<style type="text/css">
	.st0{fill:#D5E3EF;}
	.st1{fill:#4C4C4C;}
	.st2{fill:#61C3F7;}
</style>
<g>
	<path class="st0" d="M791.6,884.2H270.5c-14.2,0-25.6-11.5-25.6-25.6V275.9c0-14.2,11.5-25.6,25.6-25.6h521.1
		c14.2,0,25.6,11.5,25.6,25.6v582.7C817.2,872.7,805.8,884.2,791.6,884.2z"/>
	<g>
		<path class="st1" d="M290.3,633.8v-57.8h237.8l-28.9,57.8H290.3z M290.3,545.9V495h6.9v-6.9h292.6v57.8H290.3z M290.3,458v-57.8
			h299.5V458H290.3z M290.3,370.1v-50.9h6.9v-6.9h292.6v57.7H290.3z"/>
		<path class="st1" d="M297.2,319.3h285.7v43.9H297.2V319.3L297.2,319.3z M297.2,407.2h285.7v44H297.2V407.2z M297.2,495.1h285.7v44
			H297.2V495.1L297.2,495.1z M494.9,626.9H297.2v-44h219.8L494.9,626.9z M494.9,626.9"/>
		<path class="st1" d="M213.1,856.7c-42.1,0-76.4-32.7-76.4-72.8V212.6c0-40.2,34.3-72.8,76.4-72.8h476.3
			c42.1,0,76.4,32.7,76.4,72.8v291.6l-7.6-0.8c-7.6-0.8-15.2-1.2-22.5-1.2c-6.1,0-12.7,0.3-20,1l-7.5,0.7V234.5
			c0-20.4-16.6-37-37.1-37H231.5c-20.4,0-37,16.6-37,37V762c0,9.9,3.9,19.2,10.9,26.2s16.3,10.8,26.2,10.8h304.1l1.8,4.1
			c6.5,15.1,14.8,29.4,24.6,42.5l8.2,11H213.1z"/>
		<polygon class="st2" points="644.7,705.7 675.6,674.7 717.9,717 790.1,644.8 821.1,675.8 717.9,778.9 		"/>
		<path class="st1" d="M531.1,805.9H231.5c-11.7,0-22.8-4.6-31.1-12.9c-8.2-8.2-12.9-19.4-12.9-31.1V234.5
			c0-24.3,19.7-43.9,43.9-43.9H671c24.3,0,44,19.7,44,43.9v261.9c6.8-0.6,13.7-1.1,20.7-1.1c7.8,0,15.6,0.4,23.3,1.2v-284
			c0-36.4-31.1-65.9-69.5-65.9H213.1c-38.4,0-69.5,29.5-69.5,65.9v571.3c0,36.4,31.1,65.9,69.5,65.9h343.4
			C546.4,836.2,537.9,821.5,531.1,805.9L531.1,805.9z"/>
		<polygon class="st2" points="717.9,726.7 675.6,684.4 654.4,705.7 717.9,769.1 811.3,675.8 790.1,654.5 717.9,726.8 		"/>
		<path class="st1" d="M724.8,716.4"/>
		<path class="st1" d="M732.9,556.3c-84.5,0-153.1,68.5-153.1,153.1c0,84.5,68.5,153.1,153.1,153.1s153.1-68.5,153.1-153.1
			C885.9,624.8,817.4,556.3,732.9,556.3L732.9,556.3z M732.9,815.3c-58.5,0-106-47.4-106-106c0-58.5,47.4-106,106-106
			c58.5,0,106,47.4,106,106C838.8,767.8,791.4,815.3,732.9,815.3L732.9,815.3z M732.9,815.3"/>
	</g>
</g>
</svg>
