<?xml version="1.0" encoding="utf-8"?>
<!-- Generator: Adobe Illustrator 22.0.0, SVG Export Plug-In . SVG Version: 6.00 Build 0)  -->
<svg version="1.1" id="图层_1" xmlns="http://www.w3.org/2000/svg" xmlns:xlink="http://www.w3.org/1999/xlink" x="0px" y="0px"
	 viewBox="0 0 1024 1024" style="enable-background:new 0 0 1024 1024;" xml:space="preserve">
<style type="text/css">
	.st0{fill:#D5E3EF;}
	.st1{fill:#4C4C4C;}
	.st2{fill:#61C3F7;}
</style>
<g>
	<path class="st0" d="M764.2,826.4H347.4c-39.6,0-71.8-32.1-71.8-71.8V337.8c0-39.6,32.1-71.8,71.8-71.8h416.8
		c39.6,0,71.8,32.1,71.8,71.8v416.8C836.2,794.2,803.8,826.4,764.2,826.4L764.2,826.4z M764.2,826.4"/>
	<path class="st1" d="M705.6,794.5c-2.7,0-4.8,0-6.9-0.3H288.2c-0.9,0-3.9,0.3-4.8,0.3c-54.7,0-99.4-44.4-99.4-99.4v-424
		c0.9-54.7,45.3-99.1,100.3-99.1H705c55.2,0,100.3,45,100.3,100.3c0,2.1,0,3.9-0.3,6v417.4h-0.6c-0.3,26.4-10.5,51-29.1,69.4
		C757,784.3,732,794.5,705.6,794.5L705.6,794.5z M706.8,737.5h0.9c22.5-1.2,40.2-19.8,40.2-42.6c0-1.8,0.3-3.9,0.9-6l0.3-0.9
		l-0.3-317.4H240.7v321.6c0.3,25.2,19.2,44.7,42.9,44.7h2.1L706.8,737.5z M748.9,314v-36c-0.6-1.8-0.6-3.3-0.6-5.1
		c0-23.7-19.2-42.9-42.9-42.9H286.1c-24.3,0-44.1,19.5-44.1,43.2c0,1.8-0.3,3.9-0.9,6l-0.3,0.9l0.3,34.5h507.8V314z M748.9,314"/>
	<path class="st2" d="M455.5,669.3c-7.8,0-15-3-20.4-8.4l-86.2-86.2c-5.4-5.4-8.4-12.6-8.4-20.4c0-7.8,3-14.7,8.4-20.1
		c5.4-5.4,12.6-8.4,20.1-8.4c7.8,0,15,3,20.1,8.4l65.8,65.8l144.4-144.4c5.4-5.4,12.6-8.4,20.4-8.4c7.8,0,15,3,20.4,8.4
		c5.4,5.4,8.4,12.6,8.4,20.4c0,7.8-3,14.7-8.4,20.1L475.3,660.9C470.5,666.3,463.3,669.3,455.5,669.3L455.5,669.3z M455.5,669.3"/>
</g>
</svg>
