<?xml version="1.0" encoding="utf-8"?>
<!-- Generator: Adobe Illustrator 22.0.0, SVG Export Plug-In . SVG Version: 6.00 Build 0)  -->
<svg version="1.1" id="图层_1" xmlns="http://www.w3.org/2000/svg" xmlns:xlink="http://www.w3.org/1999/xlink" x="0px" y="0px"
	 viewBox="0 0 1024 1024" style="enable-background:new 0 0 1024 1024;" xml:space="preserve">
<style type="text/css">
	.st0{fill:#D5E3EF;}
	.st1{fill:#4C4C4C;}
	.st2{fill:#61C3F7;}
</style>
<g>
	<path class="st0" d="M895.3,891.6H269.7c-10.1,0-18.3-8.2-18.3-18.3V451.2c0-10.1,8.2-18.3,18.3-18.3h625.7
		c10.1,0,18.3,8.2,18.3,18.3v422.2C913.6,883.5,905.4,891.6,895.3,891.6z"/>
	<path d="M373.7,390.7c-4.5,0-9-1.7-12.4-5.1c-6.9-6.9-6.9-18,0-24.8l210.3-210.3c6.8-6.8,18-6.8,24.8,0l173.2,173.2
		c3.3,3.3,5.1,7.8,5.1,12.4c0,4.7-1.8,9.1-5.1,12.4l-37.1,37.1c-6.8,6.9-18,6.9-24.8,0c-6.8-6.9-6.8-18,0-24.8l24.7-24.7L584,187.6
		L386.1,385.5C382.7,389,378.2,390.7,373.7,390.7L373.7,390.7z"/>
	<path d="M300.6,390.7c-3,0-6-0.8-8.8-2.4c-8.4-4.9-11.2-15.6-6.3-24l122.5-210.6c4.9-8.3,15.5-11.2,23.9-6.4L534.3,206
		c8.4,4.8,11.3,15.5,6.5,23.9c-4.8,8.4-15.5,11.3-23.9,6.5l-87.3-50L315.8,381.9C312.5,387.5,306.6,390.7,300.6,390.7L300.6,390.7z"
		/>
	<path class="st1" d="M783.2,345.8c1.2-3.1,1.8-6.4,1.8-9.8c0-7.4-2.9-14.4-8.1-19.6L603.6,143.2c-5.2-5.2-12.2-8.1-19.6-8.1
		c-7.4,0-14.4,2.9-19.6,8.1l-43.5,43.5l-84-48.2c-4.2-2.4-9-3.7-13.8-3.7c-9.8,0-19,5.3-24,13.8L284.7,345.4h-36
		c-54,0-97.9,43.9-97.9,97.9V759c0,54,43.9,97.9,97.9,97.9h526.3c54,0,97.9-43.9,97.9-97.9V443.3C872.8,392.1,833.3,350,783.2,345.8
		z M584,202l134,134l-9.4,9.4h-268L584,202z M433.2,200.3l47.1,27L362.2,345.4h-13.4L433.2,200.3z M817.4,759
		c0,23.4-19,42.4-42.4,42.4H248.7c-23.4,0-42.4-19-42.4-42.4V443.3c0-23.4,19-42.4,42.4-42.4h51.9c0,0,0,0,0,0c0,0,0,0,0,0h474.3
		c23.4,0,42.4,19,42.4,42.4V759z"/>
	<path class="st1" d="M774.9,355.6H248.7c-48.4,0-87.7,39.3-87.7,87.7V759c0,48.4,39.3,87.7,87.7,87.7h526.3
		c48.4,0,87.7-39.3,87.7-87.7V443.3C862.6,394.9,823.3,355.6,774.9,355.6z M827.6,759c0,29-23.6,52.6-52.6,52.6H248.7
		c-29,0-52.6-23.6-52.6-52.6V443.3c0-29,23.6-52.6,52.6-52.6h526.3c29,0,52.6,23.6,52.6,52.6V759z"/>
	<path class="st2" d="M722.3,531c-38.7,0-70.2,31.5-70.2,70.2c0,38.7,31.5,70.2,70.2,70.2c38.7,0,70.2-31.5,70.2-70.2
		C792.5,562.5,761,531,722.3,531z"/>
</g>
</svg>
