<?xml version="1.0" encoding="utf-8"?>
<!-- Generator: Adobe Illustrator 22.0.0, SVG Export Plug-In . SVG Version: 6.00 Build 0)  -->
<svg version="1.1" id="图层_1" xmlns="http://www.w3.org/2000/svg" xmlns:xlink="http://www.w3.org/1999/xlink" x="0px" y="0px"
	 viewBox="0 0 1024 1024" style="enable-background:new 0 0 1024 1024;" xml:space="preserve">
<style type="text/css">
	.st0{fill:#D5E3EF;}
	.st1{fill:#4C4C4C;}
	.st2{fill:#61C3F7;}
</style>
<g>
	<path class="st0" d="M829.4,287.2c-9.6-14.4-25.8-23.1-43.1-23.1H382.2c-17.4,0-33.5,8.6-43.1,23.1l-77.6,117.1v454.6
		c0,28.6,23.2,51.8,51.8,51.8h542.9c28.6,0,51.8-23.2,51.8-51.8V404.4L829.4,287.2z"/>
	<g>
		<g>
			<path class="st1" d="M204.9,862.5c-31.7,0-57.5-25.8-57.5-57.5v-504l86-129.9c10.7-16,28.6-25.6,47.8-25.6h448
				c19.3,0,37.1,9.6,47.8,25.6L864.4,301v504c0,31.7-25.8,57.5-57.5,57.5H204.9z M799.6,797.8V360.7H212.2v437.1H799.6z M792.7,296
				l-61.5-85.7L282,210.7L219.3,296H792.7z"/>
			<path class="st1" d="M771.1,175.2c-9.3-14-25-22.3-41.8-22.3h-448c-16.8,0-32.4,8.4-41.8,22.3l-84.8,128v501.8
				c0,27.6,22.6,50.2,50.2,50.2h602c27.6,0,50.2-22.6,50.2-50.2V303.3L771.1,175.2z M806.9,805.1h-602V353.4h602V805.1z
				 M204.9,303.3l73.4-99.9L735,203l71.9,100.3L204.9,303.3L204.9,303.3z M204.9,303.3"/>
		</g>
	</g>
	<path class="st2" d="M470.9,669.6h-58.3c-4.7,0-8.5-3.8-8.5-8.5V465.6c0-4.7,3.8-8.5,8.5-8.5h58.3c4.7,0,8.5,3.8,8.5,8.5v195.5
		C479.4,665.7,475.6,669.6,470.9,669.6z"/>
	<path class="st2" d="M404.2,661.1v-58.3c0-4.7,3.8-8.5,8.5-8.5h195.5c4.7,0,8.5,3.8,8.5,8.5v58.3c0,4.7-3.8,8.5-8.5,8.5H412.7
		C408,669.6,404.2,665.7,404.2,661.1z"/>
</g>
</svg>
