<?xml version="1.0" encoding="utf-8"?>
<!-- Generator: Adobe Illustrator 22.0.0, SVG Export Plug-In . SVG Version: 6.00 Build 0)  -->
<svg version="1.1" id="图层_1" xmlns="http://www.w3.org/2000/svg" xmlns:xlink="http://www.w3.org/1999/xlink" x="0px" y="0px"
	 viewBox="0 0 1024 1024" style="enable-background:new 0 0 1024 1024;" xml:space="preserve">
<style type="text/css">
	.st0{fill:#666666;}
	.st1{fill:none;}
</style>
<path class="st0" d="M354,305.6"/>
<rect x="425.1" y="462.1" class="st1" width="248.7" height="213.7"/>
<g>
	<g>
		<path class="st0" d="M245.3,829.3c-28,0-50.8-22.8-50.8-50.8V333.1l76-114.8c9.5-14.2,25.3-22.6,42.3-22.6h396
			c17,0,32.8,8.5,42.3,22.6l77.1,114.8v445.5c0,28-22.8,50.8-50.8,50.8H245.3z M770.9,772.1V385.8H251.7v386.3H770.9z M764.8,328.6
			l-54.3-75.7l-397.1,0.3L258,328.6H764.8z"/>
		<path class="st0" d="M745.7,221.8c-8.2-12.3-22.1-19.7-36.9-19.7h-396c-14.8,0-28.7,7.4-36.9,19.7l-75,113.2v443.5
			c0,24.4,20,44.4,44.4,44.4h532.1c24.4,0,44.4-20,44.4-44.4V335L745.7,221.8z M777.4,778.6H245.3V379.4h532.1V778.6z M245.3,335
			l64.9-88.3l403.7-0.3l63.6,88.6L245.3,335L245.3,335z M245.3,335"/>
	</g>
</g>
<path class="st0" d="M479.5,658.8h-49.5c-4.7,0-8.5-3.8-8.5-8.5V479.5c0-4.7,3.8-8.5,8.5-8.5h49.5c4.7,0,8.5,3.8,8.5,8.5v170.8
	C488,655,484.1,658.8,479.5,658.8z"/>
<path class="st0" d="M421.4,650.3v-49.5c0-4.7,3.8-8.5,8.5-8.5h170.8c4.7,0,8.5,3.8,8.5,8.5v49.5c0,4.7-3.8,8.5-8.5,8.5H429.9
	C425.3,658.8,421.4,655,421.4,650.3z"/>
</svg>
