<?xml version="1.0" encoding="utf-8"?>
<!-- Generator: Adobe Illustrator 22.0.0, SVG Export Plug-In . SVG Version: 6.00 Build 0)  -->
<svg version="1.1" id="图层_1" xmlns="http://www.w3.org/2000/svg" xmlns:xlink="http://www.w3.org/1999/xlink" x="0px" y="0px"
	 viewBox="0 0 1024 1024" style="enable-background:new 0 0 1024 1024;" xml:space="preserve">
<style type="text/css">
	.st0{fill:#D5E3EF;}
	.st1{fill:#61C3F7;}
	.st2{fill:#4C4C4C;}
</style>
<g>
	<path class="st0" d="M826.8,350.7c-3.5-8.5-11.8-14.1-21-14.3l-7.2-0.1c-45.4,0-87.7,8.8-126.1,26.2
		c-18.8-34.9-59.5-87.1-85.2-110.7c-11.6-10.6-33.6-10.6-45.2,0c-25.7,23.6-66.3,75.7-85.2,110.7c-38.4-17.4-80.7-26.2-126.1-26.2
		l-7.2,0.1c-9.2,0.2-17.5,5.8-21,14.3c-26.9,66-22.5,175.5,13.9,248.5c45.7,91.8,137.6,157.4,246.9,157.4c0.4,0,0.8,0,1.3,0
		c0.4,0,0.8,0,1.3,0c109.3,0,201.2-65.6,246.9-157.4C849.3,526.1,853.8,416.7,826.8,350.7z"/>
	<g>
		<path class="st1" d="M340.6,551.4c2.2,4.7,4.1,9.5,6.7,14c32,56.8,92.8,95.2,162.6,95.2c0.4,0,0.7-0.1,1-0.1c0.4,0,0.7,0.1,1,0.1
			c69.9,0,130.6-38.4,162.6-95.2c2.5-4.5,4.5-9.3,6.7-14H340.6z M340.6,551.4"/>
		<path class="st2" d="M420.7,875.4c-7.6,0-15.1-3.1-20.5-9.2c-71.3-79.9-186.6-80.6-189-80.6H211c-15.1,0-27.3-12.2-27.4-27.2
			c-0.1-15.2,12-27.4,27.1-27.6c5.7-0.3,141.9-0.2,230.4,98.9c10,11.3,9.1,28.6-2.2,38.7C433.7,873.1,427.2,875.4,420.7,875.4
			L420.7,875.4z M604.4,875.4c-6.6,0-13.3-2.5-18.7-7.4c-11.1-10.2-11.7-27.7-1.5-38.8c91.6-99,225.1-98.9,230.3-98.6
			c15.2,0.2,27.3,12.6,27.1,27.7c-0.2,15.1-12.4,27.1-27.4,27.1H814c-2.2,0-115.2,0.7-189.6,81C619.1,872.4,611.8,875.4,604.4,875.4
			L604.4,875.4z M512.5,899.3c-15.2,0-27.4-12.3-27.4-27.4V732.7c0-15.2,12.3-27.4,27.4-27.4c15.2,0,27.4,12.3,27.4,27.4v139.2
			C539.9,887,527.6,899.3,512.5,899.3L512.5,899.3z M512.5,899.3"/>
		<path class="st2" d="M820.1,259.7c-4.1-10.1-13.9-16.7-24.8-16.9l-8.4-0.1c-53.6,0-103.5,10.4-148.7,30.9
			C615.9,232.3,568,170.8,537.7,143c-13.7-12.5-39.7-12.5-53.3,0c-30.3,27.8-78.2,89.3-100.5,130.5c-45.3-20.5-95.1-30.9-148.7-30.9
			l-8.4,0.1c-10.9,0.2-20.7,6.8-24.8,16.9c-31.8,77.8-26.5,207,16.4,293.2c53.9,108.3,162.2,185.7,291.2,185.7c0.5,0,1,0,1.5-0.1
			c0.5,0,1,0.1,1.5,0.1c129,0,237.4-77.4,291.2-185.7C846.6,466.6,851.8,337.5,820.1,259.7L820.1,259.7z M771.6,479.7
			c-9.7,39.7-27.2,74.3-50.8,103.9C699,629.2,612.2,684,512.5,684c-0.5,0-1-0.1-1.5-0.1c-0.5,0-1,0.1-1.5,0.1
			c-99.7,0-186.5-54.8-232.2-135.9c-18.2-31.7-30.2-69.1-33.4-109.1l6.6,40.7c-18.7-62.2-21-128.7-4.2-181.9
			c49.9,1.6,95.6,13.9,136,36.4c6.6,3.6,14.4,4.5,21.6,2.2c8-2.6,14.3-8.5,17.4-16.2c26.8-54.7,56.6-96.6,89.7-125.1
			c33.1,28.5,62.9,70.4,90.6,127.2c3.7,7.4,10.5,12.9,18.6,14.7c5,1.6,12.8,0.8,19.4-2.8c40.5-22.5,86.2-34.8,136-36.4
			C792.5,351,790.2,417.5,771.6,479.7L771.6,479.7L771.6,479.7z M771.6,479.7"/>
	</g>
</g>
</svg>
