<?xml version="1.0" encoding="utf-8"?>
<!-- Generator: Adobe Illustrator 22.0.0, SVG Export Plug-In . SVG Version: 6.00 Build 0)  -->
<svg version="1.1" id="图层_1" xmlns="http://www.w3.org/2000/svg" xmlns:xlink="http://www.w3.org/1999/xlink" x="0px" y="0px"
	 viewBox="0 0 1024 1024" style="enable-background:new 0 0 1024 1024;" xml:space="preserve">
<style type="text/css">
	.st0{fill:#666666;}
	.st1{fill:none;}
</style>
<path class="st0" d="M354,305.6"/>
<g>
	<g>
		<path class="st0" d="M239.1,838c-28.8,0-52.3-23.5-52.3-52.3V327.1l78.3-118.2c9.7-14.6,26-23.3,43.5-23.3h407.7
			c17.5,0,33.8,8.7,43.5,23.3l79.4,118.2v458.6c0,28.8-23.5,52.3-52.3,52.3H239.1z M780.3,779.1V381.4H245.7v397.7H780.3z
			 M774,322.4l-55.9-78l-408.8,0.3l-57,77.6H774z"/>
		<path class="st0" d="M754.3,212.6c-8.5-12.7-22.7-20.3-38-20.3H308.6c-15.3,0-29.5,7.6-38,20.3l-77.2,116.5v456.6
			c0,25.1,20.6,45.7,45.7,45.7h547.8c25.1,0,45.7-20.5,45.7-45.7V329.1L754.3,212.6z M786.9,785.7H239.1v-411h547.8V785.7z
			 M239.1,329.1l66.8-90.9l415.6-0.4l65.4,91.2L239.1,329.1L239.1,329.1z M239.1,329.1"/>
	</g>
</g>
<rect x="193.5" y="442.5" class="st0" width="153" height="59.7"/>
<rect x="193.5" y="521.7" class="st0" width="184.8" height="59.7"/>
<rect x="193.5" y="600.9" class="st0" width="184.8" height="59.7"/>
<path class="st0" d="M570.5,688.7c-7.4,0-14.4-2.9-19.6-8.1c-5.2-5.2-8.1-12.2-8.1-19.6c0-7.4,2.9-14.3,8.1-19.6l41.5-41.5H446.2
	c-15.3,0-27.7-12.4-27.7-27.7c0-15.3,12.4-27.7,27.7-27.7h146.2L550.9,503c-5.2-5.2-8.1-12.2-8.1-19.6c0-7.4,2.9-14.4,8.1-19.6
	c5.2-5.2,12.2-8.1,19.6-8.1c7.4,0,14.4,2.9,19.6,8.1l88.8,88.8c10.8,10.8,10.8,28.4,0,39.2l-88.8,88.8
	C584.8,685.8,577.9,688.7,570.5,688.7z"/>
<rect x="425.1" y="462.1" class="st1" width="248.7" height="213.7"/>
</svg>
