<?xml version="1.0" encoding="utf-8"?>
<!-- Generator: Adobe Illustrator 22.0.0, SVG Export Plug-In . SVG Version: 6.00 Build 0)  -->
<svg version="1.1" id="图层_1" xmlns="http://www.w3.org/2000/svg" xmlns:xlink="http://www.w3.org/1999/xlink" x="0px" y="0px"
	 viewBox="0 0 1024 1024" style="enable-background:new 0 0 1024 1024;" xml:space="preserve">
<style type="text/css">
	.st0{fill:#D5E3EF;}
	.st1{fill:#4C4C4C;}
	.st2{fill:#61C3F7;}
	.st3{fill:none;}
</style>
<g>
	<path class="st0" d="M833.1,292.3c-9.6-14.4-25.6-23-42.9-23H387.8c-17.3,0-33.3,8.6-42.9,23l-77.2,116.6v452.6
		c0,28.5,23.1,51.6,51.6,51.6h540.6c28.5,0,51.6-23.1,51.6-51.6V408.9L833.1,292.3z"/>
	<g>
		<g>
			<path class="st1" d="M211.3,865.1c-31.5,0-57.2-25.7-57.2-57.2V306.1l85.6-129.3c10.6-16,28.4-25.5,47.6-25.5h446.1
				c19.2,0,37,9.5,47.6,25.5L867.9,306v501.8c0,31.5-25.7,57.2-57.2,57.2H211.3z M803.4,800.6V365.5H218.6v435.2H803.4z M796.5,301
				l-61.2-85.3l-447.3,0.4L225.6,301H796.5z"/>
			<path class="st1" d="M775,180.8c-9.3-13.9-24.9-22.2-41.6-22.2H287.4c-16.7,0-32.3,8.3-41.6,22.2l-84.4,127.5v499.6
				c0,27.5,22.5,50,50,50h599.4c27.5,0,50-22.5,50-50V308.3L775,180.8z M810.7,807.9H211.3V358.2h599.4V807.9z M211.3,308.3
				l73.1-99.4l454.7-0.4l71.6,99.8L211.3,308.3L211.3,308.3z M211.3,308.3"/>
		</g>
	</g>
	<rect x="161.4" y="432.4" class="st1" width="167.4" height="65.3"/>
	<rect x="161.4" y="519.1" class="st1" width="202.2" height="65.3"/>
	<rect x="161.4" y="605.7" class="st1" width="202.2" height="65.3"/>
	<path class="st2" d="M573.9,701.7c-8.1,0-15.7-3.2-21.4-8.9c-5.7-5.7-8.9-13.3-8.9-21.4c0-8.1,3.2-15.7,8.9-21.4l45.4-45.4h-160
		c-16.7,0-30.3-13.6-30.3-30.3c0-16.7,13.6-30.3,30.3-30.3h160l-45.4-45.4c-5.7-5.7-8.9-13.3-8.9-21.4c0-8.1,3.2-15.7,8.9-21.4
		c5.7-5.7,13.3-8.9,21.4-8.9c8.1,0,15.7,3.2,21.4,8.9l97.2,97.2c11.8,11.8,11.8,31,0,42.9l-97.2,97.2
		C589.6,698.6,582,701.7,573.9,701.7z"/>
	<rect x="414.8" y="453.8" class="st3" width="272.1" height="233.9"/>
</g>
</svg>
