<?xml version="1.0" encoding="utf-8"?>
<!-- Generator: Adobe Illustrator 22.0.0, SVG Export Plug-In . SVG Version: 6.00 Build 0)  -->
<svg version="1.1" id="图层_1" xmlns="http://www.w3.org/2000/svg" xmlns:xlink="http://www.w3.org/1999/xlink" x="0px" y="0px"
	 viewBox="0 0 1024 1024" style="enable-background:new 0 0 1024 1024;" xml:space="preserve">
<style type="text/css">
	.st0{fill:#24DB5A;}
</style>
<g>
	<path class="st0" d="M644.7,393.5c8.3,0,16.7,0,25,1.4c-23.6-107.2-137.8-186.6-268.8-186.6C254.8,208.3,135,308.6,135,433.9
		c0,72.4,39,133.7,105.8,179.7l-26.5,79.4l93.3-45.9c33.4,7,59.9,13.9,93.3,13.9c8.3,0,16.7,0,26.5-1.4c-5.5-18.1-8.3-36.2-8.3-55.7
		C419.1,488.2,518,393.5,644.7,393.5L644.7,393.5z M501.2,321.1c20.9,0,33.4,13.9,33.4,33.4c0,19.5-13.9,33.4-33.4,33.4
		c-20.9,0-40.4-14-40.4-33.4C460.8,333.6,481.8,321.1,501.2,321.1L501.2,321.1z M317,383.4c-21,0-40.7-13.8-40.7-33.1
		c0-20.7,21-33.1,40.7-33.1c19.7,0,33.6,13.8,33.6,33.1C350.7,369.7,336.6,383.4,317,383.4L317,383.4z M317,383.4"/>
	<path class="st0" d="M887,601c0-107.2-105.8-193.5-225.6-193.5c-126.8,0-227,87.7-227,193.5c0,107.2,100.3,193.5,227,193.5
		c26.5,0,52.9-7,79.4-13.9l72.4,40.4l-19.5-66.9C846.6,713.8,887,660.9,887,601L887,601z M587.6,567.6c-12.5,0-26.5-12.5-26.5-26.5
		c0-12.5,13.9-26.5,26.5-26.5c19.5,0,33.4,13.9,33.4,26.5C621,555.1,608.5,567.6,587.6,567.6L587.6,567.6z M739.2,561.1
		c-12.6,0-26.7-12.4-26.7-26.1c0-12.4,14.1-26.2,26.7-26.2c19.7,0,33.6,13.8,33.6,26.2C772.9,548.8,758.9,561.1,739.2,561.1
		L739.2,561.1z M739.2,561.1"/>
</g>
</svg>
