<?xml version="1.0" encoding="utf-8"?>
<!-- Generator: Adobe Illustrator 22.0.0, SVG Export Plug-In . SVG Version: 6.00 Build 0)  -->
<svg version="1.1" id="图层_1" xmlns="http://www.w3.org/2000/svg" xmlns:xlink="http://www.w3.org/1999/xlink" x="0px" y="0px"
	 viewBox="0 0 1024 1024" style="enable-background:new 0 0 1024 1024;" xml:space="preserve">
<style type="text/css">
	.st0{fill:#D5E3EF;}
	.st1{fill:#4C4C4C;}
	.st2{fill:#61C3F7;}
</style>
<g>
	<path class="st0" d="M855.6,487.7l-79.8-42.1V303.7c0-48.8-39.9-88.7-88.7-88.7H420.9c-48.8,0-88.7,39.9-88.7,88.7v141.9
		l-75.4,39.9l-4.4,2.2c-20,17.7-31.1,42.1-31.1,66.5v237.3c0,48.8,39.9,88.7,88.7,88.7h487.9c48.8,0,88.7-39.9,88.7-88.7V556.5
		C886.6,529.9,875.5,505.5,855.6,487.7z"/>
	<path class="st1" d="M823.1,427.9L738,382.9V231.6c0-52-42.6-94.6-94.6-94.6H359.7c-52,0-94.6,42.6-94.6,94.6v151.3l-80.4,42.6
		l-4.7,2.4c-21.3,18.9-33.1,44.9-33.1,70.9v253c0,52,42.6,94.6,94.6,94.6h520.2c52,0,94.6-42.6,94.6-94.6V501.2
		C856.2,472.8,844.4,446.8,823.1,427.9L823.1,427.9z M787.7,463.3l-49.7,26v-52L787.7,463.3z M359.7,184.3h283.8
		c26,0,47.3,21.3,47.3,47.3V513L511,602.9c-7.1,2.4-14.2,2.4-21.3,0L312.4,513V231.6C312.4,205.6,333.6,184.3,359.7,184.3
		L359.7,184.3z M265.1,489.3l-49.7-26l49.7-26V489.3z M761.7,799.1H241.4c-26,0-47.3-21.3-47.3-47.3V505.9l276.7,137.2
		c9.5,4.7,21.3,7.1,30.7,7.1c11.8,0,21.3-2.4,30.7-7.1L809,505.9v245.9C809,777.8,787.7,799.1,761.7,799.1L761.7,799.1z
		 M761.7,799.1"/>
</g>
<path class="st2" d="M403.1,428.4c-13.6,0-23.9-10.3-23.9-23.9c0-13.6,10.3-23.9,23.9-23.9H600c13.6,0,23.9,10.3,23.9,23.9
	c0,13.6-10.3,23.9-23.9,23.9H403.1z M403.1,319c-13.6,0-23.9-10.3-23.9-23.9c0-13.6,10.3-23.9,23.9-23.9H600
	c13.6,0,23.9,10.3,23.9,23.9c0,13.6-10.3,23.9-23.9,23.9H403.1z"/>
</svg>
