<?xml version="1.0" encoding="utf-8"?>
<!-- Generator: Adobe Illustrator 22.0.0, SVG Export Plug-In . SVG Version: 6.00 Build 0)  -->
<svg version="1.1" id="图层_1" xmlns="http://www.w3.org/2000/svg" xmlns:xlink="http://www.w3.org/1999/xlink" x="0px" y="0px"
	 viewBox="0 0 1024 1024" style="enable-background:new 0 0 1024 1024;" xml:space="preserve">
<style type="text/css">
	.st0{fill:#D5E3EF;}
	.st1{fill:#61C3F7;}
	.st2{fill:#4C4C4C;}
</style>
<g>
	<path class="st0" d="M887.3,485.5H773c-15.8,0-28.6,12.8-28.6,28.6s12.8,28.6,28.6,28.6h114.3c15.8,0,28.6-12.8,28.6-28.6
		S903.1,485.5,887.3,485.5 M887.3,371.2H773c-15.8,0-28.6,12.8-28.6,28.6c0,15.8,12.8,28.6,28.6,28.6h114.3
		c15.8,0,28.6-12.8,28.6-28.6C915.9,384,903.1,371.2,887.3,371.2 M773,314.1h114.3c15.8,0,28.6-12.8,28.6-28.6
		c0-15.8-12.8-28.6-28.6-28.6H773c-15.8,0-28.6,12.8-28.6,28.6C744.4,301.3,757.2,314.1,773,314.1"/>
	<path class="st0" d="M788.8,660.4c-4.6-2-86.8-38-177.4-56c10.5-8.6,19.8-18.7,27.8-29.7c19.6-26.7,30.1-59,30.2-92.1V389
		c-0.1-50-24-96.9-64.2-126.5c-26.8-19.9-59.3-30.6-92.7-30.7c-86.5,0-156.9,70.5-156.9,157.2v93.5c0,50.5,24,95.4,61.1,124.2
		c-86.1,18.6-161.9,51.6-165.7,53.3c-26.1,10.5-45.8,39.8-45.8,68.2v117.6l1.5,4.5c8.5,24.9,31.4,41.6,56.9,41.6h511.6
		c29.7,0,54.3-22.2,58-50.9l0.5-112.9c0-13.6-4.6-27.4-12.2-39.3C813.3,676.3,801.8,665.8,788.8,660.4"/>
	<path class="st1" d="M858.5,304.8H736.2c-16.9,0-30.6,13.7-30.6,30.6c0,16.9,13.7,30.6,30.6,30.6h122.3c16.9,0,30.6-13.7,30.6-30.6
		C889.1,318.5,875.4,304.8,858.5,304.8 M858.5,427.1H736.2c-16.9,0-30.6,13.7-30.6,30.6c0,16.9,13.7,30.6,30.6,30.6h122.3
		c16.9,0,30.6-13.7,30.6-30.6C889.1,440.8,875.4,427.1,858.5,427.1 M736.2,243.6h122.3c16.9,0,30.6-13.7,30.6-30.6
		c0-16.9-13.7-30.6-30.6-30.6H736.2c-16.9,0-30.6,13.7-30.6,30.6C705.6,230,719.3,243.6,736.2,243.6"/>
	<path class="st2" d="M736.2,797.1H187.4c-0.4,0-0.9-0.2-1.4-0.6V683.1c0-5.6,5.7-14.2,11.6-16.7c1.5-0.6,149.9-65.6,263.6-65.6
		c113.4,0,262.1,64.9,264.3,65.9c5.1,2.1,10.8,10.8,10.8,16.4V797.1z M346.8,420.2V320.1c0-59,47.8-106.9,106.8-107
		c59,0.1,106.7,48,106.7,107v100.1c0,59-47.7,106.9-106.7,107.1C394.6,527.1,346.8,479.2,346.8,420.2L346.8,420.2z M749.3,610.5
		c-4.9-2.2-92.9-40.7-189.8-59.9c39.2-31.9,62-79.8,62-130.4V320.1c0-92.7-75.3-168.2-167.9-168.2c-92.6,0-167.9,75.4-167.9,168.1
		v100.1c0,54,25.7,102,65.3,132.9c-92.2,19.9-173.2,55.2-177.2,57c-27.9,11.3-49,42.6-49,73v125.8l1.7,4.8
		c9.1,26.7,33.6,44.5,60.9,44.5h547.4c31.8,0,58.1-23.8,62.1-54.4l0.5-120.8C797.3,652.9,776.4,621.6,749.3,610.5L749.3,610.5z
		 M749.3,610.5"/>
</g>
</svg>
