<?xml version="1.0" encoding="utf-8"?>
<!-- Generator: Adobe Illustrator 22.0.0, SVG Export Plug-In . SVG Version: 6.00 Build 0)  -->
<svg version="1.1" id="图层_1" xmlns="http://www.w3.org/2000/svg" xmlns:xlink="http://www.w3.org/1999/xlink" x="0px" y="0px"
	 viewBox="0 0 1024 1024" style="enable-background:new 0 0 1024 1024;" xml:space="preserve">
<style type="text/css">
	.st0{fill:#4C4C4C;}
</style>
<g>
	<path class="st0" d="M863.7,310.9H742.4c-16.7,0-30.3,13.6-30.3,30.3c0,16.7,13.6,30.3,30.3,30.3h121.3c16.7,0,30.3-13.6,30.3-30.3
		C894,324.5,880.4,310.9,863.7,310.9 M863.7,432.2H742.4c-16.7,0-30.3,13.6-30.3,30.3c0,16.7,13.6,30.3,30.3,30.3h121.3
		c16.7,0,30.3-13.6,30.3-30.3C894,445.8,880.4,432.2,863.7,432.2 M742.4,250.3h121.3c16.7,0,30.3-13.6,30.3-30.3
		c0-16.7-13.6-30.3-30.3-30.3H742.4c-16.7,0-30.3,13.6-30.3,30.3C712.1,236.7,725.7,250.3,742.4,250.3"/>
	<path class="st0" d="M742.4,799.3H198c-0.4,0-0.9-0.2-1.4-0.6V686.2c0-5.6,5.6-14.1,11.5-16.6c1.5-0.6,148.7-65,261.4-65
		c112.5,0,260,64.4,262.2,65.4c5,2.1,10.7,10.7,10.7,16.2V799.3z M356.2,425.4v-99.3c0-58.5,47.4-106,105.9-106.1
		c58.5,0.1,105.9,47.6,105.9,106.1v99.3c0,58.5-47.3,106.1-105.9,106.2C403.6,531.4,356.2,483.9,356.2,425.4L356.2,425.4z
		 M755.4,614.2c-4.9-2.2-92.1-40.3-188.3-59.5c38.9-31.7,61.5-79.1,61.5-129.3v-99.3c0-92-74.7-166.8-166.5-166.8
		c-91.8,0-166.6,74.8-166.6,166.8v99.3c0,53.6,25.5,101.2,64.8,131.8c-91.4,19.7-171.8,54.8-175.8,56.6
		C156.8,624.9,136,656,136,686.2V811l1.6,4.8c9,26.4,33.3,44.2,60.4,44.2H741c31.5,0,57.6-23.6,61.6-54l0.5-119.8
		C803,656.3,782.2,625.1,755.4,614.2L755.4,614.2z M755.4,614.2"/>
</g>
</svg>
