<?xml version="1.0" encoding="utf-8"?>
<!-- Generator: Adobe Illustrator 22.0.0, SVG Export Plug-In . SVG Version: 6.00 Build 0)  -->
<svg version="1.1" id="图层_1" xmlns="http://www.w3.org/2000/svg" xmlns:xlink="http://www.w3.org/1999/xlink" x="0px" y="0px"
	 viewBox="0 0 1024 1024" style="enable-background:new 0 0 1024 1024;" xml:space="preserve">
<style type="text/css">
	.st0{fill:#666666;}
	.st1{fill:none;}
	.st2{clip-path:url(#SVGID_2_);fill:#61C3F7;}
</style>
<path class="st0" d="M354,305.6"/>
<rect x="425.1" y="462.1" class="st1" width="248.7" height="213.7"/>
<g>
	<g>
		<defs>
			<rect id="SVGID_1_" x="139.2" y="159.6" width="740.4" height="711.7"/>
		</defs>
		<clipPath id="SVGID_2_">
			<use xlink:href="#SVGID_1_"  style="overflow:visible;"/>
		</clipPath>
		<path class="st2" d="M320.4,865c-30.1,13-56.3-6.1-53.4-38.8l18.8-204.6L150.5,466.9c-21.4-24.6-11.3-55.7,20.4-62.8l200-45.6
			l105.2-176.4c16.8-28.2,49.2-28.2,66,0l105.2,176.4l200,45.6c31.7,7.1,41.8,38.2,20.4,62.8L732.4,621.6l18.8,204.9
			c2.9,32.4-23.3,51.8-53.4,38.8l-188.7-80.9L320.4,865z M320.4,865"/>
	</g>
</g>
</svg>
