<?xml version="1.0" encoding="utf-8"?>
<!-- Generator: Adobe Illustrator 22.0.0, SVG Export Plug-In . SVG Version: 6.00 Build 0)  -->
<svg version="1.1" id="图层_1" xmlns="http://www.w3.org/2000/svg" xmlns:xlink="http://www.w3.org/1999/xlink" x="0px" y="0px"
	 viewBox="0 0 1024 1024" style="enable-background:new 0 0 1024 1024;" xml:space="preserve">
<style type="text/css">
	.st0{fill:#666666;}
	.st1{fill:none;}
</style>
<path class="st0" d="M354,305.6"/>
<rect x="425.1" y="462.1" class="st1" width="248.7" height="213.7"/>
<g>
	<g>
		<path class="st0" d="M308.7,871.9c-13.7,0-26.2-5.4-35.1-15.1c-9.7-10.6-14.3-25.5-12.8-41.9l17.7-194.4L150.1,473.8
			c-13.3-15.2-17.7-33.5-12.2-50.4c5.5-16.9,19.9-29.1,39.5-33.6l190-43.2L467.2,179c10.3-17.4,26.4-27.3,44.1-27.3
			c17.7,0,33.8,10,44.1,27.3l99.8,167.6l190,43.3c19.7,4.5,34.1,16.7,39.6,33.5c5.5,16.8,1,35.2-12.3,50.4L744.1,620.6L761.8,815
			c1.5,17-11,32.1-28.1,33.7c-0.9,0.1-1.9,0.1-2.8,0.1c0,0,0,0,0,0c-16.1,0-29.4-12.1-30.8-28.2l-20-220.7l134.2-153.5l-198.6-45.2
			L511.3,226L407.1,401.1l-198.6,45.2l134.2,153.5l-18.5,203.1l175-75.1c4-1.6,7.9-2.4,12-2.4c12.4,0,23.6,7.4,28.5,18.8
			c6.6,15.5-0.5,33.6-15.9,40.5l-191.5,82.2C324.4,870.2,316.5,871.9,308.7,871.9z"/>
		<path class="st0" d="M862.1,464.7c21-24,11.2-54.3-19.9-61.4l-195.8-44.6L543.6,186.1c-16.3-27.4-48.2-27.4-64.5,0L376.3,358.8
			l-195.8,44.6c-30.9,7-40.9,37.4-19.9,61.4L292.8,616l-18.2,200.2c-2.9,31.7,22.9,50.5,52.2,37.9l191.3-82.1
			c8.6-3.8,12.5-13.8,8.8-22.4c-3.7-8.6-13.6-12.7-22.3-9.1l-191.3,82.1c-5.4,2.3-5,2.6-4.5-3.3l19.5-214.9L186.4,442.1
			c-3.8-4.4-3.9-4.1,1.7-5.3L398.2,389l110.3-185.3c3-5.1,2.5-5.1,5.5,0L624.4,389l210.1,47.8c5.7,1.3,5.6,0.9,1.7,5.3L694.3,604.5
			l19.5,214.9c0.9,9.4,9.2,16.4,18.6,15.6c9.4-0.9,16.4-9.2,15.5-18.6L729.8,616L862.1,464.7z M862.1,464.7"/>
	</g>
</g>
</svg>
