<?xml version="1.0" encoding="utf-8"?>
<!-- Generator: Adobe Illustrator 22.0.0, SVG Export Plug-In . SVG Version: 6.00 Build 0)  -->
<svg version="1.1" id="图层_1" xmlns="http://www.w3.org/2000/svg" xmlns:xlink="http://www.w3.org/1999/xlink" x="0px" y="0px"
	 viewBox="0 0 1024 1024" style="enable-background:new 0 0 1024 1024;" xml:space="preserve">
<style type="text/css">
	.st0{fill:#666666;}
</style>
<g>
	<path class="st0" d="M856.6,767.9c-14.6,52.4-109.9,94.9-213.9,68.9c-104.5-26-209.2-81.2-293.4-164.8
		c-83.5-84.1-138.7-188.7-164.8-293.3c-26-104,16.5-199.3,68.9-214c13.4-3.7,67.6-9.7,149.2,135.9c23.3,41.9,5.4,39.9-46.8,125
		c-24.4,39.7,15.6,93.7,15.6,93.7s27.2,42.7,57.6,73.2c30.4,30.5,73.2,57.5,73.2,57.5s54,39.9,93.7,15.7
		c85.1-52.1,83-70.2,124.8-46.7C866.2,700.5,860.2,754.6,856.6,767.9L856.6,767.9z M856.6,767.9"/>
</g>
</svg>
