<?xml version="1.0" encoding="utf-8"?>
<!-- Generator: Adobe Illustrator 22.0.0, SVG Export Plug-In . SVG Version: 6.00 Build 0)  -->
<svg version="1.1" id="图层_1" xmlns="http://www.w3.org/2000/svg" xmlns:xlink="http://www.w3.org/1999/xlink" x="0px" y="0px"
	 viewBox="0 0 1024 1024" style="enable-background:new 0 0 1024 1024;" xml:space="preserve">
<style type="text/css">
	.st0{fill:#D5E3EF;}
	.st1{fill:#61C3F7;}
	.st2{fill:#4C4C4C;}
</style>
<g>
	<path class="st0" d="M900.6,896.5H247.2c-10.2,0-18.4-8.3-18.4-18.4V405c0-10.2,8.3-18.4,18.4-18.4h653.4
		c10.2,0,18.4,8.3,18.4,18.4v473C919.1,888.3,910.8,896.5,900.6,896.5z"/>
	<path class="st1" d="M366.6,647.4H264.1V524.9h102.5V647.4z M341.7,624.1v-75.9h-52.5v75.9H341.7z"/>
	<path class="st1" d="M421.8,602.7v44.7h-25.3V524.9H496v77.8H421.8z M421.8,579.1h48.9v-30.9h-48.9V579.1z"/>
	<path class="st1" d="M532.8,647.4h-6.6V524.9h95.6v23.3h-70.3v25.6h61.4v23.3h-61.4v26.9h70.3v23.3H532.8z"/>
	<path class="st1" d="M755.1,647.4h-22L676,565v82.4h-24.3V524.9h24.6l54.5,79.1v-79.1h24.3V647.4z"/>
	<path class="st2" d="M801.7,290.5h-68.4L542.6,180.7c0.4-1.9,0.6-3.9,0.6-5.9c0-17.5-14.2-31.7-31.7-31.7
		c-17.5,0-31.7,14.2-31.7,31.7c0,1.9,0.2,3.8,0.5,5.6L289,290.5h-72.8c-44.4,0-80.6,36.1-80.6,80.6v409.1
		c0,44.4,36.1,80.6,80.6,80.6h585.5c44.4,0,80.6-36.1,80.6-80.6V371C882.3,326.6,846.1,290.5,801.7,290.5z M504.4,205.6
		c2.3,0.5,4.6,0.8,7.1,0.8c2.3,0,4.5-0.2,6.6-0.7l147.2,84.7H357L504.4,205.6z M827.9,780.1c0,14.5-11.8,26.3-26.3,26.3H216.2
		c-14.5,0-26.3-11.8-26.3-26.3V371c0-14.5,11.8-26.3,26.3-26.3h585.5c14.5,0,26.3,11.8,26.3,26.3V780.1z"/>
</g>
</svg>
