<?xml version="1.0" encoding="utf-8"?>
<!-- Generator: Adobe Illustrator 22.0.0, SVG Export Plug-In . SVG Version: 6.00 Build 0)  -->
<svg version="1.1" id="图层_1" xmlns="http://www.w3.org/2000/svg" xmlns:xlink="http://www.w3.org/1999/xlink" x="0px" y="0px"
	 viewBox="0 0 1024 1024" style="enable-background:new 0 0 1024 1024;" xml:space="preserve">
<style type="text/css">
	.st0{fill:#61C3F7;}
	.st1{fill:#666666;}
</style>
<path class="st0" d="M395.4,575.1c0,0,65.4-53.3,117.5,0c0,0,56.7,56.2,123.5,0l-6.1,84.4l-61.9,47.2h-95.7l-68-41.5l-30-78.4
	L395.4,575.1z"/>
<g>
	<path class="st1" d="M770.4,197.7c10.9,0,19.8,8.1,19.8,18v594.2c0,9.9-8.9,18-19.8,18H255.6c-10.9,0-19.8-8.1-19.8-18V215.7
		c0-9.9,8.9-18,19.8-18H770.4 M770.4,138.4H255.6c-43.8,0-79.2,32.2-79.2,72v603.2c0,39.8,35.4,72,79.2,72h514.8
		c43.8,0,79.2-32.2,79.2-72V210.4C849.6,170.6,814.1,138.4,770.4,138.4L770.4,138.4z M770.4,138.4"/>
	<path class="st1" d="M505.4,418.4c-96.3,0-174.4,77-174.4,172c0,95,78.1,172,174.4,172c96.3,0,174.4-77,174.4-172
		C679.8,495.3,601.7,418.4,505.4,418.4z M590,673.7c-22.5,22.3-52.6,34.6-84.5,34.6c-32,0-62-12.2-84.5-34.6
		c-22.6-22.2-35.1-51.9-35.1-83.4c0-31.5,12.4-61.1,35.1-83.4c22.5-22.3,52.6-34.6,84.5-34.6c31.9,0,62,12.2,84.5,34.6
		c22.6,22.2,35.1,51.9,35.1,83.4C625,621.8,612.6,651.5,590,673.7z"/>
	<rect x="198.6" y="311.2" class="st1" width="620.7" height="54"/>
	<path class="st1" d="M670.7,227.4h-91.3c-15.1,0-27.4,12.1-27.4,27s12.2,27,27.4,27h91.3c15.2,0,27.4-12.1,27.4-27
		S685.8,227.4,670.7,227.4L670.7,227.4z M670.7,227.4"/>
</g>
</svg>
