<?xml version="1.0" encoding="utf-8"?>
<!-- Generator: Adobe Illustrator 22.0.0, SVG Export Plug-In . SVG Version: 6.00 Build 0)  -->
<svg version="1.1" id="图层_1" xmlns="http://www.w3.org/2000/svg" xmlns:xlink="http://www.w3.org/1999/xlink" x="0px" y="0px"
	 viewBox="0 0 1024 1024" style="enable-background:new 0 0 1024 1024;" xml:space="preserve">
<style type="text/css">
	.st0{fill:#666666;}
</style>
<g>
	<path class="st0" d="M668.1,229.1h-92.1c-15.3,0-27.6,12.2-27.6,27.2s12.3,27.2,27.6,27.2h92.1c15.3,0,27.6-12.2,27.6-27.2
		S683.4,229.1,668.1,229.1L668.1,229.1z M668.1,229.1"/>
	<path class="st0" d="M771,202.7c11,0,20,8.2,20,18.2v599.4c0,10-9,18.2-20,18.2H251.7c-11,0-20-8.2-20-18.2V220.9
		c0-10,9-18.2,20-18.2H771 M771,142.8H251.7c-44.1,0-79.9,32.5-79.9,72.7V824c0,40.1,35.8,72.7,79.9,72.7H771
		c44.1,0,79.9-32.5,79.9-72.7V215.5C850.9,175.4,815.1,142.8,771,142.8L771,142.8z M771,142.8"/>
	<path class="st0" d="M507.2,425.3c-97.1,0-175.9,77.7-175.9,173.5c0,95.8,78.7,173.5,175.9,173.5c97.1,0,175.9-77.7,175.9-173.5
		C683.1,503,604.4,425.3,507.2,425.3z M592.5,682.9c-22.7,22.5-53,34.9-85.3,34.9c-32.2,0-62.5-12.3-85.3-34.9
		c-22.8-22.4-35.4-52.3-35.4-84.1c0-31.8,12.5-61.7,35.4-84.1c22.7-22.5,53-34.9,85.3-34.9c32.2,0,62.5,12.4,85.3,34.9
		c22.8,22.4,35.4,52.3,35.4,84.1C627.9,630.6,615.4,660.4,592.5,682.9z"/>
	<rect x="194.2" y="317.2" class="st0" width="626.2" height="54.5"/>
	<path class="st0" d="M820.3,317.2"/>
</g>
</svg>
