<?xml version="1.0" encoding="utf-8"?>
<!-- Generator: Adobe Illustrator 22.0.0, SVG Export Plug-In . SVG Version: 6.00 Build 0)  -->
<svg version="1.1" id="图层_1" xmlns="http://www.w3.org/2000/svg" xmlns:xlink="http://www.w3.org/1999/xlink" x="0px" y="0px"
	 viewBox="0 0 1024 1024" style="enable-background:new 0 0 1024 1024;" xml:space="preserve">
<style type="text/css">
	.st0{fill:#D5E3EF;}
	.st1{fill:#4C4C4C;}
	.st2{fill:#61C3F7;}
</style>
<g>
	<g>
		<path class="st0" d="M808.2,277.2H699.8v-13.6c0-15-12.1-27.1-27.1-27.1s-27.1,12.1-27.1,27.1v13.6H482.8v-13.6
			c0-15-12.1-27.1-27.1-27.1c-15,0-27.1,12.1-27.1,27.1v13.6H319.8c-29.8,0-54,25.4-54,56.7v78.9h596.8V334
			C862.6,302.7,838.2,277.2,808.2,277.2 M672.7,575.6c15,0,27.1,12.1,27.1,27.1c0,15-12.1,27.1-27.1,27.1h-217
			c-15,0-27.1-12.1-27.1-27.1c0-15,12.1-27.1,27.1-27.1H672.7z M428.6,738.4c0-15,12.1-27.1,27.1-27.1h217c15,0,27.1,12.1,27.1,27.1
			c0,15-12.1,27.1-27.1,27.1h-217C440.7,765.5,428.6,753.3,428.6,738.4L428.6,738.4z M835.5,467.1H265.8v404.4
			c0,31.2,24.3,56.7,54,56.7h488.7c29.8,0,54-25.4,54-56.7V467.1H835.5z M835.5,467.1"/>
	</g>
	<path class="st1" d="M761.3,825.4c0,1.6-0.7,2.6-0.1,2.7l-535.8,0.4c-0.2-0.2-1.2-1.3-1.2-3.1V380.5h537.1V825.4z M224.2,234
		c0-1.6,0.6-2.6,0.1-2.7h119.3v14.9c0,16.5,13.4,29.8,29.8,29.8c16.5,0,29.8-13.4,29.8-29.8v-14.9h179v14.9
		c0,16.5,13.4,29.8,29.8,29.8c16.5,0,29.8-13.4,29.8-29.8v-14.9h118.4c0.6,0.8,0.9,1.7,0.9,2.7v86.8H224.2V234z M761.1,171.7H641.9
		v-14.9c0-16.5-13.4-29.8-29.8-29.8c-16.5,0-29.8,13.4-29.8,29.8v14.9h-179v-14.9c0-16.5-13.4-29.8-29.8-29.8
		c-16.5,0-29.8,13.4-29.8,29.8v14.9H223.9c-32.8,0-59.4,28-59.4,62.4v591.4c0,34.4,26.7,62.4,59.4,62.4h537.6
		c32.8,0,59.4-28,59.4-62.4V234C820.9,199.6,794.1,171.6,761.1,171.7L761.1,171.7z M761.1,171.7"/>
	<path class="st2" d="M373.4,559.6h238.7c16.5,0,29.8-13.4,29.8-29.8c0-16.5-13.4-29.8-29.8-29.8H373.4c-16.5,0-29.8,13.4-29.8,29.8
		C343.5,546.2,356.9,559.6,373.4,559.6 M373.4,708.8h238.7c16.5,0,29.8-13.4,29.8-29.8c0-16.5-13.4-29.8-29.8-29.8H373.4
		c-16.5,0-29.8,13.4-29.8,29.8C343.5,695.4,356.9,708.8,373.4,708.8"/>
</g>
</svg>
