<?xml version="1.0" encoding="utf-8"?>
<!-- Generator: Adobe Illustrator 22.0.0, SVG Export Plug-In . SVG Version: 6.00 Build 0)  -->
<svg version="1.1" id="图层_1" xmlns="http://www.w3.org/2000/svg" xmlns:xlink="http://www.w3.org/1999/xlink" x="0px" y="0px"
	 viewBox="0 0 1024 1024" style="enable-background:new 0 0 1024 1024;" xml:space="preserve">
<style type="text/css">
	.st0{fill:#4C4C4C;}
</style>
<g>
	<path class="st0" d="M786.1,831.7c0,1.7-0.7,2.6-0.1,2.7l-542.9,0.4c-0.2-0.2-1.2-1.3-1.2-3.1V380.9h544.2V831.7z M241.9,232.5
		c0-1.6,0.6-2.6,0.1-2.7h120.8v15.1c0,16.7,13.5,30.2,30.2,30.2c16.7,0,30.2-13.5,30.2-30.2v-15.1h181.4v15.1
		c0,16.7,13.5,30.2,30.2,30.2c16.7,0,30.2-13.5,30.2-30.2v-15.1h120c0.6,0.8,0.9,1.7,0.9,2.7v88H241.9V232.5z M786,169.3H665.2
		v-15.1c0-16.7-13.5-30.2-30.2-30.2c-16.7,0-30.2,13.5-30.2,30.2v15.1H423.3v-15.1c0-16.7-13.5-30.2-30.2-30.2
		c-16.7,0-30.2,13.5-30.2,30.2v15.1H241.6c-33.2,0-60.2,28.4-60.2,63.2v599.2c0,34.9,27,63.2,60.2,63.2h544.7
		c33.2,0,60.2-28.3,60.2-63.2V232.5C846.6,197.7,819.4,169.3,786,169.3L786,169.3z M786,169.3"/>
	<path class="st0" d="M393.1,562.4h241.9c16.7,0,30.2-13.5,30.2-30.2c0-16.7-13.5-30.2-30.2-30.2H393.1c-16.7,0-30.2,13.5-30.2,30.2
		C362.8,548.8,376.4,562.4,393.1,562.4 M393.1,713.5h241.9c16.7,0,30.2-13.5,30.2-30.2c0-16.7-13.5-30.2-30.2-30.2H393.1
		c-16.7,0-30.2,13.5-30.2,30.2C362.8,700,376.4,713.5,393.1,713.5"/>
</g>
</svg>
