<?xml version="1.0" encoding="utf-8"?>
<!-- Generator: Adobe Illustrator 22.0.0, SVG Export Plug-In . SVG Version: 6.00 Build 0)  -->
<svg version="1.1" id="图层_1" xmlns="http://www.w3.org/2000/svg" xmlns:xlink="http://www.w3.org/1999/xlink" x="0px" y="0px"
	 viewBox="0 0 1024 1024" style="enable-background:new 0 0 1024 1024;" xml:space="preserve">
<style type="text/css">
	.st0{clip-path:url(#SVGID_2_);fill:#D5E3EF;}
	.st1{clip-path:url(#SVGID_2_);fill:#666666;}
	.st2{fill:#61C3F7;}
</style>
<g>
	<g>
		<defs>
			<rect id="SVGID_1_" x="102.1" y="85.6" width="812" height="787.5"/>
		</defs>
		<clipPath id="SVGID_2_">
			<use xlink:href="#SVGID_1_"  style="overflow:visible;"/>
		</clipPath>
		<path class="st0" d="M362.5,866.9c-29.1,12.4-54.7-6-51.8-37.6l18.1-199.1L197.1,479.7c-20.9-23.8-11-54,19.9-61.1l194.9-44.4
			l102.2-171.8c16.3-27.3,47.9-27.3,64.3,0l102.2,171.8l194.9,44.4c30.9,7.1,40.8,37.3,19.9,61.1L763.6,630.2l18.1,199.1
			c2.8,31.6-22.7,50.4-51.8,37.6l-183.5-78.8L362.5,866.9z M362.5,866.9"/>
		<path class="st1" d="M288.3,863c-14.5,0-28-5.7-37.3-16c-10.3-11.4-15.3-27.3-13.5-44.7l19.2-210.5l-139.2-159
			c-14.2-16.3-18.8-35.9-13.1-53.6c5.7-18.1,21.3-30.9,42.2-35.9l205.9-46.9l107.9-181.4c11-18.5,28-29.1,47.2-29.1
			c18.8,0,36.2,10.7,47.2,29.1l107.9,181.4l205.9,46.9c20.9,4.6,36.6,17.7,42.2,35.9c5.7,18.1,1.1,37.6-13.1,54l-139.2,159
			l19.2,210.5c0.7,8.9-1.8,17.4-7.5,23.8c-5.7,6.7-13.5,11-22.4,11.7h-2.8c-17,0-31.2-12.8-32.7-29.8l-21.6-238.5L836.7,403
			l-215.8-49L507.3,163.7L394.1,354l-215.8,49l145.9,166.8l-19.9,220.4l190.3-81.6c4.3-1.8,8.5-2.5,12.8-2.5
			c13.1,0,24.8,7.8,30.2,19.9c7.1,16.3-0.4,35.5-16.7,42.9l-207,88.7C305,860.9,296.5,863,288.3,863L288.3,863z M288.3,863"/>
	</g>
	<path class="st2" d="M644,480c-10.3,0-19.9-6.4-23.1-16c-12.1-33.7-41.2-43-63.2-44.7c-11.7-1.1-21.3-10.3-22.7-21.6
		c-0.7-7.1,1.4-14.2,6-19.5c4.6-5.3,11.4-8.5,18.5-8.5h2.1c24.1,2.1,83.1,13.5,105.8,77c2.5,6.8,1.8,14.6-2.1,20.6
		c-3.9,6.4-9.9,10.7-17.4,12.1C646.8,480,645.4,480,644,480L644,480z M644,480"/>
	<path class="st2" d="M624.1,463c-13.5-36.6-45.8-45.4-66-46.9c-9.9-0.7-18.1-8.5-19.5-18.8c-1.8-13.5,9.2-24.8,22.7-23.8
		c36.6,2.8,83.8,21.3,102.9,74.9c4.6,12.4-3.6,25.9-16.7,28C637.6,477.9,627.7,472.2,624.1,463L624.1,463z M624.1,463"/>
</g>
</svg>
