<?xml version="1.0" encoding="utf-8"?>
<!-- Generator: Adobe Illustrator 22.0.0, SVG Export Plug-In . SVG Version: 6.00 Build 0)  -->
<svg version="1.1" id="图层_1" xmlns="http://www.w3.org/2000/svg" xmlns:xlink="http://www.w3.org/1999/xlink" x="0px" y="0px"
	 viewBox="0 0 1024 1024" style="enable-background:new 0 0 1024 1024;" xml:space="preserve">
<style type="text/css">
	.st0{fill:#D5E3EF;}
	.st1{fill:#4C4C4C;}
	.st2{fill:#61C3F7;}
</style>
<g>
	<path class="st0" d="M876.3,504.7c-4-21-17.2-35.2-34.2-34.8h-2.6c-20.5,0-40.1-8.4-54.3-23.2c-14.2-14.8-21.7-34.7-20.9-55.2
		c0.4-5,1.5-10.6,3.2-16.2c1.2-4.1,2.5-7.5,3.3-9.3c8.3-18.6,1.9-41.4-15.6-53.7l-80.9-44.9c-18-7.4-38.6-3.2-52.3,10.4
		c-16.4,16.9-42.2,33.7-59.6,33.7c-17.6,0-43.6-17.1-60.1-34.3c-13.9-14-34.9-18.1-53.1-10.4l-83.7,46.1
		c-16.8,11.7-23.2,34.4-14.9,53.1c1.3,3.1,2.4,6.2,3.3,9.4c2,6.9,3.3,13.5,3.3,19.3c-0.1,41.5-33.7,75.2-75.3,75.2h-2.7
		c-16.8-0.4-30.1,13.8-34,34.9c-3.4,18.1-6.7,42.4-6.7,63.1c0,20.7,3.3,44.9,6.7,63.1c3.9,20.7,16.9,34.8,34.2,34.8h2.6
		c20.5,0,40.1,8.4,54.3,23.2c14.2,14.8,21.7,34.7,20.9,55.2c-0.5,5.5-1.5,10.9-3.2,16.2c-1.2,4.2-2.5,7.5-3.3,9.3
		c-8.3,18.6-1.9,41.4,15.6,53.7l79.4,44.3c18.1,7.5,39,3.2,52.5-11c16.1-17.5,43.1-35.8,61-35.8c18.1,0,44.6,18.2,61.4,36.5
		c9,9.6,21.7,15,34.9,14.9c6.2,0,12.1-1.2,18.4-3.9l82.2-45.6c16.8-11.7,23.2-34.5,14.9-53.1c-0.8-1.8-2.1-5.1-3.3-9.4
		c-2-6.9-3.3-13.5-3.3-19.3c0-41.6,33.7-75.2,75.3-75.3h2.7c16.8,0.4,30.1-13.8,34-34.8c3.4-18.2,6.7-42.4,6.7-63.1
		C883,547.2,879.7,523.1,876.3,504.7z"/>
	<g>
		<g>
			<path class="st1" d="M598.4,842.8c-14.7,0.1-28.8-5.9-38.8-16.6c-18.7-20.5-48.3-40.7-68.4-40.7c-19.9,0-50,20.4-67.9,39.9
				c-15.1,15.8-38.4,20.7-58.5,12.3l-88.4-49.3c-19.5-13.7-26.6-39-17.4-59.8c0.9-2,2.3-5.7,3.7-10.4c1.8-5.9,3-11.9,3.5-18
				c0.9-22.8-7.5-45-23.3-61.5c-15.8-16.5-37.6-25.8-60.5-25.9h-2.9c-19.3,0-33.7-15.7-38.1-38.8c-3.8-20.2-7.5-47.3-7.5-70.3
				c0-23,3.7-50.1,7.5-70.3c4.4-23.4,19.2-39.3,37.9-38.8h3.1c46.3,0,83.8-37.6,83.9-83.8c0-6.4-1.4-13.9-3.6-21.5
				c-1-3.5-2.3-7-3.7-10.5c-9.2-20.8-2.1-46.2,16.6-59.2l93.2-51.3c20.2-8.6,43.7-4,59.1,11.6c18.4,19.2,47.4,38.3,66.9,38.3
				c19.4,0,48.2-18.7,66.4-37.5c15.3-15.2,38.3-19.8,58.3-11.6l90.1,50c19.5,13.6,26.6,39,17.4,59.8c-0.9,2-2.3,5.7-3.7,10.4
				c-1.9,6.3-3.1,12.4-3.5,18c-0.9,22.8,7.4,45,23.2,61.5c15.8,16.5,37.6,25.8,60.5,25.9h2.9c18.9-0.4,33.6,15.4,38.1,38.8
				c3.9,20.4,7.5,47.3,7.5,70.3c0,23-3.7,50.1-7.5,70.3c-4.4,23.4-19.2,39.2-37.9,38.8h-3c-46.3,0-83.8,37.6-83.9,83.9
				c0,6.4,1.4,13.8,3.6,21.5c1.4,4.7,2.8,8.4,3.7,10.4c9.2,20.8,2.1,46.2-16.6,59.2L619,838.5C612,841.5,605.4,842.8,598.4,842.8
				L598.4,842.8z M672.6,744.3c-5.9-15.2-9.1-31.4-9.3-47.7c0.1-72.3,55-132.8,127-139.7c3-17.5,5.3-37.4,5.3-53.2
				c0-15.8-2.4-35.7-5.3-53.2c-72-7-126.9-67.4-127-139.7c0-17,4-33.8,9.3-47.8l-73.1-40.6c-9,8.8-18.8,16.9-29.1,24.1
				c-26.5,18.6-51.9,28.2-75.5,28.2c-23.9,0-49.4-9.8-76.1-28.8c-12.7-9.1-23.1-18.3-29.2-24.6l-76,41.8c5.3,14,9.3,30.7,9.3,47.7
				c-0.1,72.3-55,132.8-127,139.7c-3,17.5-5.3,37.4-5.3,53.2c0,15.8,2.4,35.7,5.4,53.2c72,7,126.9,67.4,127,139.7
				c0,17-4,33.8-9.3,47.8l71.1,39.7c9.1-9.2,18.8-17.6,29.2-25.2c27-19.8,53.1-30,77.4-30c24.6,0,50.8,10.4,78,30.5
				c12.2,9.1,22.3,18.3,29.4,25.7L672.6,744.3z"/>
		</g>
	</g>
	<path class="st2" d="M491.5,380.9c-67.6,0-122.4,54.8-122.4,122.4c0,67.6,54.8,122.4,122.4,122.4s122.4-54.8,122.4-122.4
		C613.9,435.7,559.1,380.9,491.5,380.9z M491.5,578.8c-41.7,0-75.5-33.8-75.5-75.5s33.8-75.5,75.5-75.5s75.5,33.8,75.5,75.5
		S533.1,578.8,491.5,578.8z"/>
</g>
</svg>
