<?xml version="1.0" encoding="utf-8"?>
<!-- Generator: Adobe Illustrator 22.0.0, SVG Export Plug-In . SVG Version: 6.00 Build 0)  -->
<svg version="1.1" id="图层_1" xmlns="http://www.w3.org/2000/svg" xmlns:xlink="http://www.w3.org/1999/xlink" x="0px" y="0px"
	 viewBox="0 0 1024 1024" style="enable-background:new 0 0 1024 1024;" xml:space="preserve">
<style type="text/css">
	.st0{fill:#D5E3EF;}
	.st1{fill:#61C3F7;}
	.st2{fill:#4C4C4C;}
</style>
<g>
	<path class="st0" d="M773.8,747.5c-2.6,29.6-13.6,57.4-31.1,78c-12.9,15.3-28.9,26-46.2,31.1c-18.9,5.5-39,4.4-59.9-3.3L587.2,835
		c-10.3-3.8-21-5.7-31.8-5.7c-10.8,0-21.7,1.9-31.9,5.7l-46.2,17.1c-40.2,14.9-79.1,4.7-106.7-28c-17.4-20.7-28.4-48.5-30.9-78
		c-2.8-32.3,4.7-64.7,21.4-93.5c29.4-50.5,61.9-89.3,96.7-115.2c32.3-24,65.7-36.2,99.3-36.2h0.4c33.5,0.1,66.9,12.4,99.1,36.7
		c34.6,26,66.9,64.9,96,115.6C769.2,682.5,776.5,715.1,773.8,747.5L773.8,747.5z M773.8,747.5"/>
	<path class="st1" d="M578.3,705.3c-0.9,5.4-4.6,10.5-10.5,14.3c-4.4,2.8-9.7,4.8-15.6,5.7c-6.4,1-13.2,0.8-20.2-0.6l-16.6-3.3
		c-3.5-0.7-7.1-1-10.7-1c-3.7,0-7.3,0.3-10.8,1l-15.6,3.1c-13.6,2.7-26.7,0.9-36-5.1c-5.9-3.8-9.6-8.9-10.4-14.3
		c-0.9-5.9,1.6-11.9,7.2-17.2c9.9-9.3,20.9-16.4,32.6-21.1c10.9-4.4,22.2-6.6,33.5-6.6h0.1c11.3,0,22.6,2.3,33.4,6.7
		c11.7,4.8,22.6,11.9,32.4,21.2C576.7,693.4,579.2,699.4,578.3,705.3L578.3,705.3z M578.3,705.3"/>
	<path class="st2" d="M612.1,823.9c-15.1,0-30.6-2.8-45.8-8.4l-43-15.9c-4.3-1.6-8.7-2.4-13.1-2.4c-4.4,0-8.8,0.8-13.1,2.4
		l-40.2,14.9c-15.2,5.7-30.7,8.5-45.9,8.5c-36,0-69.4-16.1-94-45.4c-20.8-24.7-33.8-57.2-36.8-91.6c-3.1-37,5.3-73.8,24.2-106.3
		c28.4-49,60.6-87.1,95.5-113.1c35.6-26.5,73.1-39.9,111.7-39.9h0.5c38.6,0.1,76.2,13.7,111.7,40.4c34.8,26.2,66.7,64.4,94.9,113.5
		c18.7,32.7,27,69.6,23.9,106.8c-2.9,34.5-16,67-36.9,91.7C681.1,808,647.9,823.9,612.1,823.9z M510.2,748.3c10.3,0,20.4,1.8,30,5.4
		l43,15.9c9.9,3.6,19.6,5.5,28.9,5.5c6.6,0,13-0.9,19.2-2.7c13.8-4,26.7-12.7,37.1-25c14.4-16.9,23.4-39.8,25.6-64.4
		c2.3-27-3.8-54-17.6-78.1c-24.8-43.4-52.4-76.6-81.9-98.8c-26.9-20.3-54.7-30.6-82.5-30.7h-0.3c-27.9,0-55.7,10.2-82.6,30.3
		c-29.7,22-57.4,55.1-82.6,98.4c-13.9,24-20.1,50.8-17.8,77.7c2,24.4,11.1,47.3,25.4,64.4c15.4,18.3,35.1,27.9,56.9,27.9
		c9.4,0,19.1-1.8,28.9-5.4l40.2-14.9C489.7,750.1,499.8,748.3,510.2,748.3z M768.3,567.7c-13.5,0-26.3-3.1-38-9.4
		c-22.9-12.1-38.3-34.2-43.5-62.1c-4.8-25.8-0.1-53.9,13.3-79.2c13.3-25.2,34-44.9,58.1-55.4c12.4-5.5,25.1-8.2,37.7-8.2
		c13.5,0,26.3,3.2,38.1,9.4c22.9,12.1,38.3,34.2,43.5,62.1c4.8,25.7,0.1,53.9-13.3,79.2c-13.3,25.2-34,44.9-58.1,55.4
		C793.7,564.9,781,567.7,768.3,567.7z M795.9,402.3c-5.8,0-11.9,1.4-18.2,4.1c-14,6.1-26.2,18-34.5,33.5
		c-8.2,15.5-11.2,32.3-8.4,47.4c2.4,12.9,8.9,22.9,18.4,27.9c4.6,2.4,9.7,3.6,15.2,3.6c5.9,0,12-1.4,18.2-4.1
		c14-6.1,26.2-18,34.6-33.5c8.2-15.5,11.2-32.3,8.4-47.4c-2.4-12.9-8.9-22.9-18.4-27.9C806.6,403.5,801.4,402.3,795.9,402.3z
		 M254.3,567.7c-12.5,0-25.3-2.8-37.8-8.2c-24-10.5-44.7-30.1-58.1-55.4c-13.4-25.3-18.1-53.4-13.3-79.2c5.2-27.9,20.6-50,43.5-62.1
		c11.8-6.2,24.6-9.4,38.1-9.4c12.6,0,25.2,2.8,37.7,8.2c24,10.5,44.7,30.2,58.1,55.4c13.4,25.3,18.1,53.4,13.3,79.2
		c-5.2,27.9-20.6,50-43.5,62.1C280.8,564.5,268,567.7,254.3,567.7z M226.8,402.3c-5.5,0-10.7,1.2-15.3,3.6
		c-9.4,5-15.9,14.9-18.3,27.9c-2.8,15.1,0.2,31.9,8.5,47.4c8.3,15.5,20.5,27.4,34.5,33.5c6.2,2.7,12.4,4.1,18.2,4.1c0,0,0,0,0,0
		c5.5,0,10.6-1.2,15.2-3.7c9.5-5,16-14.9,18.3-27.9c2.8-15.1-0.2-31.9-8.4-47.5c-8.3-15.5-20.5-27.4-34.5-33.5
		C238.6,403.6,232.5,402.3,226.8,402.3z M620.5,436.8c-3.5,0-7.1-0.2-11.1-0.7c-30.7-4-56.9-23.8-73.8-55.7
		c-15.4-29.1-21.2-65.6-16.3-102.6c4.8-37,19.7-70.7,42-95c21.1-23,47.5-35.7,74.2-35.7c3.7,0,7.5,0.2,11.3,0.7
		c30.6,4,56.8,23.8,73.7,55.7c15.4,29.2,21.2,65.5,16.3,102.5c-4.8,37-19.7,70.7-42,95C673.5,424.1,647.1,436.8,620.5,436.8z
		 M635.7,195.9c-13.1,0-26.7,7.1-38.6,19.9c-15.6,16.9-26.1,41.1-29.6,68.2c-3.6,27.1,0.4,53.2,11.1,73.5
		c9.2,17.5,22.3,28.2,36.8,30.1c1.5,0.2,3.1,0.3,4.7,0.3c13.1,0,26.7-7.1,38.6-19.9c15.5-16.8,26-41.1,29.6-68.2
		c3.5-27-0.4-53.1-11.1-73.5c-9.2-17.5-22.3-28.2-36.8-30C638.9,196,637.3,195.9,635.7,195.9z M402.2,436.8
		c-26.8,0-53.2-12.7-74.3-35.8c-22.3-24.2-37.2-58-42-95c-4.8-37,1-73.4,16.3-102.6c16.8-31.9,43-51.7,73.7-55.7
		c3.7-0.5,7.5-0.7,11.2-0.7c26.7,0,53,12.7,74.2,35.7c22.3,24.3,37.2,58,42,95c4.8,37-1,73.4-16.3,102.6
		c-16.8,31.9-43,51.7-73.7,55.7C409.8,436.5,406,436.8,402.2,436.8z M387,195.9c-1.8,0-3.3,0.1-4.7,0.3
		c-14.5,1.9-27.6,12.6-36.9,30.1c-10.7,20.2-14.6,46.4-11.1,73.6c3.6,27.2,14.1,51.4,29.6,68.2c12.1,13.1,25.4,20,38.6,20
		c1.6,0,3.1-0.1,4.7-0.3c14.5-1.9,27.6-12.5,36.8-30.1c10.7-20.3,14.7-46.4,11.1-73.4c-3.6-27.2-14.1-51.4-29.6-68.2
		C413.7,203,400,195.9,387,195.9z"/>
	<path class="st2" d="M768.3,561.2c-12.3,0-24.2-2.9-35-8.6C712.2,541.4,698,521,693.2,495c-4.6-24.4,0-51,12.7-74.9
		c12.7-23.9,32.2-42.6,55-52.5c24.2-10.6,49.1-10.2,70.2,1c21.1,11.2,35.4,31.6,40.2,57.5c4.6,24.4,0,51-12.7,74.9
		c-12.7,23.9-32.2,42.6-55,52.5C791.8,558.7,779.9,561.2,768.3,561.2L768.3,561.2z M795.9,395.8c-6.7,0-13.7,1.6-20.8,4.6
		c-15.4,6.7-28.7,19.7-37.7,36.4c-8.9,16.8-12.2,35.1-9.1,51.7c2.7,15,10.5,26.5,21.7,32.5c11.3,6,25.1,5.9,39.1-0.3
		c15.4-6.7,28.7-19.7,37.7-36.4c8.9-16.8,12.2-35.1,9.1-51.7c-2.7-15-10.5-26.5-21.7-32.5C808.7,397.3,802.4,395.8,795.9,395.8
		L795.9,395.8z M254.3,561.2c-11.5,0-23.4-2.6-35.2-7.7c-22.8-9.9-42.2-28.6-55-52.5c-12.7-23.9-17.2-50.5-12.7-74.9
		c4.8-25.9,19-46.4,40.2-57.5c21.1-11.2,46-11.5,70.1-1c22.8,9.9,42.2,28.6,55,52.5c12.7,23.9,17.2,50.5,12.7,74.9
		c-4.8,25.9-19,46.4-40.2,57.5C278.4,558.4,266.6,561.2,254.3,561.2L254.3,561.2z M226.8,395.8c-6.5,0-12.8,1.5-18.3,4.4
		c-11.3,6-19,17.5-21.7,32.5c-3.1,16.5,0.2,34.9,9.1,51.7c8.9,16.8,22.3,29.7,37.7,36.4c14,6.1,27.8,6.2,39.1,0.3
		c11.3-6,19-17.5,21.7-32.5c3.1-16.5-0.2-34.9-9.1-51.7c-8.9-16.8-22.3-29.7-37.7-36.4C240.4,397.3,233.4,395.8,226.8,395.8
		L226.8,395.8z M402.2,430.3c-25,0-49.3-11.7-69.5-33.7c-21.4-23.3-35.7-55.7-40.3-91.4c-4.6-35.7,0.9-70.7,15.6-98.7
		c15.8-30.1,40.2-48.6,68.8-52.3c28.5-3.7,56.9,8,79.8,33c21.4,23.3,35.7,55.7,40.3,91.4c4.6,35.7-0.9,70.7-15.6,98.7
		c-15.8,30.1-40.2,48.6-68.8,52.3C409.2,430,405.7,430.3,402.2,430.3L402.2,430.3z M387,189.4c-1.8,0-3.7,0.1-5.5,0.3
		c-16.6,2.2-31.5,14.1-41.7,33.5c-11.3,21.5-15.5,49-11.8,77.4c3.7,28.4,14.7,53.9,31.2,71.8c14.9,16.1,32.2,23.8,48.8,21.7
		c16.6-2.2,31.5-14.1,41.7-33.5c11.3-21.4,15.6-48.9,11.8-77.3c-3.7-28.4-14.7-53.9-31.2-71.8C417.1,197.1,401.9,189.4,387,189.4
		L387,189.4z M620.5,430.3c-3.5,0-6.9-0.2-10.3-0.7c-28.5-3.7-52.9-22.3-68.8-52.3c-14.7-28-20.3-63-15.6-98.7
		c4.6-35.7,19-68.1,40.3-91.4c22.9-25,51.3-36.7,79.8-33c28.5,3.7,52.9,22.3,68.8,52.3c14.7,28,20.3,63,15.6,98.6
		c-4.6,35.7-19,68.1-40.3,91.4C669.7,418.5,645.4,430.3,620.5,430.3L620.5,430.3z M561.2,283.2c-3.7,28.4,0.5,55.9,11.8,77.3
		c10.3,19.5,25.1,31.3,41.7,33.4c16.6,2.2,34-5.5,48.8-21.7c16.5-17.9,27.5-43.4,31.2-71.8c3.7-28.4-0.5-55.8-11.8-77.3
		c-10.3-19.5-25.1-31.3-41.7-33.5c-16.6-2.2-34,5.5-48.9,21.7C575.9,229.3,564.8,254.8,561.2,283.2L561.2,283.2z M713,583.8
		c-27.7-48.4-59.1-85.9-93.1-111.5c-34.4-25.8-70.6-39-107.8-39.1h-0.5c-37.1,0-73.4,13-107.8,38.7C369.6,497.3,338,534.7,310,583
		c-18.3,31.5-26.3,66.9-23.3,102.5c2.8,33.1,15.3,64.3,35.3,88c33.8,40.2,83.5,53.2,132.7,34.9l40.2-14.9c10-3.7,20.7-3.7,30.7,0
		l43,15.9c14.7,5.4,29.3,8,43.6,8c33.6,0,65-14.7,88.7-42.6c20-23.6,32.5-54.8,35.4-88C739.1,650.9,731.2,615.4,713,583.8L713,583.8
		z M700.4,683.5c-2.2,25.8-11.8,50-27.1,68c-11.3,13.3-25.2,22.7-40.2,27.1c-16.5,4.8-34,3.8-52.2-2.9l-43-15.9
		c-8.9-3.3-18.3-5-27.7-5c-9.4,0-18.9,1.7-27.8,5l-40.2,14.9c-35,13-69,4.1-93-24.4c-15.2-18.1-24.8-42.2-26.9-68
		c-2.4-28.1,4.1-56.4,18.6-81.5c25.6-44,54-77.8,84.3-100.3c28.2-20.9,57.3-31.5,86.5-31.5h0.3c29.2,0.1,58.3,10.8,86.4,32
		c30.1,22.7,58.3,56.6,83.6,100.8C696.5,626.9,702.8,655.3,700.4,683.5L700.4,683.5z M700.4,683.5"/>
	
		<ellipse transform="matrix(0.9875 -0.1576 0.1576 0.9875 -41.0852 65.8637)" class="st0" cx="394.7" cy="292" rx="35.7" ry="51.3"/>
	<ellipse transform="matrix(0.1846 -0.9828 0.9828 0.1846 225.13 855.2554)" class="st0" cx="628" cy="292" rx="51.3" ry="35.7"/>
	
		<ellipse transform="matrix(0.6292 -0.7773 0.7773 0.6292 -65.5513 777.623)" class="st0" cx="782.2" cy="457.5" rx="22.5" ry="15.7"/>
	
		<ellipse transform="matrix(0.7964 -0.6048 0.6048 0.7964 -228.5217 239.541)" class="st0" cx="241.5" cy="459.1" rx="15.7" ry="22.5"/>
</g>
</svg>
