<?xml version="1.0" encoding="utf-8"?>
<!-- Generator: Adobe Illustrator 22.0.0, SVG Export Plug-In . SVG Version: 6.00 Build 0)  -->
<svg version="1.1" id="图层_1" xmlns="http://www.w3.org/2000/svg" xmlns:xlink="http://www.w3.org/1999/xlink" x="0px" y="0px"
	 viewBox="0 0 1024 1024" style="enable-background:new 0 0 1024 1024;" xml:space="preserve">
<style type="text/css">
	.st0{fill:#666666;}
	.st1{fill:none;}
</style>
<g>
	<path class="st0" d="M671.6,881.4c-9.2,0-18.5-3.3-25.9-10L298.3,534.5c-7.6-7.3-11.8-17.6-11.7-28.2c0.1-10.5,4.6-20.7,12.3-27.9
		l347.4-323.1c15.6-14.5,40.1-13.6,54.6,2c7,7.6,10.7,17.4,10.3,27.7c-0.4,10.3-4.7,19.9-12.3,26.9L381.3,507.4L699.6,816
		c14.5,15.1,14.4,38.7-0.2,53.7C691.8,877.5,681.7,881.4,671.6,881.4z M672.6,152.8c-7.5,0-15.1,2.7-21,8.3L304.2,484.2
		c-6.2,5.7-9.8,13.8-9.8,22.2c-0.1,8.4,3.3,16.6,9.3,22.5l347.4,336.8c12.3,11.1,31.1,10.4,42.7-1.5c11.6-12,11.7-30.7,0.2-42.8
		L370,507.2l323.6-301c6-5.6,9.5-13.2,9.8-21.5c0.3-8.2-2.6-16.1-8.2-22.1C689.1,156.1,680.8,152.8,672.6,152.8z"/>
	<path class="st0" d="M696.8,818.7L375.7,507.3l320.6-298.2c14-13.1,14.8-35.1,1.8-49.1c-13.1-14-35.1-14.8-49.1-1.8L301.6,481.4
		c-7,6.5-11,15.5-11.1,25.1c-0.1,9.5,3.7,18.7,10.5,25.3l347.4,336.8c13.9,12.5,35.2,11.8,48.2-1.6
		C709.6,853.5,709.7,832.2,696.8,818.7"/>
	<rect x="296.2" y="159" class="st1" width="406.4" height="709.8"/>
</g>
</svg>
