<?xml version="1.0" encoding="utf-8"?>
<!-- Generator: Adobe Illustrator 22.0.0, SVG Export Plug-In . SVG Version: 6.00 Build 0)  -->
<svg version="1.1" id="图层_1" xmlns="http://www.w3.org/2000/svg" xmlns:xlink="http://www.w3.org/1999/xlink" x="0px" y="0px"
	 viewBox="0 0 1024 1024" style="enable-background:new 0 0 1024 1024;" xml:space="preserve">
<style type="text/css">
	.st0{fill:#666666;}
</style>
<g>
	<path class="st0" d="M375.1,513.4c0,76.2,61.8,138,138,138c76.2,0,138-61.8,138-138s-61.8-138-138-138
		C436.9,375.3,375.1,437.1,375.1,513.4L375.1,513.4z M375.1,513.4"/>
	<path class="st0" d="M121.2,513.4c0,38.1,30.9,69,69,69s69-30.9,69-69c0-38.1-30.9-69-69-69S121.2,475.2,121.2,513.4L121.2,513.4z
		 M121.2,513.4"/>
	<path class="st0" d="M767.1,513.4c0,38.1,30.9,69,69,69c38.1,0,69-30.9,69-69c0-38.1-30.9-69-69-69
		C798,444.4,767.1,475.2,767.1,513.4L767.1,513.4z M767.1,513.4"/>
</g>
</svg>
