<?xml version="1.0" encoding="utf-8"?>
<!-- Generator: Adobe Illustrator 22.0.0, SVG Export Plug-In . SVG Version: 6.00 Build 0)  -->
<svg version="1.1" id="图层_1" xmlns="http://www.w3.org/2000/svg" xmlns:xlink="http://www.w3.org/1999/xlink" x="0px" y="0px"
	 viewBox="0 0 1024 1024" style="enable-background:new 0 0 1024 1024;" xml:space="preserve">
<style type="text/css">
	.st0{fill:#61C3F7;}
</style>
<g>
	<path class="st0" d="M374.6,512.7c0,75.9,61.5,137.4,137.4,137.4c75.9,0,137.4-61.5,137.4-137.4S587.8,375.3,512,375.3
		C436.1,375.3,374.6,436.8,374.6,512.7L374.6,512.7z M374.6,512.7"/>
	<path class="st0" d="M121.8,512.7c0,37.9,30.7,68.7,68.7,68.7s68.7-30.7,68.7-68.7c0-37.9-30.7-68.7-68.7-68.7
		S121.8,474.8,121.8,512.7L121.8,512.7z M121.8,512.7"/>
	<path class="st0" d="M764.7,512.7c0,37.9,30.7,68.7,68.7,68.7c37.9,0,68.7-30.7,68.7-68.7c0-37.9-30.7-68.7-68.7-68.7
		C795.5,444,764.7,474.8,764.7,512.7L764.7,512.7z M764.7,512.7"/>
</g>
</svg>
