<?xml version="1.0" encoding="utf-8"?>
<!-- Generator: Adobe Illustrator 22.0.0, SVG Export Plug-In . SVG Version: 6.00 Build 0)  -->
<svg version="1.1" id="图层_1" xmlns="http://www.w3.org/2000/svg" xmlns:xlink="http://www.w3.org/1999/xlink" x="0px" y="0px"
	 viewBox="0 0 1024 1024" style="enable-background:new 0 0 1024 1024;" xml:space="preserve">
<style type="text/css">
	.st0{fill:#D5E3EF;}
	.st1{fill:#4C4C4C;}
	.st2{fill:#61C3F7;}
</style>
<g>
	<path class="st0" d="M197.4,577.5c0,129,68.8,248.2,180.5,312.6c111.7,64.5,249.3,64.5,361,0c111.7-64.5,180.5-183.7,180.5-312.6
		c0-129-68.8-248.2-180.5-312.7c-111.7-64.5-249.3-64.5-361,0C266.2,329.4,197.4,448.5,197.4,577.5L197.4,577.5z M197.4,577.5"/>
	<path class="st1" d="M494.4,892.3c-210.8,0-381.6-170.9-381.6-381.6s170.9-381.6,381.6-381.6S876,299.9,876,510.7
		S705.2,892.3,494.4,892.3L494.4,892.3z M494.4,851.1c188,0,340.4-152.4,340.4-340.4c0-188-152.4-340.4-340.4-340.4
		c-188,0-340.4,152.4-340.4,340.4C154,698.7,306.4,851.1,494.4,851.1L494.4,851.1z M494.4,851.1"/>
	<path class="st1" d="M834.8,515.9c0,13.8-6.9,20.6-20.6,20.6h-30.9c-13.8,0-20.6-6.9-20.6-20.6c0-13.8,6.9-20.6,20.6-20.6h30.9
		C827.9,495.2,834.8,502.1,834.8,515.9L834.8,515.9z M834.8,515.9"/>
	<path class="st1" d="M222.4,521c0,13.8-6.9,20.6-20.6,20.6h-30.9c-13.8,0-20.6-6.9-20.6-20.6c0-13.8,6.9-20.6,20.6-20.6h30.9
		C215.5,500.4,222.4,507.3,222.4,521L222.4,521z M222.4,521"/>
	<path class="st2" d="M442.8,510.7c0,18.4,9.8,35.5,25.8,44.7c16,9.2,35.6,9.2,51.6,0c16-9.2,25.8-26.2,25.8-44.7
		c0-18.4-9.8-35.4-25.8-44.7c-16-9.2-35.6-9.2-51.6,0C452.7,475.3,442.8,492.3,442.8,510.7L442.8,510.7z M442.8,510.7"/>
	<path class="st2" d="M494.4,314.7c20.6,0,30.9,10.3,30.9,30.9v123.8c0,20.6-10.3,30.9-30.9,30.9c-20.6,0-30.9-10.3-30.9-30.9V345.7
		C463.5,325,473.8,314.7,494.4,314.7L494.4,314.7z M494.4,314.7"/>
	<path class="st2" d="M727.5,576.7c-2.7,10-9,13.6-19,10.9l-199.3-53.4c-10-2.7-13.6-9-10.9-19c2.7-10,9-13.6,19-10.9l199.3,53.4
		C726.6,560.4,730.2,566.8,727.5,576.7L727.5,576.7z M727.5,576.7"/>
	<path class="st1" d="M494.4,128.8c-210.8,0-381.8,170.9-381.8,381.8s170.9,381.8,381.8,381.8s381.8-170.9,381.8-381.8
		S705.2,128.8,494.4,128.8z M494.4,833.5c-178.4,0-322.9-144.6-322.9-322.9S316,187.6,494.4,187.6s322.9,144.6,322.9,322.9
		S672.8,833.5,494.4,833.5z"/>
</g>
</svg>
