<?xml version="1.0" encoding="utf-8"?>
<!-- Generator: Adobe Illustrator 22.0.0, SVG Export Plug-In . SVG Version: 6.00 Build 0)  -->
<svg version="1.1" id="图层_1" xmlns="http://www.w3.org/2000/svg" xmlns:xlink="http://www.w3.org/1999/xlink" x="0px" y="0px"
	 viewBox="0 0 1024 1024" style="enable-background:new 0 0 1024 1024;" xml:space="preserve">
<style type="text/css">
	.st0{fill:#D5E3EF;}
	.st1{fill:#4C4C4C;}
	.st2{fill:#61C3F7;}
</style>
<g>
	<g>
		<path class="st0" d="M400.1,716.8c-39.3,0-71.2,32.1-71.2,71.7v0.1c0.1,39.7,31.9,71.7,71.2,71.7c39.3,0,71.1-32.1,71.1-71.7
			C471.2,748.9,439.3,716.8,400.1,716.8z"/>
		<path class="st0" d="M743.1,716.8c-39.3,0-71.1,32.1-71.1,71.8c0,39.6,31.8,71.7,71.1,71.7c39.3,0,71.1-32.1,71.1-71.7
			C814.2,748.9,782.3,716.8,743.1,716.8z"/>
		<path class="st0" d="M902.8,544.2L839.2,430c-12.9-15.8-21.7-28.7-42.6-28.7H659.7v-86c0-15.8-12.8-28.7-28.5-28.7H243.6
			c-15.7,0-28.5,12.8-28.5,28.7v430.1c0.1,15.8,12.8,28.7,28.5,28.7h56.7c7-49.4,48.8-87.6,99.8-87.6c50.2,0.2,92.7,37.5,99.7,87.6
			h143.6c7-50.2,49.5-87.5,99.7-87.6c50.2,0.1,92.7,37.4,99.7,87.6h53.4c15.7,0,28.4-12.8,28.5-28.6V602.1
			C924.6,574.9,902.8,544.2,902.8,544.2z"/>
	</g>
	<path class="st1" d="M311.7,771.7c-33.1,0-60.3-25.3-63.5-57.5h-51.2c3.3,60.4,53.4,108.5,114.6,108.5S423,774.5,426.3,714.1h-51.2
		C372,746.4,344.7,771.7,311.7,771.7z"/>
	<path class="st1" d="M709.9,771.7c-33.1,0-60.3-25.3-63.5-57.5h-51.2c3.3,60.4,53.4,108.5,114.6,108.5s111.4-48.1,114.6-108.5
		h-51.2C770.2,746.4,742.9,771.7,709.9,771.7z"/>
	<path class="st1" d="M167.7,663.1h17.4c-3.7,0-6.6-3-6.6-6.6V259.3c0-3.7,3-6.6,6.6-6.6h352.6c3.7,0,6.6,3,6.6,6.6v35.5h51v-35.5
		c0-31.8-25.9-57.7-57.6-57.7H185.2c-31.8,0-57.7,25.9-57.7,57.7v397.2c0,31.8,25.9,57.7,57.7,57.7h5.5c-0.1-2.1-0.2-4.1-0.2-6.2
		C190.5,692,161.9,676.9,167.7,663.1z"/>
	<path class="st1" d="M537.7,663.1H379.1c5.9,13.8,9.1,28.9,9.1,44.8c0,2.1-0.1,4.2-0.2,6.2h149.7c2.2,0,4.5-0.2,6.6-0.4v-57.2
		C544.4,660.1,541.4,663.1,537.7,663.1z"/>
	<path class="st1" d="M867.6,441.9L762.2,318.6c-13-15.2-31.9-23.9-51.9-23.9H595.4v51h94.1h20.8c5.1,0,9.8,2.2,13.1,6l105.4,123.3
		c3.1,3.6,4.8,8.2,4.8,13v161.5c0,7.5-6.1,13.6-13.6,13.6h-4.4c5.9,13.8,9.1,28.9,9.1,44.8c0,2.1-0.1,4.2-0.2,6.2h8.3
		c35.6,0,51.9-29,51.9-64.6V488.1C884.6,471.1,878.6,454.8,867.6,441.9z"/>
	<path class="st1" d="M604.2,663.1h-8.8v-6.6c0,29.5-22.3,53.9-51,57.2v0.4h50.9c-0.1-2.1-0.2-4.1-0.2-6.2
		C595.1,692,598.3,676.9,604.2,663.1z"/>
	<path class="st1" d="M595.4,656.5V345.7v-51h-51v361.7v57.2C573,710.4,595.4,686,595.4,656.5z"/>
	<path class="st1" d="M311.7,593.1c-47.4,0-88.2,28.9-105.7,70h60.3c11.6-11.7,27.6-19,45.3-19s33.8,7.3,45.3,19h60.3
		C399.9,622,359.1,593.1,311.7,593.1z"/>
	<path class="st1" d="M247.9,707.9c0-17.4,7-33.3,18.4-44.8h-98.6c-5.9,13.8,22.8,28.9,22.8,44.8c0,2.1,0.1,4.2,0.2,6.2h57.5
		C248,712.1,247.9,710,247.9,707.9z"/>
	<path class="st1" d="M379.1,663.1H357c11.4,11.5,18.4,27.3,18.4,44.8c0,2.1-0.1,4.2-0.3,6.2H388c0.1-2.1,0.2-4.1,0.2-6.2
		C388.2,692,385,676.9,379.1,663.1z"/>
	<path class="st1" d="M709.9,593.1c-47.4,0-88.2,28.9-105.7,70h60.3c11.6-11.7,27.6-19,45.3-19c17.7,0,33.8,7.3,45.3,19h60.3
		C798.1,622,757.3,593.1,709.9,593.1z"/>
	<path class="st1" d="M815.6,663.1h-60.3c11.4,11.5,18.4,27.3,18.4,44.8c0,2.1-0.1,4.2-0.3,6.2h51.2c0.1-2.1,0.2-4.1,0.2-6.2
		C824.7,692,821.4,676.9,815.6,663.1z"/>
	<path class="st1" d="M646.1,707.9c0-17.4,7-33.3,18.4-44.8h-60.3c-5.9,13.8-9.1,28.9-9.1,44.8c0,2.1,0.1,4.2,0.2,6.2h51.2
		C646.2,712.1,646.1,710,646.1,707.9z"/>
	<polygon class="st2" points="371.1,407.1 425.9,407.1 295,564.4 338.6,453.6 289.9,453.6 338.6,322.8 433,322.8 	"/>
</g>
</svg>
