<?xml version="1.0" encoding="utf-8"?>
<!-- Generator: Adobe Illustrator 22.0.0, SVG Export Plug-In . SVG Version: 6.00 Build 0)  -->
<svg version="1.1" id="图层_1" xmlns="http://www.w3.org/2000/svg" xmlns:xlink="http://www.w3.org/1999/xlink" x="0px" y="0px"
	 viewBox="0 0 1024 1024" style="enable-background:new 0 0 1024 1024;" xml:space="preserve">
<style type="text/css">
	.st0{fill:#D5E3EF;}
	.st1{fill:#4C4C4C;}
	.st2{fill:#61C3F7;}
</style>
<g>
	<path class="st0" d="M715.4,847.3H388.7v-0.1l82.5,0V731.4c0-0.8,0.2-1.5,0.2-2.2c1.2-67.8,55.3-122.7,121.9-122.7
		S714,661.4,715.2,729.2c0,0.7,0.2,1.5,0.2,2.2V847.3z M807,338.2L610,206.3c-5.2-3.3-11.2-4.8-17.3-4.5c-5.9-0.2-11.8,1.3-16.8,4.5
		L240.7,430.7c-14.1,9.4-18,28.8-8.8,43.2c9.2,14.4,28.2,18.4,42.3,9l13.8-9.3v383c0,29.3,25.9,53.2,57.8,53.2h495
		c31.9,0,57.8-23.9,57.8-53.2V474l13.2,8.8c14.1,9.4,33,5.4,42.3-9c9.2-14.4,5.3-33.7-8.8-43.1v0L868.1,379L807,338.2z M945.3,430.6
		"/>
	<path class="st1" d="M763.9,803.2l-119.4,0V679.9c0-73.3-59.3-132.7-132.6-132.8c-73.1,0-132.6,59.6-132.6,132.8v123.2l-119.5,0
		c-7.3,0-13.2-5.9-13.2-13.2V362.3l264.9-173.6l265.6,173.9V790C777.1,797.3,771.2,803.2,763.9,803.2z M578.2,803.2l-132.6,0V679.9
		c0-36.7,29.7-66.5,66.3-66.5s66.3,29.8,66.3,66.5V803.2z M743.9,261.7L530,121.6c-5.6-3.5-12.2-5.2-18.8-4.8
		c-6.4-0.2-12.8,1.4-18.2,4.8L129,360.1c-15.3,10-19.6,30.6-9.6,45.9c10,15.3,30.6,19.6,45.9,9.6l15-9.8v407.2
		c0,39.2,7.8,56.6,62.8,56.6h537.5c50.7,0,62.8-14.6,62.8-56.6V406.1l14.4,9.4c15.3,10,35.9,5.7,45.9-9.6c10-15.3,5.7-35.9-9.6-45.9
		l0,0l-83.8-54.9L743.9,261.7z M894.1,360.1"/>
	<path class="st2" d="M511.9,545.8c-73.5,0-133.2,51.3-133.2,114.5v142.7H645V660.3C645,597,585.4,545.8,511.9,545.8z"/>
</g>
</svg>
