<?xml version="1.0" encoding="utf-8"?>
<!-- Generator: Adobe Illustrator 22.0.0, SVG Export Plug-In . SVG Version: 6.00 Build 0)  -->
<svg version="1.1" id="图层_1" xmlns="http://www.w3.org/2000/svg" xmlns:xlink="http://www.w3.org/1999/xlink" x="0px" y="0px"
	 viewBox="0 0 1024 1024" style="enable-background:new 0 0 1024 1024;" xml:space="preserve">
<style type="text/css">
	.st0{fill:#4C4C4C;}
</style>
<g>
	<path class="st0" d="M768.1,827.7l-121.7,0V702.1c0-74.6-60.5-135.2-135.1-135.3c-74.5,0-135.1,60.7-135.1,135.3v125.5l-121.7,0
		c-7.4,0-13.4-6-13.4-13.4V378.5L511,201.7l270.6,177.2v435.4C781.6,821.7,775.5,827.7,768.1,827.7z M578.9,827.7l-135.1,0V702.1
		c0-37.4,30.3-67.8,67.6-67.8s67.6,30.4,67.6,67.8V827.7z M747.8,276.1L529.8,133.3c-5.7-3.5-12.4-5.3-19.1-4.9
		c-6.5-0.3-13,1.5-18.6,4.9l-370.9,243c-15.6,10.2-20,31.2-9.7,46.8c10.2,15.6,31.2,20,46.8,9.7l15.3-10v414.9
		c0,39.9,7.9,57.6,63.9,57.6h547.7c51.7,0,63.9-14.8,63.9-57.6V423.2l14.6,9.6c15.6,10.2,36.5,5.8,46.7-9.8
		c10.2-15.6,5.8-36.5-9.8-46.7l0,0l-85.4-55.9L747.8,276.1z M900.7,376.3"/>
</g>
</svg>
