<?xml version="1.0" encoding="utf-8"?>
<!-- Generator: Adobe Illustrator 22.0.0, SVG Export Plug-In . SVG Version: 6.00 Build 0)  -->
<svg version="1.1" id="图层_1" xmlns="http://www.w3.org/2000/svg" xmlns:xlink="http://www.w3.org/1999/xlink" x="0px" y="0px"
	 viewBox="0 0 1024 1024" style="enable-background:new 0 0 1024 1024;" xml:space="preserve">
<style type="text/css">
	.st0{clip-path:url(#SVGID_2_);fill:#A0D9F6;}
	.st1{fill:#FCE9EA;}
	.st2{fill:#CFE07D;}
	.st3{fill:#FEFEFE;}
	.st4{fill:#7EA701;}
	.st5{fill:#F7B970;}
	.st6{fill:#FBCE77;}
</style>
<g>
	<g>
		<defs>
			<rect id="SVGID_1_" x="157.2" y="155.6" width="711.6" height="712.3"/>
		</defs>
		<clipPath id="SVGID_2_">
			<use xlink:href="#SVGID_1_"  style="overflow:visible;"/>
		</clipPath>
		<path class="st0" d="M513,155.6c-196.5,0-355.8,159.3-355.8,355.8c0,121,60.4,227.9,152.8,292.2c18-62.7,63.5-109.9,125.3-131.4
			c2.6-0.9,5.2-1.8,7.8-2.6c0.4-0.1,0.8-0.3,1.2-0.4c6.2-1.9,12.5-3.5,18.8-4.8c0.6-0.1,1.3-0.3,2-0.4c3.4-0.7,6.8-1.3,10.2-1.8
			c2.4-0.4,4.8-0.7,7.2-1c0.9-0.1,1.7-0.2,2.6-0.3c3.3-0.4,6.6-0.7,9.9-0.9H531c3.3,0.2,6.6,0.6,9.8,0.9c0.9,0.1,1.8,0.2,2.7,0.3
			c3.3,0.4,6.7,0.9,10,1.5c2.4,0.4,4.7,0.8,7.1,1.3c0.8,0.2,1.6,0.3,2.4,0.5c6.3,1.3,12.4,2.9,18.4,4.7c0.7,0.2,1.5,0.5,2.2,0.7
			c2.2,0.7,4.5,1.4,6.7,2.2c62.1,21.5,107.7,68.7,125.8,131.5c92.3-64.3,152.7-171.1,152.7-292.1C868.7,314.9,709.4,155.6,513,155.6
			L513,155.6z M513,659.8c-90.6,0-164.4-72-167.4-161.9c-0.1-0.1-0.2-0.1-0.3-0.2c-3.5-64.9,30.5-114.7,73.4-143.9
			c0.2-0.2,0.5-0.4,0.7-0.5c1.6-1.1,3.3-2.1,5-3.2c0.7-0.4,1.3-0.8,1.9-1.2c26.4-16.1,55.5-24.5,81.1-24c1.8-0.1,3.6-0.1,5.5-0.1
			c1.7,0,3.5,0.1,5.2,0.1c19.6-0.3,41.3,4.5,62.3,14c15.6,6.9,30.1,16.1,42.9,27.4c34.9,30,60.2,75,57.1,131.4l-0.1,0.1
			C677.4,587.7,603.6,659.8,513,659.8L513,659.8z M513,659.8"/>
	</g>
	<path class="st1" d="M418.7,353.8c0.2-0.2,0.5-0.4,0.7-0.5C419.2,353.5,419,353.7,418.7,353.8L418.7,353.8z M518.2,324.9
		c-1.7-0.1-3.4-0.1-5.2-0.1c-1.8,0-3.7,0.1-5.5,0.1c1.8,0,3.5,0.1,5.2,0.2C514.5,325,516.4,324.9,518.2,324.9L518.2,324.9z
		 M485.4,424.4c-32.2,56.5-86.7,106.5-139.7,73.5c3,89.9,76.7,161.9,167.4,161.9c90.7,0,164.4-72,167.4-162
		C636,525.4,519.9,485.4,485.4,424.4L485.4,424.4z M424.4,350.1c0.7-0.4,1.3-0.8,1.9-1.2C425.7,349.3,425.1,349.7,424.4,350.1
		L424.4,350.1z M580.4,339c15.5,7.1,30,16.3,42.9,27.4C610.5,355.1,596,345.9,580.4,339L580.4,339z M580.4,339"/>
	<path class="st2" d="M581.4,669.1c0.7,0.2,1.5,0.5,2.2,0.7C582.9,669.5,582.2,669.3,581.4,669.1L581.4,669.1z M463.2,664.4
		c0.6-0.1,1.3-0.3,2-0.4C464.5,664.1,463.8,664.2,463.2,664.4L463.2,664.4z M443.1,669.5c0.4-0.1,0.8-0.3,1.2-0.4
		C444,669.3,443.5,669.4,443.1,669.5L443.1,669.5z M590.3,671.9c0.5,0.2,1,0.4,1.5,0.5c-1.9,5.4-4.3,10.5-7.3,15.4
		c11.9,18.3,8.9,98.4-9,85.8l-31.3-22.1l-31.3-22l2.1-1.4c-0.7,0-1.4,0.1-2.1,0.1c-0.7,0-1.4,0-2.1-0.1l2.1,1.4l-31.3,22l-31.3,22.1
		c-18,12.6-21-67.7-9-85.9c-2.9-4.8-5.3-9.9-7.2-15.2c0.4-0.1,0.8-0.3,1.2-0.4C373.4,693.6,328,740.8,310,803.5
		c57.6,40.1,127.5,63.6,203,63.6c75.5,0,145.5-23.6,203.1-63.7C698,740.6,652.4,693.4,590.3,671.9L590.3,671.9z M560.7,663.9
		c0.8,0.2,1.6,0.3,2.4,0.5C562.3,664.2,561.5,664.1,560.7,663.9L560.7,663.9z M482.6,661.1c0.9-0.1,1.7-0.2,2.6-0.3
		C484.4,660.9,483.5,661,482.6,661.1L482.6,661.1z M540.8,660.8c0.9,0.1,1.8,0.2,2.7,0.3C542.7,661,541.8,660.9,540.8,660.8
		L540.8,660.8z M540.8,660.8"/>
	<path class="st3" d="M441.3,687.7c2.4-3.6,5.4-4.8,9-2.3l31.3,22.1l29.2,20.5c0.7,0,1.4,0.1,2.1,0.1c0.7,0,1.4,0,2.1-0.1l29.2-20.6
		l31.3-22.1c3.6-2.5,6.6-1.3,9,2.4c2.9-4.9,5.4-10,7.3-15.4l-1.5-0.5c-2.2-0.8-4.4-1.5-6.7-2.2c-0.7-0.2-1.5-0.5-2.2-0.7
		c-6.1-1.8-12.2-3.4-18.4-4.7c-0.8-0.2-1.6-0.3-2.4-0.5c-5.7-1.1-11.3-2.1-17.1-2.8c-0.9-0.1-1.8-0.2-2.7-0.3
		c-3.3-0.4-6.5-0.7-9.8-0.9h-35.9c-3.3,0.3-6.6,0.6-9.9,0.9c-0.9,0.1-1.7,0.2-2.6,0.3c-5.9,0.7-11.7,1.7-17.5,2.8
		c-0.7,0.1-1.3,0.3-2,0.4c-6.3,1.3-12.6,2.9-18.8,4.8c-0.4,0.1-0.8,0.3-1.2,0.4c-2.6,0.8-5.2,1.7-7.8,2.6c-0.4,0.1-0.8,0.3-1.2,0.4
		C436,677.8,438.4,682.9,441.3,687.7L441.3,687.7z M441.3,687.7"/>
	<path class="st4" d="M575.6,685.5l-31.3,22.1L515,728.1l-2.1,1.4l31.3,22l31.3,22.1c17.9,12.6,20.9-67.4,9-85.8
		C582.2,684.1,579.2,682.9,575.6,685.5L575.6,685.5z M450.3,685.5c-3.6-2.5-6.6-1.3-9,2.3c-12,18.2-9.1,98.5,9,85.9l31.3-22.1
		l31.3-22l-2.1-1.4l-29.2-20.5L450.3,685.5z M450.3,685.5"/>
	<path class="st5" d="M485.4,424.4c34.5,61,150.7,100.9,195,73.4l0.1-0.1c3.1-56.4-22.2-101.4-57.1-131.4
		c-12.9-11.1-27.4-20.3-42.9-27.4c-21-9.5-42.6-14.4-62.3-14c-1.8,0-3.6,0.1-5.4,0.2C518.5,345.6,507,386.5,485.4,424.4L485.4,424.4
		z M485.4,424.4"/>
	<path class="st6" d="M485.4,424.4c21.6-37.9,33.2-78.8,27.4-99.3c-1.7-0.1-3.5-0.2-5.2-0.2c-25.6-0.5-54.7,7.9-81.1,24
		c-0.7,0.4-1.3,0.8-1.9,1.2c-1.7,1-3.3,2.1-5,3.2c-0.3,0.2-0.5,0.3-0.7,0.5c-42.9,29.1-76.9,79-73.4,143.9c0.1,0.1,0.2,0.1,0.3,0.2
		C398.6,530.9,453.2,480.9,485.4,424.4L485.4,424.4z M485.4,424.4"/>
</g>
</svg>
