<?xml version="1.0" encoding="utf-8"?>
<!-- Generator: Adobe Illustrator 22.0.0, SVG Export Plug-In . SVG Version: 6.00 Build 0)  -->
<svg version="1.1" id="图层_1" xmlns="http://www.w3.org/2000/svg" xmlns:xlink="http://www.w3.org/1999/xlink" x="0px" y="0px"
	 viewBox="0 0 1024 1024" style="enable-background:new 0 0 1024 1024;" xml:space="preserve">
<style type="text/css">
	.st0{clip-path:url(#SVGID_2_);fill:#A0D9F6;}
	.st1{fill:#FCBA6F;}
	.st2{fill:#FCE9EA;}
	.st3{fill:#FECF77;}
	.st4{fill:#F4B3B3;}
	.st5{fill:#FEFEFE;}
</style>
<g>
	<g>
		<defs>
			<rect id="SVGID_1_" x="158.2" y="158" width="709.7" height="710.4"/>
		</defs>
		<clipPath id="SVGID_2_">
			<use xlink:href="#SVGID_1_"  style="overflow:visible;"/>
		</clipPath>
		<path class="st0" d="M512.6,158.6c-195.8,0-354.5,158.7-354.5,354.5c0,120.6,60.2,227.1,152.2,291.1c0.4-1.4,0.8-2.7,1.2-4.1
			c0.3-0.8,0.5-1.7,0.8-2.5c0.9-2.9,1.9-5.7,2.9-8.5c0.1-0.2,0.1-0.3,0.2-0.5c1-2.6,2-5.2,3.1-7.7c0.4-0.8,0.7-1.7,1.1-2.5
			c2.1-4.7,4.3-9.3,6.7-13.8c0.4-0.8,0.8-1.6,1.3-2.4c1.4-2.5,2.8-5,4.3-7.4c0.2-0.3,0.4-0.7,0.7-1c1.3-2.1,2.6-4.1,4-6.2
			c0.6-0.9,1.2-1.8,1.8-2.6c1.7-2.4,3.5-4.8,5.3-7.2c1.1-1.3,2.1-2.7,3.2-4c0.8-0.9,1.5-1.8,2.3-2.7c1.3-1.6,2.7-3.1,4.1-4.6
			c1.1-1.2,2.3-2.4,3.4-3.6c1.2-1.3,2.4-2.5,3.7-3.7c1-1,2-2,3.1-2.9c2.1-2,4.3-3.9,6.4-5.8l0,0c17-14.6,36.8-26.3,58.7-34.8
			c1-0.4,2-0.8,3-1.1c1.7-0.6,3.4-1.2,5.2-1.8c1.1-0.4,2.2-0.7,3.2-1.1c1.7-0.6,3.5-1.1,5.2-1.6c1.1-0.3,2.2-0.6,3.2-0.9
			c3.1-0.9,6.2-1.6,9.3-2.4c1.4-0.3,2.8-0.7,4.2-1c1.5-0.3,3.1-0.6,4.6-0.9c1.6-0.3,3.1-0.6,4.7-0.9c3.3-0.6,6.6-1.1,9.9-1.5
			c1.3-0.2,2.5-0.3,3.8-0.5c3.2-0.4,6.3-0.7,9.5-0.9h35.8c3.3,0.2,6.5,0.6,9.8,0.9c0.9,0.1,1.8,0.2,2.7,0.3c2.3,0.3,4.7,0.6,7,1
			c3.3,0.5,6.7,1.1,10,1.8c0.8,0.2,1.6,0.3,2.4,0.5c6.2,1.3,12.3,2.8,18.3,4.6c0.7,0.2,1.5,0.5,2.2,0.7c3.1,1,6.2,2,9.2,3.1
			c2.2,0.8,4.3,1.6,6.4,2.4c20.7,8.2,39.3,19.4,55.6,33.1v-0.1c0.5,0.5,1.1,0.9,1.6,1.4c2.2,1.9,4.4,3.9,6.6,6
			c0.7,0.7,1.4,1.3,2.1,2c1.8,1.7,3.5,3.5,5.2,5.3c0.3,0.3,0.6,0.6,0.9,0.9c1.8,2,3.7,4,5.4,6.1c0.7,0.8,1.3,1.6,2,2.4
			c1.2,1.4,2.3,2.8,3.4,4.3c1.8,2.3,3.5,4.6,5.2,7c0.7,0.9,1.3,1.8,2,2.8c1.2,1.8,2.4,3.5,3.5,5.3c1.9,2.9,3.6,5.9,5.3,8.9
			c0.6,1.1,1.2,2.2,1.8,3.4c0.8,1.4,1.5,2.8,2.2,4.3c1.3,2.6,2.5,5.2,3.7,7.8c0.6,1.3,1.2,2.6,1.7,4c0.6,1.4,1.1,2.8,1.7,4.1
			c1,2.6,2,5.2,2.9,7.9c0.4,1.2,0.8,2.3,1.2,3.5c0.6,1.7,1.1,3.4,1.6,5.1c0.2,0.7,0.4,1.4,0.6,2.1l0,0v0
			c91.9-64.1,152.1-170.5,152.1-291.1C867.1,317.3,708.3,158.6,512.6,158.6L512.6,158.6z M666.3,559.2
			C640.9,619.1,581.6,661,512.6,661c-68.9,0-128.1-41.8-153.6-101.5c-9,44.7-63.2,83.4-96,70.2c22.3-22,3.5-131.9,82.7-131
			c-5.6-109.8,96.3-176.4,166.8-171.5c70.7-4.8,172.8,61.7,167.2,171.5c78.9-0.8,60.2,109.3,82.4,131.3
			C729.3,643.4,675,604.2,666.3,559.2L666.3,559.2z M666.3,559.2"/>
	</g>
	<path class="st1" d="M679.7,498.7c5.7-109.8-96.4-176.4-167.2-171.5v79.1c16.9,71.5,117.9,123.2,166.8,93.1
		c-0.7,21.2-5.2,41.4-13.1,59.9c8.7,44.9,63.1,84.1,95.9,70.8C739.9,608,758.6,497.9,679.7,498.7L679.7,498.7z M679.7,498.7"/>
	<path class="st2" d="M512.6,406.3c-16.8,71.6-118.1,123.5-166.8,92.9c0.6,21.4,5.3,41.7,13.2,60.4C384.4,619.2,443.6,661,512.6,661
		c69.1,0,128.3-42,153.7-101.8c7.8-18.5,12.4-38.7,13.1-59.9C630.5,529.5,529.4,477.7,512.6,406.3L512.6,406.3z M512.6,406.3"/>
	<path class="st3" d="M512.6,406.3v-79.1c-70.6-4.8-172.4,61.7-166.8,171.5c-79.2-0.9-60.4,109-82.7,131c32.8,13.2,87-25.6,96-70.2
		c-7.9-18.6-12.6-39-13.2-60.4C394.5,529.7,495.7,477.9,512.6,406.3L512.6,406.3z M512.6,406.3"/>
	<path class="st4" d="M676.1,731.3c0.7,0.8,1.3,1.6,2,2.4C677.4,732.9,676.7,732.1,676.1,731.3L676.1,731.3z M686.7,745
		c0.7,0.9,1.3,1.9,2,2.8C688,746.8,687.3,745.9,686.7,745L686.7,745z M662.4,716.9c0.7,0.7,1.4,1.3,2.1,2
		C663.8,718.2,663.1,717.5,662.4,716.9L662.4,716.9z M669.8,724.2c0.3,0.3,0.6,0.6,0.9,0.9C670.4,724.9,670.1,724.6,669.8,724.2
		L669.8,724.2z M669.8,830.9c15.7-7.8,30.8-16.7,45.2-26.7v0C700.6,814.2,685.5,823.1,669.8,830.9L669.8,830.9z M654.2,709.6
		c-16.2-13.7-34.9-24.9-55.6-33.1l0.3,0.1v92.8h-174v-92.2c1.3-0.5,2.6-1,3.9-1.5c-22,8.4-41.7,20.2-58.7,34.8v127.2
		c-4.9-2.1-9.7-4.4-14.5-6.7c47.3,23.4,100.7,36.6,157.1,36.6c56.4,0,109.7-13.2,157.1-36.6c-5.1,2.5-10.2,4.9-15.4,7.1V709.6z
		 M705.2,777.4c0.6,1.3,1.2,2.6,1.7,4C706.4,780.1,705.8,778.7,705.2,777.4L705.2,777.4z M697.5,762c0.6,1.1,1.2,2.2,1.8,3.3
		C698.7,764.2,698.1,763.1,697.5,762L697.5,762z M712.7,796.9c0.6,1.7,1.1,3.4,1.6,5.1C713.8,800.3,713.3,798.6,712.7,796.9
		L712.7,796.9z M332,754.9c0.2-0.3,0.4-0.7,0.7-1C332.4,754.2,332.2,754.5,332,754.9L332,754.9z M336.6,747.7
		c0.6-0.9,1.2-1.8,1.8-2.6C337.9,745.9,337.2,746.8,336.6,747.7L336.6,747.7z M326.4,764.6c0.4-0.8,0.8-1.6,1.3-2.4
		C327.2,763,326.8,763.8,326.4,764.6L326.4,764.6z M540.3,662c0.9,0.1,1.8,0.2,2.7,0.3C542.2,662.3,541.3,662.1,540.3,662L540.3,662
		z M462.1,665.8c1.5-0.3,3.1-0.6,4.6-0.9C465.2,665.1,463.6,665.4,462.1,665.8L462.1,665.8z M481.4,662.5c1.3-0.2,2.5-0.3,3.8-0.5
		C483.9,662.1,482.7,662.3,481.4,662.5L481.4,662.5z M360.5,719.2c1-1,2-2,3.1-2.9C362.5,717.2,361.5,718.2,360.5,719.2L360.5,719.2
		z M347,733.9c0.8-0.9,1.5-1.8,2.3-2.7C348.5,732.1,347.8,733,347,733.9L347,733.9z M440.1,671.6c1.7-0.6,3.5-1.1,5.2-1.6
		C443.6,670.5,441.9,671.1,440.1,671.6L440.1,671.6z M315.2,789.1c0.1-0.2,0.1-0.3,0.2-0.5C315.3,788.8,315.3,789,315.2,789.1
		L315.2,789.1z M580.8,670.2c0.7,0.2,1.5,0.5,2.2,0.7C582.3,670.7,581.5,670.5,580.8,670.2L580.8,670.2z M560.1,665.1
		c0.8,0.2,1.6,0.3,2.4,0.5C561.7,665.4,560.9,665.3,560.1,665.1L560.1,665.1z M589.6,673.1c0.9,0.3,1.7,0.6,2.6,0.9L589.6,673.1z
		 M311.5,800.1c0.3-0.8,0.5-1.7,0.8-2.5C312,798.5,311.8,799.3,311.5,800.1L311.5,800.1z M318.5,780.9c0.4-0.8,0.7-1.7,1.1-2.5
		C319.2,779.2,318.9,780.1,318.5,780.9L318.5,780.9z M318.5,780.9"/>
	<path class="st5" d="M424.9,769.4h174v-92.8l-0.3-0.1c-3-1.2-6-2.3-9-3.3c-2.2-0.8-4.4-1.5-6.6-2.2c-0.7-0.2-1.5-0.5-2.2-0.7
		c-6-1.8-12.1-3.4-18.3-4.6c-0.8-0.2-1.6-0.3-2.4-0.5c-3.3-0.7-6.6-1.3-10-1.8c-2.3-0.4-4.7-0.7-7-1c-0.9-0.1-1.8-0.2-2.7-0.3
		c-3.3-0.4-6.5-0.7-9.8-0.9h-35.8c-3.2,0.2-6.4,0.6-9.5,0.9c-1.3,0.1-2.5,0.3-3.8,0.5c-3.3,0.4-6.6,0.9-9.9,1.5
		c-1.6,0.3-3.2,0.6-4.7,0.9c-1.6,0.3-3.1,0.6-4.6,0.9c-1.4,0.3-2.8,0.6-4.2,1c-3.1,0.7-6.2,1.5-9.3,2.4c-1.1,0.3-2.2,0.6-3.2,0.9
		c-1.8,0.5-3.5,1.1-5.2,1.6c-1.1,0.3-2.2,0.7-3.2,1.1c-1.7,0.6-3.5,1.2-5.2,1.8c-1,0.4-2,0.8-3,1.1c-1.3,0.5-2.6,1-3.9,1.5
		L424.9,769.4L424.9,769.4z M512.6,687.2c5.8,0,10.5,4.7,10.6,10.5c0,5.8-4.7,10.6-10.6,10.6c-5.8,0-10.5-4.7-10.5-10.6
		C502,691.9,506.7,687.2,512.6,687.2L512.6,687.2z M512.6,725.5c5.8,0,10.6,4.7,10.6,10.5c0,5.8-4.7,10.6-10.6,10.6
		c-5.8,0-10.6-4.7-10.6-10.6C502,730.2,506.7,725.5,512.6,725.5L512.6,725.5z M370,710.4L370,710.4c-1.2,1-2.3,2-3.4,3
		c-1,0.9-2,1.9-3.1,2.8c-1,1-2.1,1.9-3.1,2.9c-1.2,1.2-2.4,2.5-3.7,3.7c-2.6,2.7-5.1,5.4-7.6,8.3c-0.8,0.9-1.5,1.8-2.3,2.7
		c-1.9,2.2-3.6,4.5-5.4,6.8c-1.1,1.4-2.1,2.9-3.2,4.3c-0.6,0.9-1.2,1.7-1.8,2.6c-1.4,2-2.7,4.1-4,6.2c-0.2,0.3-0.4,0.7-0.7,1
		c-1.5,2.4-2.9,4.9-4.3,7.4c-0.4,0.8-0.8,1.6-1.3,2.4c-2.4,4.5-4.7,9.1-6.7,13.8c-0.4,0.8-0.7,1.7-1.1,2.5c-1.1,2.6-2.1,5.1-3.1,7.7
		c-0.1,0.2-0.1,0.3-0.2,0.5c-1,2.8-2,5.6-2.9,8.5c-0.3,0.8-0.5,1.7-0.8,2.5c-0.4,1.3-0.9,2.7-1.2,4l0.8,0.6
		c6.8,4.7,13.8,9.2,21,13.5l0.5,0.3c7.5,4.4,15.2,8.6,22.9,12.4c4.8,2.4,9.6,4.6,14.5,6.7V710.4z M715,804.1
		c-0.2-0.7-0.4-1.4-0.6-2.1c-0.5-1.7-1-3.4-1.6-5.1c-0.4-1.2-0.8-2.3-1.2-3.5c-0.9-2.7-1.9-5.3-2.9-7.9c-0.5-1.4-1.1-2.8-1.7-4.1
		c-0.6-1.3-1.2-2.6-1.7-4c-1.2-2.6-2.4-5.2-3.7-7.8c-0.7-1.4-1.5-2.8-2.2-4.3c-0.6-1.1-1.2-2.2-1.8-3.4c-1.7-3-3.5-6-5.3-8.9
		c-1.1-1.8-2.3-3.6-3.5-5.3c-0.6-0.9-1.3-1.9-2-2.8c-1.7-2.4-3.4-4.7-5.2-7c-1.1-1.4-2.3-2.9-3.4-4.3c-0.7-0.8-1.3-1.6-2-2.4
		c-1.8-2.1-3.6-4.1-5.4-6.1l-0.9-0.9c-1.7-1.8-3.5-3.6-5.2-5.3c-0.7-0.7-1.4-1.4-2.1-2c-2.1-2-4.3-4-6.6-6c-0.5-0.5-1.1-0.9-1.6-1.4
		v128.6c5.2-2.3,10.4-4.7,15.6-7.2C685.5,823.1,700.6,814.1,715,804.1C714.9,804.1,715,804.1,715,804.1L715,804.1z M715,804.1"/>
	<path class="st4" d="M502,697.7c0,3.8,2,7.3,5.3,9.1c3.3,1.9,7.3,1.9,10.6,0c3.3-1.9,5.3-5.4,5.3-9.1c0-3.8-2-7.3-5.3-9.1
		c-3.3-1.9-7.3-1.9-10.6,0C504,690.5,502,694,502,697.7L502,697.7z M502,697.7"/>
	<path class="st4" d="M502,736c0,3.8,2,7.2,5.3,9.1c3.3,1.9,7.3,1.9,10.6,0c3.3-1.9,5.3-5.4,5.3-9.1c0-3.8-2-7.3-5.3-9.1
		c-3.3-1.9-7.3-1.9-10.6,0C504,728.7,502,732.2,502,736L502,736z M502,736"/>
</g>
</svg>
