<?xml version="1.0" encoding="utf-8"?>
<!-- Generator: Adobe Illustrator 22.0.0, SVG Export Plug-In . SVG Version: 6.00 Build 0)  -->
<svg version="1.1" id="图层_1" xmlns="http://www.w3.org/2000/svg" xmlns:xlink="http://www.w3.org/1999/xlink" x="0px" y="0px"
	 viewBox="0 0 1024 1024" style="enable-background:new 0 0 1024 1024;" xml:space="preserve">
<style type="text/css">
	.st0{fill:#666666;}
</style>
<g>
	<g>
		<path class="st0" d="M513,533.8c-74.9,0-135.8-60.9-135.8-135.8c0-74.9,60.9-135.8,135.8-135.8c74.9,0,135.8,60.9,135.8,135.8
			C648.8,472.8,587.9,533.8,513,533.8z M513,315.6c-45.5,0-82.5,37-82.5,82.4c0,45.5,37,82.5,82.5,82.5s82.5-37,82.5-82.4
			C595.5,352.6,558.5,315.6,513,315.6z"/>
		<path class="st0" d="M513,530.2c72.9,0,132.2-59.3,132.2-132.2c0-72.9-59.3-132.2-132.2-132.2c-72.9,0-132.2,59.3-132.2,132.2
			C380.8,470.9,440.1,530.2,513,530.2L513,530.2z M513,312c47.5,0,86.1,38.6,86.1,86.1c0,47.5-38.6,86-86.1,86
			c-47.5,0-86.1-38.6-86.1-86.1C426.9,350.5,465.5,312,513,312L513,312z M513,312"/>
		<path class="st0" d="M513,866.5c-93.3,0-181-35.8-247.3-100.9l-1.1,1.8l-24.2-29.1L228.5,724l0.2-0.5
			c-45-60.7-69.8-135.5-69.8-211c0-195.2,158.8-354,354-354s354,158.8,354,354c0,75.4-24.7,150.2-69.7,211l0.2,0.5l-11.9,14.3
			l-24.2,29.1l-1.1-1.8C694,830.7,606.3,866.5,513,866.5z M294.2,718.4c3.4,3.6,6.6,6.8,9.6,9.7c0.8,0.8,1.7,1.6,2.5,2.4l1.4,1.2
			c2.6,2.4,5.3,5,8,7.3c0.8,0.7,1.5,1.3,2.3,2c0.8,0.7,1.7,1.4,2.5,2.1c2.5,2.1,5,4.2,7.6,6.3c1.7,1.3,3.5,2.7,5.2,3.9l1.9,1.4
			c1.9,1.4,3.7,2.8,5.7,4.2c1.8,1.3,3.7,2.5,5.5,3.7l3,2c1.6,1,3.1,2.1,4.7,3.1c2,1.3,4,2.4,5.9,3.6c2.6,1.5,5.2,3.1,7.8,4.5
			c2.1,1.2,4.2,2.3,6.2,3.3c2.6,1.3,5.2,2.7,7.9,3.9l6.5,3l8.1,3.5l6.6,2.7c2.6,1.1,5.4,2,8.2,3l1.5,0.5c1.7,0.6,3.4,1.2,5.2,1.8
			c3.3,1.1,6,2,8.5,2.7c2.4,0.8,4.6,1.4,6.8,2c2.5,0.7,5.1,1.4,7.7,2l3.4,0.8c1.5,0.4,2.9,0.7,4.4,1c3.2,0.7,6.1,1.3,9.1,1.8
			l0.9,0.2c2,0.4,3.9,0.8,5.8,1.1c2.2,0.4,4.4,0.7,6.5,0.9l9.5,1.2c3.4,0.3,6.9,0.6,10.3,0.9l0.8,0.1c1.6,0.2,3.2,0.3,4.9,0.4
			c3,0.2,6,0.3,8.9,0.3c2.5,0,4.7-0.1,6.8-0.3c5.2,0,10.3-0.2,16.6-0.5c0.9,0,1.7-0.1,2.6-0.2c1-0.1,1.9-0.2,2.9-0.2
			c3.5-0.3,7.1-0.5,10.7-0.9c1.4-0.1,2.7-0.3,4.1-0.5c0.8-0.1,5.3-0.7,5.3-0.7c2.2-0.3,4.4-0.6,6.6-0.9c2.3-0.4,4.5-0.8,6.7-1.3
			c3.1-0.6,6.1-1.1,9.1-1.7c1.6-0.3,3.1-0.7,4.6-1.1l2.2-0.5c1-0.3,2.1-0.5,3.3-0.8c1.7-0.4,3.5-0.9,5.3-1.4c2.4-0.6,4.6-1.3,6.9-2
			c2.5-0.7,5-1.5,7.5-2.3l0.9-0.3c2.2-0.7,4.3-1.5,6.5-2.2l0.4-0.1c2.7-1,5.4-2,8.1-3.1c1.6-0.6,3-1.2,4.5-1.8l2.4-1
			c2.6-1,5.2-2.2,7.7-3.3l1.9-0.9c1.6-0.7,3.3-1.5,4.8-2.3c2.6-1.3,5.2-2.5,7.8-3.9c0.9-0.5,1.8-0.9,2.6-1.4c1.3-0.7,2.5-1.3,3.8-2
			c1.8-0.9,3.5-1.9,5.1-2.9l2.5-1.5c1.5-0.8,2.9-1.7,4.3-2.6l1.8-1.1c2.5-1.6,5-3.2,7.5-4.8l2.3-1.5c1.2-0.8,2.4-1.6,3.5-2.4
			c1.9-1.3,3.7-2.6,5.5-4l7.4-5.6c2.5-1.9,5-4,7.4-6.1l1.7-1.4c1.1-0.9,2.1-1.7,3.2-2.6c2.5-2.3,5.1-4.6,7.6-7l0.3-0.3
			c0.6-0.6,1.3-1.3,2.1-1.9c0.6-0.6,1.3-1.1,1.9-1.7c3.3-3.2,6.5-6.5,9.5-9.8l-0.6-0.9c-1-1.5-2-2.9-3-4.2c-0.6-0.9-1.3-1.9-2-2.7
			c-1.1-1.5-2.1-2.8-3-4c0,0-4.9-6-5.4-6.7c-0.7-0.8-1.4-1.8-2.2-2.6c-0.5-0.6-1.1-1.2-1.6-1.9c-0.5-0.6-1-1.2-1.5-1.7l-2.5-2.8
			l-3.3-3.5c-0.8-0.8-1.7-1.7-2.6-2.7l-3.3-3.2l-0.9-1c-0.5-0.5-1-1.1-1.6-1.6c-1.2-1.2-2.4-2.3-3.5-3.3l-2.7-2.4l-0.6-0.5
			c-1.1-0.9-2.1-1.8-3.1-2.7c-0.4-0.4-0.9-0.8-1.3-1.1c-0.5-0.4-0.9-0.8-1.4-1.2c-0.5-0.4-1.1-0.9-1.8-1.5c-0.6-0.5-1.2-1-1.8-1.5
			c-0.6-0.4-1.3-1-1.9-1.5l-0.9-0.8c-0.6-0.5-3.3-2.5-3.9-3c-0.4-0.4-0.9-0.7-1.3-1c-0.5-0.4-1-0.7-1.5-1.1l-4-2.9
			c-0.8-0.6-1.7-1.2-2.5-1.8c-1.6-1.1-3-2.1-4.5-3.1l-2.5-1.7c-0.8-0.5-1.7-1.1-2.7-1.7c-0.9-0.5-1.7-1.1-2.6-1.6c0,0-1.6-1-1.9-1.2
			c-5.6-3.4-10.1-6-14.4-8.2c-0.9-0.5-1.5-0.8-2.1-1.1c0,0-4.4-2.3-5.4-2.8l-2.8-1.3c-1.6-0.8-3.1-1.5-4.7-2.2l-3.1-1.4
			c-1.5-0.8-3-1.4-4.5-2l-4.3-1.8c-1.1-0.5-2.2-0.9-3.4-1.3c-0.6-0.2-2.9-1.1-3.6-1.3l-0.5-0.2c-1.2-0.5-2.5-0.9-3.8-1.4
			c-0.5-0.1-1.1-0.3-1.6-0.5c-0.6-0.2-1.2-0.4-1.8-0.6c-0.8-0.2-1.6-0.5-2.4-0.8c-0.7-0.2-1.4-0.5-2.2-0.7l-3.6-1.1
			c-0.7-0.2-3.7-1-4.5-1.3c-0.6-0.2-1.1-0.3-1.7-0.5c-0.7-0.2-1.3-0.3-2-0.5c-1.4-0.4-2.8-0.8-4.3-1.1c-1.4-0.4-2.5-0.6-3.7-0.9
			c-0.9-0.2-1.7-0.4-2.5-0.5c-0.7-0.1-1.4-0.3-2.2-0.5c-0.8-0.1-1.9-0.3-3-0.6l-0.7-0.1l-4.5-0.8c-0.6-0.1-1.2-0.2-1.9-0.3
			c-0.6-0.1-1.1-0.2-1.7-0.3c-0.8-0.1-1.6-0.2-2.3-0.4c-0.9-0.1-1.7-0.3-2.6-0.4l-3.6-0.5l-4.8-0.5c-0.5,0-1.1-0.1-1.7-0.2
			c-0.6-0.1-1.1-0.1-1.7-0.2c-1.8-0.2-3.5-0.4-5.1-0.5l-3.5-0.3c0,0-5.7-0.3-5.7-0.3c-0.4,0-0.9,0-1.4,0c-0.4,0-0.8,0-1.3,0l-0.7,0
			c-2.6-0.1-5.2-0.2-7.9-0.2c-2.7,0-5.4,0.1-8.1,0.2l-0.4,0c-0.5,0-0.9,0-1.3,0c-0.5,0-1.1,0.1-1.7,0.1l-5.6,0.3l-3.3,0.3
			c-0.8,0.1-1.7,0.2-2.6,0.2c-0.9,0.1-1.7,0.1-2.6,0.2c-0.7,0.1-1.2,0.1-1.8,0.2c-0.6,0.1-1.2,0.1-1.8,0.2l-4.8,0.5l-3.5,0.5
			c-0.8,0.1-1.6,0.3-2.5,0.4c-0.7,0.1-1.5,0.2-2.2,0.3c-0.7,0.1-1.3,0.2-1.8,0.3c-0.7,0.1-1.3,0.2-2,0.3l-4.5,0.8
			c-1.1,0.2-2.1,0.4-3,0.6l-0.6,0.1c-0.7,0.2-1.6,0.4-2.4,0.5c-0.7,0.1-1.4,0.3-2,0.4c-0.6,0.1-3.1,0.8-3.7,0.9
			c-0.7,0.2-1.5,0.4-2.2,0.6c-0.8,0.2-1.6,0.4-2.4,0.6c-0.4,0.1-1.1,0.3-1.8,0.5c-0.6,0.1-1.1,0.3-1.7,0.5c-1.7,0.4-3.2,0.8-4.5,1.3
			l-3.6,1.1c-0.9,0.3-1.9,0.6-2.7,0.9l-1.8,0.6l-1.3,0.5c-0.7,0.2-1.4,0.5-2.1,0.7c-1.4,0.5-2.9,1-4.4,1.6c-0.5,0.2-1.1,0.4-1.6,0.6
			c-0.6,0.2-1.2,0.4-1.7,0.6c-0.8,0.3-3.8,1.5-4.6,1.8l-3.3,1.4l-1.6,0.7c-1,0.4-2,0.9-3,1.3c0,0-2.4,1.1-3,1.3
			c-0.8,0.4-1.6,0.7-2.4,1.1c-0.8,0.4-1.7,0.8-2.5,1.2c-0.8,0.4-1.6,0.8-2.4,1.1l-0.3,0.2c-1.5,0.8-3,1.5-4.5,2.3l-0.8,0.4
			c-0.6,0.4-1.4,0.8-2.2,1.2c-5.3,2.8-10.5,5.9-14.4,8.3c-0.2,0.1-1.6,1-1.6,1c-1.9,1.2-3.7,2.2-5.3,3.3l-2.5,1.7l-4.4,3.1l-2.7,1.9
			l-4.1,3c-1.1,0.7-1.9,1.4-2.7,2c-1.4,1.1-2.7,2-3.9,3c-0.7,0.5-1.3,1-1.8,1.4l-1,0.8c-1.1,0.9-2.2,1.8-3.2,2.7l-0.4,0.4
			c-0.9,0.8-1.8,1.5-2.6,2.3c-0.6,0.5-1.2,1.1-1.8,1.6c-0.6,0.5-1.2,1-1.7,1.6c-0.9,0.9-1.8,1.7-2.8,2.6c-0.5,0.5-2.8,2.7-3.4,3.3
			c-0.4,0.4-1,1-1.6,1.7l-0.9,0.9c-0.9,0.8-1.6,1.5-2.3,2.3l-1.1,1.1c-0.9,0.9-1.7,1.7-2.5,2.6c-0.8,0.8-1.5,1.5-2.1,2.3l-1.1,1.2
			c-0.7,0.7-1.2,1.3-1.7,1.9l-0.8,0.9c-0.5,0.5-1,1.2-1.6,1.8c-0.5,0.6-1,1.1-1.5,1.7l-0.2,0.3c-0.7,0.8-1.5,1.6-2.2,2.5
			c-1,1.2-2,2.4-2.9,3.6c-0.4,0.5-0.8,1-1.2,1.6c-0.3,0.4-0.7,0.9-1,1.3c-0.6,0.7-4.9,6.4-5.2,6.8c-0.5,0.7-0.9,1.3-1.4,2
			c-0.5,0.7-1,1.5-1.5,2.2L294.2,718.4z M513,211.8c-80.2,0-155.7,31.3-212.5,88.2c-56.8,56.9-88.1,132.5-88,212.7
			c0,57.8,16.5,114,47.8,162.6c0.7-0.9,1.4-1.8,2.1-2.7c1.4-1.9,3-3.9,4.6-5.7c0.2-0.3,1.3-1.7,1.6-2c1.2-1.3,2.3-2.6,3.4-3.9
			c1-1.2,2.1-2.4,3.1-3.6l0.6-0.6c0.2-0.2,0.4-0.5,0.7-0.7c1.7-2,3.6-3.9,5.5-6l2.4-2.4c1.4-1.5,2.9-3.1,4.5-4.6
			c0.4-0.4,0.9-0.9,1.4-1.3c0.4-0.4,0.9-0.8,1.3-1.2c1.2-1.2,2.6-2.5,3.9-3.8l3.4-3.1c1.3-1.3,2.8-2.6,4.3-3.9
			c0.5-0.4,2.5-2.1,3-2.6c1.2-0.9,2.2-1.7,3.1-2.5l1.5-1.3c0.6-0.6,1.4-1.2,2.2-1.8l0.9-0.7c1.6-1.3,3.2-2.5,4.7-3.7l1.3-1
			c0.6-0.5,1.2-1,1.9-1.4l5-3.7l2.9-2c2.2-1.5,4.2-2.9,6.3-4.3l0.4-0.3c0.5-0.4,1.1-0.8,1.6-1.1l8.1-5.1l2.1-1.3
			c2.2-1.3,4.2-2.6,6.3-3.8c0.9-0.6,1.9-1.1,2.9-1.7c1.5-0.9,3.1-1.7,4.7-2.6l0.8-0.5c1.1-0.6,2.3-1.3,3.5-1.9
			c1.7-0.9,3.5-1.8,5.3-2.7c0.6-0.3,1.2-0.6,1.7-0.8c0.6-0.3,1.2-0.6,1.9-0.9l5.2-2.4l3.7-1.7c1.3-0.6,2.8-1.2,4.2-1.8l1.2-0.5
			c1.2-0.5,2.5-1.1,3.8-1.6l5.4-2.2l3.6-1.4c1.3-0.5,2.7-1,4.1-1.5l5.1-1.8c2.7-0.9,5.3-1.7,7.9-2.5c0.6-0.3,1.3-0.5,1.9-0.6
			c2.8-0.8,5.9-1.8,9.1-2.6c0.4-0.1,0.9-0.2,1.4-0.4c0.4-0.1,0.8-0.2,1.2-0.3c2.4-0.6,4.6-1.1,6.9-1.7l3.6-0.8c2-0.5,4-0.9,6.1-1.3
			c0.6-0.1,1.2-0.2,1.9-0.3c0.7-0.1,1.3-0.2,2-0.4l5.8-1.1c0.7-0.1,1.3-0.2,1.9-0.3c0.8-0.1,1.6-0.3,2.4-0.4l5.6-0.8l4.1-0.5
			c1.1-0.1,2-0.2,3-0.3c1-0.1,1.9-0.2,2.9-0.3l0.4-0.1c1.3-0.2,2.5-0.3,3.7-0.4c0.9-0.1,2-0.2,3.1-0.2c1-0.1,1.9-0.1,2.9-0.2
			l3.9-0.3c2.2-0.2,4.4-0.3,6.7-0.4c1.1-0.1,2.3-0.2,3.4-0.2c3.2-0.1,6.5-0.2,9.9-0.2c3.3,0,6.6,0.1,10,0.2c0.7,0.1,1.2,0.1,1.7,0.1
			c0.6,0,1.2,0.1,1.8,0.1c2.1,0.1,4.3,0.2,6.6,0.4l3.8,0.3c2,0.1,4,0.3,6.1,0.5c0.8,0.1,1.4,0.2,2,0.2c0.7,0.1,1.4,0.1,2.1,0.2
			c1.9,0.2,3.8,0.4,5.8,0.6l4.1,0.5l6.3,0.9c1.2,0.2,2.4,0.3,3.6,0.6l5.7,1.1c1.2,0.2,2.6,0.5,4,0.7c1.6,0.3,3.2,0.7,4.9,1l4.7,1.1
			c1.5,0.3,3.2,0.8,4.9,1.2l1.8,0.5c0.6,0.2,1,0.3,1.4,0.4c0.5,0.1,1,0.2,1.5,0.4c3,0.8,6.2,1.7,9.3,2.6c0.4,0.2,0.6,0.2,0.7,0.2
			c0.3,0.1,0.6,0.2,1,0.3c2.4,0.7,5,1.6,7.7,2.5l3.2,1.1l6,2.2l3.6,1.4l5.5,2.2c0.7,0.3,1.3,0.6,1.8,0.8c0.7,0.3,1.3,0.5,2,0.8
			c0.9,0.4,2,0.9,3.1,1.3c0.7,0.3,1.4,0.6,2.1,0.9c1.4,0.6,2.7,1.1,3.9,1.7l5.2,2.5c1.3,0.5,2.5,1.1,3.8,1.8
			c0.8,0.4,1.6,0.8,2.5,1.3c0.9,0.4,1.8,0.9,2.7,1.4l3.5,1.8c1.3,0.7,2.7,1.4,4.1,2.2l4.4,2.4c2.2,1.2,4.2,2.4,6.4,3.7l2.1,1.3
			l8.1,5.2c0.6,0.3,1.3,0.8,2,1.4c1.4,0.9,3,1.9,4.5,3l1.6,1.1c0.6,0.5,1.1,0.8,1.5,1.1c0.5,0.4,1.1,0.8,1.6,1.2
			c1.6,1.1,3.3,2.3,5,3.6l0.6,0.5c0.9,0.7,1.7,1.3,2.6,2c0.7,0.5,1.4,1.1,2.2,1.7c0.8,0.6,1.5,1.2,2.3,1.8l3.2,2.6
			c0.7,0.6,1.5,1.2,2.2,1.9c0.7,0.6,1.4,1.2,2.1,1.8c1.1,0.9,2.2,1.8,3.2,2.8c0.7,0.6,3.5,3.2,4.2,3.8l3.1,2.8
			c1.5,1.3,3,2.7,4.4,4.1c0.9,0.8,1.8,1.7,2.7,2.6c1.1,1,2.1,2.1,3.2,3.1l1.4,1.4c0.8,0.9,1.5,1.6,2.3,2.4c2,2.1,3.8,4,5.7,6.1
			c0.2,0.3,0.4,0.4,0.5,0.5c0.3,0.3,0.6,0.6,0.9,0.9c1,1.1,2,2.3,3,3.5c1.1,1.3,2.2,2.5,3.3,3.8c0.7,0.8,1.3,1.5,1.9,2.3l4.4,5.5
			c0.4,0.5,0.8,1,1.2,1.5c0.3,0.4,0.6,0.7,0.8,1.1c31.3-48.6,47.8-104.7,47.8-162.6C813.7,346.7,678.8,211.8,513,211.8z"/>
		<path class="st0" d="M863.4,512.5c0-193.2-157.2-350.4-350.4-350.4c-193.2,0-350.4,157.2-350.4,350.4c0,76,24.9,150.1,70.4,210.6
			l-0.2,0.4l10.4,12.5l21,25.3l0.8-1.4c65.4,65.8,154.2,103,248,103c93.8,0,182.6-37.2,248.1-103l0.8,1.4l21-25.3l10.4-12.5
			l-0.2-0.4C838.5,662.6,863.4,588.5,863.4,512.5L863.4,512.5z M513,208.2c167.7,0,304.3,136.5,304.3,304.3
			c0,60.2-18,119.1-51.1,168.7c-0.9-1.3-1.9-2.5-2.8-3.6c-0.7-0.9-1.5-1.9-2.2-2.8c-1.5-1.8-3-3.7-4.5-5.6c-0.5-0.7-1.1-1.4-1.7-2.1
			c-2.1-2.5-4.3-4.9-6.4-7.4c-0.4-0.5-0.8-0.8-1.2-1.3c-1.8-2-3.7-3.9-5.5-5.8c-0.8-0.8-1.6-1.6-2.4-2.5c-1.5-1.5-2.9-3-4.5-4.5
			c-0.9-0.9-1.8-1.8-2.8-2.7c-1.4-1.4-2.8-2.7-4.3-4l-3-2.7c-1.5-1.3-2.8-2.6-4.3-3.8c-1-0.9-2.1-1.8-3.1-2.6
			c-1.5-1.2-2.9-2.5-4.4-3.7c-1-0.8-2.1-1.7-3.1-2.6c-1.6-1.2-3-2.4-4.6-3.6c-1-0.8-2-1.6-3.1-2.4c-1.6-1.3-3.3-2.5-5-3.7
			c-0.9-0.7-1.9-1.4-2.8-2.1c-2-1.4-4-2.8-6.1-4.1c-0.6-0.5-1.3-0.9-1.9-1.3c-2.7-1.7-5.4-3.5-8.1-5.2c-0.7-0.5-1.4-0.8-2.1-1.3
			c-2.1-1.3-4.1-2.5-6.2-3.6c-1-0.5-2.1-1.2-3.1-1.7c-1.8-1-3.6-2-5.4-2.9c-1.2-0.6-2.3-1.2-3.5-1.8c-1.7-0.9-3.5-1.7-5.2-2.6
			c-1.2-0.6-2.4-1.2-3.6-1.7L644,583c-1.2-0.5-2.5-1.1-3.7-1.6c-1.7-0.7-3.5-1.6-5.3-2.3c-1.2-0.5-2.5-1-3.6-1.6l-5.5-2.2l-3.6-1.4
			l-6-2.2c-1-0.4-2.1-0.7-3.1-1.1c-2.6-0.9-5.2-1.7-7.8-2.6c-0.5-0.2-0.9-0.3-1.4-0.5c-3.1-0.9-6.2-1.8-9.3-2.6
			c-0.9-0.3-1.8-0.5-2.7-0.7c-2.2-0.5-4.5-1.2-6.7-1.6l-3.6-0.8c-2-0.5-3.9-0.9-5.9-1.3c-1.3-0.3-2.6-0.5-3.9-0.7l-5.7-1.1
			c-1.4-0.3-2.7-0.5-4-0.6c-1.9-0.3-3.7-0.5-5.7-0.8l-4.1-0.5c-1.9-0.3-3.8-0.5-5.7-0.6c-1.4-0.2-2.6-0.3-4-0.5c-2-0.2-4-0.4-6-0.5
			l-3.8-0.3c-2.2-0.2-4.4-0.3-6.6-0.4c-1.1-0.1-2.2-0.1-3.3-0.2c-3.3-0.1-6.6-0.2-9.9-0.2c-3.3,0-6.6,0.1-9.9,0.2
			c-1.1,0-2.2,0.1-3.3,0.2c-2.2,0.1-4.4,0.2-6.6,0.4l-3.8,0.3c-2,0.2-4,0.3-6,0.5c-1.4,0.1-2.6,0.3-4,0.5c-1.9,0.2-3.8,0.5-5.8,0.6
			l-4.1,0.5c-1.9,0.3-3.8,0.5-5.7,0.8c-1.4,0.2-2.7,0.5-4,0.6l-5.7,1.1c-1.3,0.3-2.6,0.5-3.9,0.7c-2,0.4-4,0.8-5.9,1.3l-3.6,0.8
			c-2.3,0.5-4.5,1.1-6.7,1.6c-0.9,0.3-1.8,0.5-2.7,0.7c-3.1,0.8-6.2,1.7-9.3,2.6c-0.5,0.1-0.9,0.3-1.3,0.5c-2.6,0.8-5.3,1.6-7.9,2.6
			c-1,0.4-2.1,0.7-3.1,1.1c-2,0.7-4,1.4-6,2.2l-3.6,1.4l-5.5,2.2c-1.2,0.5-2.5,1-3.7,1.6c-1.7,0.7-3.6,1.5-5.3,2.3
			c-1.2,0.5-2.5,1.1-3.7,1.6l-5.2,2.5c-1.2,0.5-2.4,1.2-3.6,1.7c-1.7,0.8-3.5,1.7-5.2,2.6c-1.1,0.5-2.3,1.2-3.4,1.8
			c-1.8,1-3.6,2-5.4,3c-1,0.5-2,1.1-3,1.7c-2.1,1.2-4.2,2.5-6.3,3.7c-0.6,0.4-1.4,0.8-2,1.2l-8.2,5.2c-0.6,0.4-1.2,0.8-1.8,1.3
			c-2.1,1.4-4.1,2.7-6.2,4.2c-0.9,0.6-1.9,1.4-2.8,2c-1.6,1.2-3.4,2.5-5,3.6c-1,0.7-2,1.6-3.1,2.4c-1.6,1.2-3.1,2.4-4.7,3.7
			c-1,0.8-2.1,1.6-3.1,2.6c-1.5,1.2-2.9,2.5-4.5,3.6c-1,0.9-2,1.7-3,2.6c-1.5,1.3-2.9,2.6-4.3,3.8c-1,0.9-2,1.8-2.9,2.6
			c-1.5,1.4-2.9,2.7-4.3,4.1c-0.9,0.9-1.8,1.7-2.7,2.6c-1.6,1.5-3,3-4.5,4.6l-2.4,2.4c-1.9,2-3.7,3.9-5.6,6
			c-0.4,0.4-0.7,0.8-1.1,1.2c-2.2,2.5-4.3,4.9-6.5,7.4c-0.5,0.6-1.1,1.4-1.6,2c-1.6,1.8-3.1,3.7-4.6,5.7c-0.7,0.9-1.5,1.8-2.2,2.8
			c-1,1.3-1.9,2.5-2.9,3.7c-33.1-49.7-51.1-108.6-51.1-168.7C208.7,344.8,345.3,208.2,513,208.2L513,208.2z M496.6,816.3
			c-1.8-0.1-3.6-0.3-5.4-0.5c-3.6-0.3-7.3-0.5-10.9-0.9c-2.1-0.3-4.3-0.5-6.4-0.8c-3.3-0.5-6.5-0.8-9.8-1.4
			c-2.3-0.4-4.5-0.8-6.8-1.3c-3.1-0.5-6.1-1.1-9.2-1.8c-2.3-0.5-4.6-1.1-6.8-1.6c-2.9-0.7-5.9-1.5-8.9-2.3c-2.3-0.6-4.6-1.3-6.8-2
			c-2.9-0.8-5.7-1.7-8.7-2.7c-2.3-0.7-4.5-1.6-6.8-2.4c-2.8-1-5.7-2-8.4-3.1c-2.2-0.9-4.5-1.8-6.7-2.7l-8.2-3.6c-2.2-1-4.3-2-6.5-3
			c-2.7-1.3-5.4-2.6-8-4c-2.1-1.1-4.2-2.2-6.3-3.4c-2.6-1.5-5.3-3-7.8-4.6c-2-1.2-4-2.4-6-3.7c-2.6-1.6-5.2-3.4-7.8-5
			c-1.9-1.3-3.8-2.6-5.7-3.8c-2.6-1.8-5.1-3.7-7.7-5.7c-1.7-1.3-3.6-2.6-5.3-4c-2.6-2.1-5.2-4.2-7.8-6.4c-1.6-1.4-3.2-2.6-4.7-4
			c-2.7-2.4-5.5-4.9-8.1-7.4c-1.3-1.2-2.6-2.4-3.9-3.7c-3.4-3.3-6.8-6.8-10-10.2c-0.5-0.5-1-1-1.5-1.5l-0.2-0.2
			c0.1-0.2,0.2-0.4,0.4-0.5c0.6-1,1.4-1.9,2-2.8c1-1.4,1.9-2.8,2.9-4.2c0.7-1,1.5-1.9,2.2-2.9c1-1.3,2-2.6,3-3.9
			c0.7-1,1.6-1.9,2.3-2.9c1-1.3,2-2.6,3-3.7c0.8-1,1.6-1.9,2.5-2.8c1-1.2,2.1-2.4,3.1-3.6c0.8-0.9,1.6-1.9,2.6-2.8
			c1.1-1.2,2.1-2.4,3.2-3.5c0.8-0.9,1.7-1.8,2.6-2.7c1.1-1.1,2.2-2.3,3.4-3.4c0.9-0.9,1.8-1.7,2.6-2.6c1.2-1.1,2.3-2.2,3.5-3.3
			c0.9-0.8,1.8-1.6,2.7-2.6c1.2-1.1,2.4-2.1,3.6-3.2c0.9-0.8,1.8-1.6,2.7-2.4c1.2-1,2.5-2.1,3.7-3.1c0.9-0.7,1.8-1.6,2.8-2.3
			c1.3-1,2.6-2,3.9-3c0.9-0.7,1.8-1.5,2.8-2.1l4.1-3l2.7-1.9c1.5-1,3-2.1,4.5-3.1l2.5-1.6c1.7-1.2,3.6-2.3,5.4-3.4
			c0.5-0.4,1.2-0.7,1.7-1.1c4.8-2.9,9.7-5.8,14.7-8.4c0.7-0.4,1.5-0.7,2.2-1.2c1.7-0.9,3.5-1.8,5.3-2.7c0.9-0.5,1.8-0.9,2.8-1.4
			c1.6-0.7,3.2-1.6,4.8-2.3c1-0.5,2.1-0.9,3.1-1.4c1.6-0.6,3.1-1.4,4.6-2l3.3-1.4c1.6-0.6,3-1.2,4.6-1.8c1.1-0.5,2.3-0.8,3.5-1.3
			c1.5-0.5,3-1.1,4.6-1.6c1.2-0.4,2.4-0.8,3.5-1.2c1.5-0.5,3-1,4.6-1.5l3.6-1.1c1.5-0.5,3-0.9,4.6-1.3c1.2-0.4,2.5-0.6,3.6-1
			c1.6-0.4,3-0.8,4.6-1.2c1.2-0.3,2.5-0.6,3.6-0.9c1.6-0.4,3.1-0.6,4.6-1c1.3-0.3,2.5-0.5,3.7-0.7l4.7-0.8c1.3-0.2,2.5-0.5,3.7-0.6
			c1.6-0.3,3.2-0.5,4.7-0.7c1.2-0.2,2.5-0.4,3.6-0.5l4.9-0.5c1.2-0.1,2.4-0.3,3.6-0.4c1.7-0.2,3.5-0.3,5.2-0.5
			c1.1-0.1,2.3-0.2,3.4-0.3l5.7-0.3c1,0,1.9-0.1,2.8-0.1c2.8-0.1,5.7-0.2,8.6-0.2c2.9,0,5.7,0.1,8.6,0.2c1,0,1.9,0.1,2.9,0.1
			l5.7,0.3c1.1,0.1,2.3,0.2,3.4,0.3c1.7,0.1,3.5,0.3,5.2,0.5c1.2,0.1,2.4,0.3,3.6,0.4l4.9,0.5c1.2,0.2,2.5,0.4,3.6,0.5
			c1.6,0.3,3.2,0.5,4.7,0.7c1.3,0.2,2.5,0.5,3.7,0.6l4.7,0.8c1.3,0.3,2.5,0.5,3.7,0.7c1.6,0.4,3.1,0.6,4.6,1
			c1.3,0.3,2.5,0.5,3.7,0.9c1.6,0.4,3,0.7,4.6,1.2c1.2,0.4,2.5,0.6,3.7,1c1.6,0.5,3,0.8,4.6,1.3l3.6,1.1c1.6,0.5,3,1,4.6,1.5
			c1.2,0.4,2.4,0.8,3.6,1.2c1.6,0.5,3,1.1,4.5,1.6c1.2,0.5,2.3,0.8,3.5,1.3c1.6,0.5,3,1.2,4.6,1.8l3.3,1.4c1.6,0.6,3.1,1.3,4.6,2
			c1,0.5,2.1,0.9,3.1,1.4c1.6,0.7,3.2,1.5,4.8,2.3c0.9,0.5,1.9,0.9,2.8,1.4c1.7,0.9,3.6,1.8,5.3,2.7c0.7,0.4,1.5,0.7,2.2,1.2
			c5,2.6,9.9,5.5,14.7,8.4c0.5,0.4,1.2,0.7,1.7,1.1c1.8,1.1,3.6,2.3,5.4,3.4l2.5,1.6c1.6,1,3,2,4.6,3.1c0.9,0.6,1.8,1.3,2.6,1.9
			l4.1,3c0.9,0.7,1.8,1.4,2.7,2.1c1.3,1,2.6,2,3.9,3c0.9,0.7,1.8,1.6,2.8,2.3c1.3,1,2.5,2.1,3.7,3.1c0.9,0.8,1.8,1.6,2.7,2.4
			c1.2,1.1,2.4,2.1,3.6,3.2l2.7,2.5c1.2,1.1,2.4,2.2,3.5,3.3c0.9,0.8,1.7,1.7,2.6,2.6l3.4,3.4c0.8,0.9,1.7,1.8,2.6,2.6l3.3,3.6
			l2.5,2.7c1.1,1.2,2.1,2.5,3.2,3.6c0.8,0.9,1.6,1.9,2.4,2.8c1,1.3,2.1,2.6,3.1,3.8c0.7,0.9,1.6,1.9,2.3,2.8c1,1.3,2,2.6,3,4
			c0.7,0.9,1.5,1.9,2.1,2.8c1,1.4,2,2.8,3,4.3l1.9,2.7c0.1,0.2,0.3,0.4,0.4,0.5l-0.2,0.2c-0.5,0.5-1,1-1.5,1.6
			c-3.3,3.5-6.6,6.9-9.9,10.2c-1.3,1.3-2.7,2.5-4,3.7c-2.6,2.5-5.3,4.9-7.9,7.3c-1.6,1.5-3.3,2.7-4.9,4.1c-2.5,2.1-5,4.2-7.6,6.2
			l-5.5,4.1c-2.5,1.8-4.9,3.7-7.5,5.5c-1.9,1.4-3.9,2.6-5.9,4c-2.5,1.6-5,3.3-7.6,4.9c-2.1,1.3-4.1,2.6-6.2,3.7
			c-2.6,1.5-5.1,3-7.7,4.4c-2.1,1.2-4.3,2.3-6.5,3.5c-2.6,1.4-5.2,2.6-7.8,3.9c-2.2,1.1-4.5,2.1-6.7,3.1c-2.6,1.2-5.3,2.4-8,3.5
			c-2.3,0.9-4.6,1.9-6.8,2.7c-2.7,1.1-5.5,2.1-8.2,3.1c-2.3,0.8-4.6,1.6-6.9,2.4c-2.8,0.9-5.7,1.8-8.4,2.6c-2.4,0.7-4.7,1.4-7,2
			c-2.9,0.8-5.8,1.5-8.7,2.2c-2.3,0.5-4.7,1.2-6.9,1.6c-3,0.6-6,1.2-9.1,1.7c-2.3,0.5-4.6,0.9-6.8,1.3c-3.2,0.5-6.4,0.9-9.7,1.4
			c-2.2,0.3-4.3,0.6-6.5,0.8c-3.7,0.4-7.2,0.6-10.9,0.9c-1.8,0.1-3.6,0.4-5.5,0.5c-5.5,0.3-11,0.5-16.4,0.5
			C507.5,816.8,502,816.6,496.6,816.3L496.6,816.3z M496.6,816.3"/>
	</g>
</g>
</svg>
