<?xml version="1.0" standalone="no"?><!DOCTYPE svg PUBLIC "-//W3C//DTD SVG 1.1//EN" "http://www.w3.org/Graphics/SVG/1.1/DTD/svg11.dtd"><svg class="icon" width="200px" height="200.00px" viewBox="0 0 1024 1024" version="1.1" xmlns="http://www.w3.org/2000/svg"><path fill="#333333" d="M845.6 925.9H178.4c-44.3 0-80.3-36-80.3-80.3V178.4c0-44.3 36-80.3 80.3-80.3h667.2c44.2 0 80.3 36 80.3 80.3v667.2c0 44.2-36.1 80.3-80.3 80.3zM178.4 130.2c-26.6 0-48.2 21.6-48.2 48.2v667.2c0 26.6 21.6 48.2 48.2 48.2h667.2c26.5 0 48.2-21.6 48.2-48.2V178.4c0-26.6-21.6-48.2-48.2-48.2H178.4z"  /><path fill="#333333" d="M904.4 488.6c-4.1 0-8.2-1.6-11.4-4.7L534.7 125.5c-6.3-6.3-6.3-16.4 0-22.7 6.3-6.3 16.4-6.3 22.7 0l358.3 358.3c6.3 6.3 6.3 16.4 0 22.7-3.1 3.2-7.2 4.8-11.3 4.8zM893.7 903.4c-4.1 0-8.2-1.6-11.4-4.7L123.9 140.2c-6.3-6.3-6.3-16.4 0-22.7 6.3-6.3 16.4-6.3 22.7 0L905.1 876c6.3 6.3 6.3 16.4 0 22.7-3.2 3.1-7.3 4.7-11.4 4.7z"  /><path fill="#333333" d="M337.7 347.4c-4.1 0-8.2-1.6-11.4-4.7-6.3-6.3-6.3-16.4 0-22.7l217.1-217.1c6.3-6.3 16.4-6.3 22.7 0 6.3 6.3 6.3 16.4 0 22.7l-217 217.1c-3.2 3.1-7.3 4.7-11.4 4.7zM129 904.7c-4.1 0-8.2-1.6-11.4-4.7-6.3-6.3-6.3-16.4 0-22.7l759.8-759.8c6.3-6.3 16.4-6.3 22.7 0 6.3 6.3 6.3 16.4 0 22.7L140.3 900c-3.1 3.2-7.2 4.7-11.3 4.7z"  /></svg>