<?xml version="1.0" standalone="no"?><!DOCTYPE svg PUBLIC "-//W3C//DTD SVG 1.1//EN" "http://www.w3.org/Graphics/SVG/1.1/DTD/svg11.dtd"><svg t="1545457565694" class="icon" style="" viewBox="0 0 1024 1024" version="1.1" xmlns="http://www.w3.org/2000/svg" p-id="1390" xmlns:xlink="http://www.w3.org/1999/xlink" width="200" height="200"><defs><style type="text/css"></style></defs><path d="M195.862109 632.346469l0 156.818877 307.488123 92.337595L503.350233 628.759101l-40.998403 85.584174L195.862109 632.346469zM847.058598 397.630606l125.178329-143.494511L651.291129 166.340021l-125.218502 140.748572-125.218302-140.748572L79.907527 254.136096l125.179528 143.494511 320.985772-90.110305L847.058598 397.630606zM526.072827 485.6931l-320.985772-88.062494-89.171542 177.317978 320.812489 88.146637 89.344624-176.71019 89.344824 176.71019 320.812689-88.146637-89.171542-177.317978L526.072827 485.6931zM548.795021 628.759101l0 252.74384 307.488123-92.337595 0-156.818877L589.793624 714.343275 548.795021 628.759101z" p-id="1391"></path></svg>