<?xml version="1.0" standalone="no"?><!DOCTYPE svg PUBLIC "-//W3C//DTD SVG 1.1//EN" "http://www.w3.org/Graphics/SVG/1.1/DTD/svg11.dtd"><svg t="1545457917505" class="icon" style="" viewBox="0 0 1024 1024" version="1.1" xmlns="http://www.w3.org/2000/svg" p-id="1968" xmlns:xlink="http://www.w3.org/1999/xlink" width="200" height="200"><defs><style type="text/css"></style></defs><path d="M177.423059 435.937882c-85.805176 0-159.171765-56.184471-174.441412-132.005647l-0.225882-2.228706c-0.286118-3.373176-2.394353-33.686588 12.062117-53.488941l100.397177-135.529412c25.494588-34.921412 83.832471-62.479059 132.773647-62.479058h528.655059c48.941176 0 107.279059 27.422118 132.818823 62.418823l100.246588 134.701177c13.989647 19.169882 13.884235 48.579765 13.824 51.877647l-0.286117 2.650353c-15.375059 76.303059-88.726588 133.963294-174.441412 133.963294-76.574118 0-139.113412-54.317176-164.668235-114.552471h-8.312471c-25.359059 60.235294-87.808 115.471059-164.653176 115.471059s-139.294118-55.235765-164.653177-115.471059h-4.412235c-25.584941 60.220235-88.109176 114.672941-164.683294 114.672941z m671.367529-32.030117" p-id="1969"></path><path d="M848.158118 470.979765c-70.912 0-127.698824-36.186353-163.373177-81.152l-14.396235 0.015059c-36.096 42.616471-92.190118 86.693647-159.292235 86.693647-66.861176 0-122.819765-43.776-158.930824-86.241883l-11.535059 0.015059c-35.689412 44.544-93.033412 80.323765-163.674353 80.323765-30.433882 0-56.877176-6.595765-86.994823-18.401883v419.644236c0 57.509647 36.141176 96.888471 88.470588 96.88847h131.885176c37.180235 0 83.184941-21.624471 83.184942-60.988235L392.809412 701.741176c6.324706-64.587294 61.455059-115.290353 127.397647-115.290352 70.836706 0 131.388235 58.142118 131.388235 127.036235 0 1.746824 0.527059 5.195294-0.015059 9.773176l-0.421647 171.384471c0 40.101647 28.039529 74.149647 64.587294 74.149647h130.575059c56.922353 0 101.948235-43.881412 101.948235-96.888471V444.762353c-30.102588 16.655059-64.180706 26.217412-100.111058 26.217412z" p-id="1970"></path></svg>