<?xml version="1.0" standalone="no"?><!DOCTYPE svg PUBLIC "-//W3C//DTD SVG 1.1//EN" "http://www.w3.org/Graphics/SVG/1.1/DTD/svg11.dtd"><svg t="1514187101210" class="icon" style="" viewBox="0 0 1024 1024" version="1.1" xmlns="http://www.w3.org/2000/svg" p-id="1884" xmlns:xlink="http://www.w3.org/1999/xlink" width="200" height="200"><defs><style type="text/css"></style></defs><path d="M920.482 882.69H375.839c-21.47 0-38.895-17.476-38.895-38.996v-78.59c0-10.76 3.793-19.949 11.382-27.564 7.59-7.59 16.778-11.433 27.513-11.433h544.642c10.733 0 19.896 3.844 27.511 11.433 7.59 7.614 11.385 16.804 11.385 27.564v78.59c0 21.52-17.426 38.996-38.895 38.996z m0-292.418H375.839c-21.47 0-38.895-17.464-38.895-38.995V472.71c0-10.772 3.793-19.96 11.382-27.574 7.59-7.615 16.778-11.42 27.513-11.42h544.642c10.733 0 19.896 3.805 27.511 11.42 7.59 7.615 11.385 16.802 11.385 27.574v78.566c0 21.53-17.426 38.995-38.895 38.995z m0-292.405H375.839c-21.47 0-38.895-17.464-38.895-38.995v-78.579c0-10.759 3.793-19.946 11.382-27.561 7.59-7.627 16.778-11.422 27.513-11.422h544.642c10.733 0 19.896 3.795 27.511 11.422 7.59 7.614 11.385 16.801 11.385 27.561v78.579c0 21.531-17.426 38.995-38.895 38.995zM181.334 882.69h-77.816c-21.47 0-38.897-17.476-38.897-38.996v-78.59c0-10.76 3.796-19.949 11.386-27.564 7.614-7.59 16.776-11.433 27.511-11.433h77.816c10.736 0 19.898 3.844 27.486 11.433 7.615 7.614 11.408 16.804 11.408 27.564v78.59c0.001 21.52-17.423 38.996-38.894 38.996z m0-292.418h-77.816c-21.47 0-38.897-17.464-38.897-38.995V472.71c0-10.772 3.796-19.96 11.386-27.574 7.614-7.615 16.776-11.42 27.511-11.42h77.816c10.736 0 19.898 3.805 27.486 11.42 7.615 7.615 11.408 16.802 11.408 27.574v78.566c0.001 21.53-17.423 38.995-38.894 38.995z m0-292.405h-77.816c-21.47 0-38.897-17.464-38.897-38.995v-78.579c0-10.759 3.796-19.946 11.386-27.561 7.614-7.627 16.776-11.422 27.511-11.422h77.816c10.736 0 19.898 3.795 27.486 11.422 7.615 7.614 11.408 16.801 11.408 27.561v78.579c0.001 21.531-17.423 38.995-38.894 38.995z" p-id="1885"></path></svg>