<?xml version="1.0" standalone="no"?><!DOCTYPE svg PUBLIC "-//W3C//DTD SVG 1.1//EN" "http://www.w3.org/Graphics/SVG/1.1/DTD/svg11.dtd"><svg t="1514185755814" class="icon" style="" viewBox="0 0 1024 1024" version="1.1" xmlns="http://www.w3.org/2000/svg" p-id="2439" xmlns:xlink="http://www.w3.org/1999/xlink" width="200" height="200"><defs><style type="text/css"></style></defs><path d="M392.32 800.192l242.912-242.944 164.992 164.992 0.032 77.76-407.968 0.192zM224 224l576-0.256 0.192 407.968-142.336-142.336a31.968 31.968 0 0 0-45.248 0L301.76 800.224H224V224z m576.256-64H223.712a63.808 63.808 0 0 0-63.68 63.744v576.512C160 835.424 188.544 864 223.68 864h576.544A63.808 63.808 0 0 0 864 800.256V223.744A63.84 63.84 0 0 0 800.256 160z" p-id="2440"></path><path d="M416 384a31.68 31.68 0 0 1 32 32 31.68 31.68 0 0 1-32 32 31.68 31.68 0 0 1-32-32c0-17.952 14.048-32 32-32m0 128c52.928 0 96-43.072 96-96s-43.072-96-96-96-96 43.072-96 96 43.072 96 96 96" p-id="2441"></path></svg>