<?xml version="1.0" standalone="no"?><!DOCTYPE svg PUBLIC "-//W3C//DTD SVG 1.1//EN" "http://www.w3.org/Graphics/SVG/1.1/DTD/svg11.dtd"><svg t="1514188174074" class="icon" style="" viewBox="0 0 1024 1024" version="1.1" xmlns="http://www.w3.org/2000/svg" p-id="17042" xmlns:xlink="http://www.w3.org/1999/xlink" width="200" height="200"><defs><style type="text/css"></style></defs><path d="M506.51648 577.32608c-11.42272 0.0512-22.54336-3.6864-31.62112-10.624L23.12704 324.68992a35.4304 35.4304 0 0 1-8.09472-5.95968c-20.21888-19.92704-20.01408-52.5568 0.45056-72.73472a35.56352 35.56352 0 0 1 9.04192-6.4512l460.38016-228.7616a52.71552 52.71552 0 0 1 31.98976-10.70592c11.19744 0 21.84192 3.47136 30.63296 9.90208l451.62496 211.62496c3.6352 1.70496 6.94272 4.00896 9.79968 6.79936a50.75968 50.75968 0 0 1 15.04256 36.9408 51.47136 51.47136 0 0 1-15.5136 35.80928 34.58048 34.58048 0 0 1-7.45984 5.61152l-461.60896 259.16928a52.66944 52.66944 0 0 1-32.896 11.392zM93.1072 283.1872l413.30688 221.42464 424.32-238.2336-413.696-193.83296L93.1072 283.1872z" p-id="17043"></path><path d="M503.45472 725.95968a51.9168 51.9168 0 0 1-31.60064-10.60352L20.08576 473.344c-17.09568-9.14432-23.40352-30.22336-14.13632-47.07328 9.2672-16.84992 30.63296-23.09632 47.70816-13.93152l449.69472 240.90112 459.78112-258.14016c16.89088-9.472 38.37952-3.65568 47.99488 12.98432 9.61536 16.64 3.71712 37.84704-13.16864 47.31904l-461.63456 259.21024a53.0688 53.0688 0 0 1-32.8704 11.34592z" p-id="17044"></path><path d="M503.45472 874.93632a51.9168 51.9168 0 0 1-31.60064-10.60352L20.08576 622.32064a34.46784 34.46784 0 0 1-14.13632-47.04768 35.42528 35.42528 0 0 1 47.70816-13.93152l449.69472 240.90624 459.78112-258.11968c16.89088-9.49248 38.37952-3.67616 47.99488 12.98432 9.61536 16.6656 3.71712 37.84704-13.16864 47.33952l-461.63456 259.1488a53.05856 53.05856 0 0 1-32.8704 11.33568z" p-id="17045"></path><path d="M503.45472 1023.91808a52.05504 52.05504 0 0 1-31.60064-10.58304L20.08576 771.32288a34.46784 34.46784 0 0 1-14.13632-47.07328 35.44576 35.44576 0 0 1 47.70816-13.93152l449.69472 240.90624 459.78112-258.11968c16.89088-9.49248 38.37952-3.67616 47.99488 12.98432 9.61536 16.66048 3.71712 37.84704-13.16864 47.33952l-461.63456 259.1488a53.06368 53.06368 0 0 1-32.8704 11.3408z" p-id="17046"></path></svg>