<?xml version="1.0" standalone="no"?><!DOCTYPE svg PUBLIC "-//W3C//DTD SVG 1.1//EN" "http://www.w3.org/Graphics/SVG/1.1/DTD/svg11.dtd"><svg t="1514187772129" class="icon" style="" viewBox="0 0 1024 1024" version="1.1" xmlns="http://www.w3.org/2000/svg" p-id="8892" xmlns:xlink="http://www.w3.org/1999/xlink" width="200" height="200"><defs><style type="text/css"></style></defs><path d="M622.745 564.673c-29.827-22.431-64.093-39.733-99.184-51.799 38.611-27.907 69.019-64.884 87.743-108.521-2.116 15.643 12.076-31.815 12.076-79.444 0-63.357-26.947-125.166-73.62-167.682s-111.306-65.124-174.724-58.862c-40.096 4.3-76.617 17.787-108.1 38.54-12.864 6.911-35.845 28.743-55.252 54.389-38.54 51.799-50.735 119.359-38.235 181.611 11.328 56.694 47.391 107.381 94.459 140.266-111.737 39.388-200.026 129.77-238.78 241.713-12.866 36.62-20.213 79.037-20.238 123.15 0 15.23 12.076 28.585 26.947 30.173l720.735-0.005c13.74-2.921 24.855-15.615 24.855-29.827 0-62.214-14.96-123.302-43.843-178.166-26.519-53.463-67.486-98.575-115.453-134.535z" p-id="8893"></path><path d="M972.181 657.914c-27.907-53.463-68.059-98.575-115.756-134.535-46.403-34.692-102.141-58.523-163.335-66.972 78.482 5.222 92.478-6.074 103.963-19.407 42.628-46.766 65.124-111.306 58.862-174.724-5.694-55.849-30.973-108.371-72.596-146.51-41.058-37.005-95.13-59.645-154.87-60.087-15.613 0-29.037 13.748-29.037 30.59s13.74 30.59 30.59 30.59c6.911 0 14.637 0.005 21.558 1.184h1.184c1.184 0 2.116 0.005 2.921 0.005 4.031 0.005 8.189 1.635 12.076 2.116 6.911 1.635 13.177 3.324 19.515 5.694 2.116 0.005 4.031 1.635 6.334 2.116 1.635 0.005 6.911 2.921 8.189 3.324 5.694 2.921 12.076 6.334 17.171 9.695 6.074 3.324 11.306 8.189 14.665 13.74-5.567-6.759-3.779-6.334-2.567-5.004 0 0 0.005 0 0.005 0.005 23.71 18.973 42.628 43.541 54.389 71.673s-24.528-41.665-24.528-41.109c0.005 0.005 1.184 1.184 1.635 2.116 1.635 2.921 4.031 5.219 5.694 8.189 4.031 6.334 7.372 12.864 11.030 18.973 1.184 2.921 2.921 5.694 4.031 8.189 0.005 1.635 1.184 2.921 1.635 4.587 2.116 6.911 4.587 13.74 6.334 21.558 0.005 3.324 1.635 6.911 2.116 10.341 0 1.184 0.005 4.587 1.184 6.334 0.005 6.911 1.184 13.177 1.184 20.213s0 14.637-1.184 21.558c0 1.184 0 1.635-0.005 2.921v1.184c-0.005 4.031-1.184 8.189-2.116 12.076-4.587 20.238-12.076 38.235-22.228 53.937 12.864-24.561 12.864-23.308 12.062-22.998-1.184 2.116-2.116 5.219-3.324 7.372-2.116 5.219-5.219 9.695-8.189 14.637-2.921 4.031-5.219 8.735-8.735 12.864-0.005 0.005-1.184 1.184-1.184 1.635-1.635 2.116-3.324 4.031-5.219 6.334-6.911 8.189-14.637 14.96-22.431 21.851l-0.005 0.005c-2.116 1.635-4.031 2.921-6.334 4.587-4.587 2.921-9.317 6.334-14.637 8.735-4.587 2.116-8.735 4.587-13.177 6.911-0.005 0.005-2.116 1.184-4.031 1.635s-4.031 1.635-5.694 2.116c-10.341 3.324-20.701 6.334-30.973 8.735-1.184 0-1.635 0.005-2.921 0.005s-5.219 0.005-6.334 0.005c-5.694 0.005-11.328 0.005-17.787 0.005-16.675 0-30.59 13.74-30.59 30.59 0 1.635 0 3.324 0.005 5.694v0.005l1.635 5.219v0.005c0.005 1.635 1.635 3.324 2.116 4.587v0.005c5.694 8.189 14.96 13.177 25.263 13.177 14.637 0 29.735 1.184 43.843 2.921 1.635 0 2.921 0.005 4.031 0.005l10.341 1.635c7.372 1.184 14.637 2.921 21.851 4.587 13.74 3.324 26.947 8.189 40.327 13.177 1.184 0.005 4.031 1.635 6.334 2.116 2.116 1.184 4.587 1.635 6.911 2.921 6.334 2.921 13.177 6.334 19.515 9.695 12.076 6.334 24.502 13.74 35.855 21.851 2.921 1.635 5.219 4.031 8.189 5.694 0.005 0.005 1.184 0.005 1.184 1.184 0.005 0.005 1.184 1.184 1.635 1.184 5.694 4.587 11.030 9.317 16.675 13.74 10.341 9.317 20.213 18.973 29.735 29.735 4.031 4.587 7.372 9.317 11.328 13.74 1.184 1.635 2.921 4.031 3.324 4.587 2.116 2.921 4.587 6.334 6.911 9.695 9.317 13.74 17.787 28.279 25.263 43.503 1.635 3.324 3.324 6.911 5.219 11.030l1.635 3.324c0.004 1.184 1.184 2.116 1.184 2.921 3.324 8.735 6.334 16.675 9.317 25.263 5.219 16.675 9.317 33.605 11.328 49.984 0 1.635 0.005 2.921 0.005 4.587v1.184c0.005 4.587 1.184 9.317 1.184 13.74 0.005 9.317 1.184 18.973 1.184 28.279 0 16.675 13.74 30.59 30.59 30.59 16.675 0 30.59-13.74 30.59-30.59-0.006-66.009-17.171-127.92-46.403-182.522zM794.423 303.988c0-1.184 0-0.005 0 0z" p-id="8894"></path></svg>