<?xml version="1.0" standalone="no"?><!DOCTYPE svg PUBLIC "-//W3C//DTD SVG 1.1//EN" "http://www.w3.org/Graphics/SVG/1.1/DTD/svg11.dtd"><svg t="1514187528803" class="icon" style="" viewBox="0 0 1024 1024" version="1.1" xmlns="http://www.w3.org/2000/svg" p-id="6896" xmlns:xlink="http://www.w3.org/1999/xlink" width="200" height="200"><defs><style type="text/css"></style></defs><path d="M260.322 484.882s-15.862 15.985-34.663 15.985c-18.801 0-34.669-15.985-34.669-15.985 0-57.882 17.324-127.375 23.555-150.91-5.565-3.607-9.158-9.817-9.158-17.012 0-9.486 6.543-17.326 15.207-19.614v-38.431l10.133 6.060v32.369c8.661 2.291 15.207 10.131 15.207 19.617 0 7.193-3.765 13.402-9.331 17.009 4.096 15.049 12.755 49.049 18.317 86.83 3.285 21.075 5.402 43.316 5.402 64.083zM711.615 471.868c-0.953-12.073-8.313-24.819-23.869-24.677-0.809 0-1.617-0.401-2.963-0.805l-1.201-3.361s1.073-10.466 1.349-16.081c0.95-18.238 2.277-36.332 3.356-54.438 0.543-7.649 1.472-15.278 2.015-22.929l-45.99-12.073c-1.75-0.803-21.334-3.744-21.334-3.744-10.245-1.57-74.353-7.55-134.701-7.954-47.893-0.32-93.798 4.49-105.846 6.324-3.651 0.601-11.824 2.326-12.198 2.414 0 0-34.999 7.651-48.404 12.745l-12.474 4.689c0.404 17.285 2.004 34.86 2.951 52.282 0.667 14.091 2.015 28.301 3.219 42.369-1.346 0.401-2.146 0.805-2.949 0.805-15.685-0.145-22.927 12.596-23.991 24.672-0.541 7.908-0.805 16.083 0.14 24.009 2.556 22.927 9.783 44.116 23.869 62.611 7.769 10.063 13.948 11.677 25.196 7.515 3.905 0.901 11.987 19.664 13.702 23.363 15.838 34.002 41.093 76.030 88.638 93.637 32.637 12.069 68.969 16.002 102.777 6.507 36.026-10.128 64.479-35.799 86.341-65.396 20.188-27.020 26.859-44.188 30.204-51.41 1.467-3.077 1.467-5.892 4.683-6.438 2.561-0.404 6.169 1.754 8.976 1.614 6.302-0.546 10.865-4.973 14.481-9.79 14.213-18.372 21.446-39.684 24.009-62.485 0.811-7.872 0.679-16.062 0.016-23.97zM657.525 423.145c-1.756 34.688-7.217 80.847-12.624 104.618-6.501 28.588-54.335 142.576-149.534 140.069-15.577-0.466-30.277-3.665-43.819-9.131-47.874-15.978-74.198-60.346-94.443-122.651-8.853-27.184-13.156-57.421-13.156-92.659-0.155-7.402-0.608-14.467-1.354-21.445 6.777 11.729 12.625 11.792 18.447 11.792 39.404 0 73.725-2.603 104.929-7.979 10.879-1.895 23.722-4.271 36.747-7.469 39.133-9.697 69.739-23.995 95.603-44.676 13.65 16.064 31.621 28.036 57.431 38.357 0.74 0.327 1.523 0.63 2.297 0.959l-0.525 10.215z" fill="" p-id="6897"></path><path d="M685.504 270.868c0-0.262-0.133-0.404-0.133-0.541-0.672-12.479 0.399-6.48-2.965-18.691-1.609-6.436-3.356-10.729-8.847-14.213-6.438-4.287-12.736-8.574-19.708-11.936-17.163-8.714-35.119-14.489-54.16-18.495-41.156-8.451-82.592-10.466-124.161-8.855-17.429 0.669-34.737 1.876-52.028 4.429-29.098 4.285-57.524 11.387-83.525 26.004-9.659 5.491-16.624 8.976-19.44 20.245-6.442 26.547-6.041 49.931-6.841 77.019 0 0.803 0 1.605 0.133 2.409 16.086-6.035 33.915-10.464 51.219-13.541 11.348-2.919 24.455-4.763 37.94-5.101 9.801-2.949 42.915-4.421 76.437-4.298 31.119 0.262 62.212-0.399 93.184 1.349 22.806 1.207 45.586 5.235 68.109 8.572 5.237 0.803 10.464 1.614 15.278 3.621l30.567 8.055v-0.265c-0.259-13.146-0.399-42.634-1.071-55.774l0.011 0.009z" fill="" p-id="6898"></path><path d="M818.165 221.744c-36.209 20.791-113.713 65.574-113.713 65.574s-0.284-6.841-0.284-9.254c-0.14-9.524-0.259-20.393-3.219-31.518-2.419-9.118-6.155-18.637-17.419-26.006 0 0-14.877-9.781-21.723-13.142-17.837-8.859-37.277-15.418-59.133-20.109-32.038-6.559-65.574-9.781-102.444-9.781-8.853 0-64.764 2.815-80.585 5.111-37.011 5.494-65.697 14.489-91.308 28.959-10.466 5.754-23.593 13.142-28.298 32.582-3.077 12.337-4.694 27.091-5.5 42.101 0 0-95.754-55.242-112.517-64.906 7.509-4.686 13.004-8.313 18.64-11.534 95.197-53.63 190.535-107.132 285.467-161.169 10.319-5.754 17.97-5.754 28.301 0.142 96.54 54.965 193.476 109.281 290.155 163.845 4.203 2.261 8.089 5.204 13.58 9.104zM806.401 791.97c-48.186-31.725-164.78-72.571-166.844-73.042-0.469 0.791-28.522 59.103-39.936 82.884-7.772 16.165-21.387 17.261-31.525 2.687-8.405-12.351-29.966-43.882-32.325-47.388-6.65-9.5-13.478-10.156-21.548-1.908-1.253 1.259-11.63 10.671-15.082 10.732-3.449-0.058-13.825-9.473-15.087-10.732-8.085-8.241-13.637-8.983-21.539 1.908-7.903 10.89-22.905 32.129-30.848 42.604-16.9 21.485-32.929 17.67-40.491 0-11.81-27.594-31.979-79.995-32.454-80.787-2.062 0.467-118.793 41.124-166.835 73.042-109.284 68.873-106.349 186.119-106.349 186.119h838.631c0.014 1.652 13.489-99.213-117.769-186.119z" fill="" p-id="6899"></path></svg>