<?xml version="1.0" standalone="no"?><!DOCTYPE svg PUBLIC "-//W3C//DTD SVG 1.1//EN" "http://www.w3.org/Graphics/SVG/1.1/DTD/svg11.dtd"><svg t="1514187659141" class="icon" style="" viewBox="0 0 1024 1024" version="1.1" xmlns="http://www.w3.org/2000/svg" p-id="8178" xmlns:xlink="http://www.w3.org/1999/xlink" width="200" height="200"><defs><style type="text/css"></style></defs><path d="M948.969 395.357l22.342-53.574-59.392-37.143c2.606-16.71 2.606-33.327 0.232-49.664l59.346-37.376-22.063-53.76-68.05 15.779c-9.727-13.405-21.503-25.32-35.141-35.56l15.453-68.05-53.62-22.435-36.771 58.926a166.742 166.742 0 0 0-49.99-0.325l-36.492-59.02-53.76 21.923 14.755 67.863c-13.405 9.775-25.46 21.644-35.7 35.375l-67.351-15.919-22.389 53.574 58.229 37.609a166.691 166.691 0 0 0-0.14 50.222l-58.927 36.352 22.016 53.853 67.91-14.801c9.868 13.358 21.644 25.274 35.328 35.42l-15.918 67.725 53.573 22.341 37.842-58.74c16.71 2.513 33.56 2.467 49.85-0.093l37.376 59.299 53.714-22.063-15.78-68.142c13.22-9.775 25.135-21.504 35.189-35.049l68.329 15.453z m-234.59-41.332c-41.239-17.269-60.741-64.652-43.473-106.03 17.269-41.24 64.745-60.65 106.03-43.381 41.287 17.315 60.743 64.698 43.474 106.03-17.268 41.193-64.745 60.65-106.03 43.38z m-59.903 357.283v-75.963l-90.392-14.801c-5.352-21.364-13.73-41.519-24.855-59.95l52.69-75.125-53.714-53.667-74.1 53.341c-18.525-11.217-38.726-19.735-60.323-25.088l-15.733-89.972h-75.962l-14.615 89.693c-21.597 5.26-41.937 13.684-60.463 24.809l-73.914-52.736-53.76 53.667 51.992 74.333c-11.218 18.618-19.782 38.912-25.182 60.648l-89.274 14.848v75.963l89.181 15.779c5.4 21.69 13.917 42.03 25.228 60.695l-52.736 73.681 53.713 53.76 74.473-52.13c18.618 11.17 38.866 19.642 60.463 24.948l14.894 89.74h76.009l15.965-89.973a218.017 218.017 0 0 0 60.137-25.181l74.938 52.643 53.713-53.76-53.48-74.287c11.078-18.478 19.502-38.586 24.762-60.043l90.345-15.872zM350.72 779.869c-58.508 0-105.937-47.43-105.937-105.937S292.213 568.04 350.72 568.04s105.89 47.43 105.89 105.89c0 58.508-47.382 105.938-105.89 105.938z" p-id="8179"></path></svg>