<?xml version="1.0" standalone="no"?><!DOCTYPE svg PUBLIC "-//W3C//DTD SVG 1.1//EN" "http://www.w3.org/Graphics/SVG/1.1/DTD/svg11.dtd"><svg t="1514187424562" class="icon" style="" viewBox="0 0 1024 1024" version="1.1" xmlns="http://www.w3.org/2000/svg" p-id="5022" xmlns:xlink="http://www.w3.org/1999/xlink" width="200" height="200"><defs><style type="text/css"></style></defs><path d="M920 446.1c-16.5-11.1-38.9-6.9-50.1 9.7L705.4 698.5c-33.5-70.5-90.9-127.4-162.6-158.9 52.1-39.6 86.4-101.6 86.4-171.9 0-119.4-97.1-216.4-216.4-216.4s-216.4 97.1-216.4 216.4c0 70.4 34.3 132.4 86.4 171.9-114.4 50.3-194.6 164.3-194.6 297v36.1h649.3v-36.1c0-18.5-2.5-36.3-5.5-54 3.2-2.4 6.5-4.4 8.9-7.9l188.8-278.6c11.1-16.4 6.8-38.8-9.7-50z m-651.5-78.4c0-79.6 64.7-144.3 144.3-144.3s144.3 64.7 144.3 144.3S492.4 512 412.8 512s-144.3-64.7-144.3-144.3zM162.9 800.6c17.5-122.2 122.9-216.4 249.9-216.4s232.4 94.2 249.9 216.4H162.9zM701.4 223.4h180.4c19.9 0 36.1-16.1 36.1-36.1s-16.1-36.1-36.1-36.1H701.4c-19.9 0-36.1 16.1-36.1 36.1s16.1 36.1 36.1 36.1z" fill="" p-id="5023"></path><path d="M737.5 295.6c-19.9 0-36.1 16.1-36.1 36.1s16.1 36.1 36.1 36.1h108.2c19.9 0 36.1-16.1 36.1-36.1s-16.1-36.1-36.1-36.1H737.5z" fill="" p-id="5024"></path></svg>