<?xml version="1.0" standalone="no"?><!DOCTYPE svg PUBLIC "-//W3C//DTD SVG 1.1//EN" "http://www.w3.org/Graphics/SVG/1.1/DTD/svg11.dtd"><svg t="1514185698188" class="icon" style="" viewBox="0 0 1024 1024" version="1.1" xmlns="http://www.w3.org/2000/svg" p-id="2312" xmlns:xlink="http://www.w3.org/1999/xlink" width="200" height="200"><defs><style type="text/css"></style></defs><path d="M832 288h-128V202.624C704 182.016 687.232 160 640.128 160h-256.256C336.768 160 320 182.016 320 202.624V288H192a32 32 0 0 0 0 64h224l192 0.032V352h224a32 32 0 0 0 0-64zM384 448a32 32 0 0 1 64 0v210.528a32 32 0 0 1-64 0V448z m192 0a32 32 0 0 1 64 0v210.528a32 32 0 0 1-64 0V448z m32-47.136H224v399.104c0 20.672 9.984 38.848 25.184 50.56 10.784 8.32 24.16 13.472 38.848 13.472h447.936c14.688 0 28.064-5.152 38.88-13.472 15.168-11.712 25.152-29.888 25.152-50.56V400.864h-192z" p-id="2313"></path></svg>