<?xml version="1.0" standalone="no"?><!DOCTYPE svg PUBLIC "-//W3C//DTD SVG 1.1//EN" "http://www.w3.org/Graphics/SVG/1.1/DTD/svg11.dtd"><svg t="1514185358341" class="icon" style="" viewBox="0 0 1024 1024" version="1.1" xmlns="http://www.w3.org/2000/svg" p-id="3967" xmlns:xlink="http://www.w3.org/1999/xlink" width="200" height="200"><defs><style type="text/css"></style></defs><path d="M832 896V212.8c0-8.8-7.2-16-16-16H640V80c0-8.8-7.2-16-16-16H208c-8.8 0-16 7.2-16 16v816h-64v64h768v-64h-64zM384 768h-64v-64h64v64z m0-128h-64v-64h64v64z m0-128h-64v-64h64v64z m0-128h-64v-64h64v64z m0-128h-64v-64h64v64z m128 512h-64v-64h64v64z m0-128h-64v-64h64v64z m0-128h-64v-64h64v64z m0-128h-64v-64h64v64z m0-128h-64v-64h64v64z m192 512h-64v-64h64v64z m0-128h-64v-64h64v64z m0-128h-64v-64h64v64z m0-128h-64v-64h64v64z" p-id="3968"></path></svg>