<?xml version="1.0" standalone="no"?><!DOCTYPE svg PUBLIC "-//W3C//DTD SVG 1.1//EN" "http://www.w3.org/Graphics/SVG/1.1/DTD/svg11.dtd"><svg class="icon" width="200px" height="200.00px" viewBox="0 0 1024 1024" version="1.1" xmlns="http://www.w3.org/2000/svg"><path fill="#ffffff" d="M395.049 332.436c0-3.882 0.138-7.626 0.415-11.372l-130.496 134.517 173.627 203.304c33.282 5.963 58.938 35.919 61.296 72.668 83.070 16.365 142.283 59.354 142.283 109.834 0 64.486-96.66 116.767-216.061 116.767-119.403 0-216.061-52.282-216.061-116.767 0-50.48 59.354-93.608 142.423-109.834 1.109-16.779 7.071-32.034 16.365-44.378l-161.881-189.754c0 0-19.36-20.94-10.691-53.293 5.852-21.856 25.030-39.857 25.030-39.857l204.689-210.792c0 0-11.815-13.869-21.996-26.876-10.178-13.008-4.814-31.411 11.067-44.321 19.651-15.975 44.335-36.168 56.486-46.556 21.955-18.778 48.759-10.555 59.312 2.328 10.567 12.883 59.050 72.014 59.050 72.014 6.797-0.554 13.73-0.833 20.663-0.833 118.986 0 215.507 81.959 215.507 183.193 0 101.097-96.519 183.056-215.507 183.056-119.14 0-215.521-81.959-215.521-183.056z" /></svg>